<svg width="197" height="197" viewBox="0 0 197 197" fill="none" xmlns="http://www.w3.org/2000/svg">
    <path
        d="M98.5 0C44.1045 0 0 44.1045 0 98.5C0 152.896 44.1045 197 98.5 197C152.896 197 197 152.896 197 98.5C197 44.1045 152.896 0 98.5 0ZM98.5 183.195C51.7199 183.195 13.8047 145.28 13.8047 98.5C13.8047 51.7199 51.7199 13.8047 98.5 13.8047C145.28 13.8047 183.195 51.7199 183.195 98.5C183.195 145.28 145.28 183.195 98.5 183.195Z"
        fill="#b45309" />
    <path
        d="M98.4992 149.955C126.917 149.955 149.954 126.918 149.954 98.5C149.954 70.082 126.917 47.0447 98.4992 47.0447C70.0812 47.0447 47.0439 70.082 47.0439 98.5C47.0439 126.918 70.0812 149.955 98.4992 149.955Z"
        fill="white" stroke="#595959" strokeWidth="1.5" stroke-miterlimit="10" />
    <path
        d="M119.803 88.4444C119.803 88.4444 126.286 92.8108 122.022 97.0154C117.568 101.396 113.334 93.6635 113.951 93.7517L119.803 88.4444Z"
        fill="#FDFDFD" />
    <path
        d="M107.925 119.552C109.865 125.036 113.159 125.256 112.938 136.9L60.4243 132.49C61.4093 131.225 62.6148 129.961 64.085 128.711C64.526 128.344 64.9818 127.976 65.4669 127.609C65.9521 127.241 66.4666 126.888 66.9958 126.536C67.5251 126.183 68.0985 125.83 68.6865 125.477C77.6104 120.111 78.2719 116.097 78.2719 116.097C78.2719 116.097 80.3742 108.129 80.0361 101.528C79.7126 94.9273 80.5066 84.3422 86.5342 82.1958C92.5471 80.0347 95.6785 81.0932 98.1777 82.2399C100.677 83.3866 104.073 84.9303 110.615 80.461C117.157 76.0065 121.391 81.6813 121.391 81.6813C121.391 81.6813 125.214 85.2831 115.055 95.8682C109.527 102.763 105.043 104.895 107.072 116.333C107.322 117.612 107.601 118.656 107.925 119.552Z"
        fill="#FDFDFD" />
    <path
        d="M60.4087 132.49C61.2761 131.387 62.3052 130.27 63.5548 129.182C63.7313 129.02 63.9077 128.873 64.0988 128.711C64.5398 128.344 64.9956 127.976 65.4807 127.609C65.9659 127.241 66.4804 126.888 67.0096 126.536C67.5389 126.183 68.1123 125.83 68.7004 125.477C77.6242 120.111 78.2857 116.097 78.2857 116.097C78.2857 116.097 80.388 108.129 80.0499 101.528C79.7264 94.9273 80.5204 84.3422 86.548 82.1958C92.5609 80.0347 95.6923 81.0932 98.1915 82.2399C100.691 83.3866 104.087 84.9303 110.629 80.461C117.171 76.0065 121.405 81.6813 121.405 81.6813C121.405 81.6813 125.228 85.2831 115.069 95.8682C109.541 102.763 105.057 104.895 107.086 116.333C107.306 117.597 107.6 118.656 107.909 119.552C109.879 125.036 113.202 125.139 112.967 136.9"
        fill="white" />
    <path
        d="M60.4087 132.49C61.2761 131.387 62.3052 130.27 63.5548 129.182C63.7313 129.02 63.9077 128.873 64.0988 128.711C64.5398 128.344 64.9956 127.976 65.4807 127.609C65.9659 127.241 66.4804 126.888 67.0096 126.536C67.5389 126.183 68.1123 125.83 68.7004 125.477C77.6242 120.111 78.2857 116.097 78.2857 116.097C78.2857 116.097 80.388 108.129 80.0499 101.528C79.7264 94.9273 80.5204 84.3422 86.548 82.1958C92.5609 80.0347 95.6923 81.0932 98.1915 82.2399C100.691 83.3866 104.087 84.9303 110.629 80.461C117.171 76.0065 121.405 81.6813 121.405 81.6813C121.405 81.6813 125.228 85.2831 115.069 95.8682C109.541 102.763 105.057 104.895 107.086 116.333C107.306 117.597 107.6 118.656 107.909 119.552C109.879 125.036 113.202 125.139 112.967 136.9"
        stroke="#595959" stroke-miterlimit="10" />
    <path
        d="M75.405 85.8714C75.405 85.8714 72.3324 86.7829 75.008 89.3557C72.3177 92.0313 71.5385 92.9722 74.0671 93.8984C72.053 96.7064 71.6708 97.5297 72.4353 99.3233C73.1998 101.117 76.9339 99.5438 76.9339 99.5438C76.9339 99.5438 75.8167 106.027 80.0066 105.439C84.1965 104.851 83.0498 101.47 83.0498 101.47C83.0498 101.47 84.7552 104.748 87.9307 102.661C91.1062 100.573 88.2394 98.3089 88.2394 98.3089C88.2394 98.3089 91.7825 98.059 92.0618 94.1631C92.3412 90.2672 89.0479 91.0169 89.0479 91.0169C89.0479 91.0169 92.1941 88.3854 90.3564 85.8861C88.9745 84.1219 86.9751 85.9155 86.9751 85.9155C86.9751 85.9155 86.8281 83.2399 85.1521 82.4019C83.4614 81.5492 82.888 84.563 82.888 84.563C82.888 84.563 80.8004 82.1225 79.7125 83.1957C78.6246 84.2837 79.6978 86.7241 79.6978 86.7241C79.6978 86.7241 76.9046 84.5189 75.405 85.8714Z"
        fill="#FDFDFD" />
    <path
        d="M90.0906 82.0195C90.0906 82.0195 91.4284 76.5653 93.5454 76.9034C94.9126 77.021 94.5892 78.9469 94.5892 78.9469C94.5892 78.9469 96.9709 75.5509 98.6469 76.3889C99.7054 76.6388 99.2349 78.403 99.2349 78.403C99.2349 78.403 101.705 76.58 103.366 77.6532C105.027 78.7264 103.028 80.52 103.028 80.52C103.028 80.52 106.733 80.2112 105.277 83.6073C103.822 87.0033 95.3243 82.5341 95.3243 82.5341L90.0906 82.0195Z"
        fill="#FDFDFD" />
    <path
        d="M75.405 85.8714C75.405 85.8714 72.3324 86.7829 75.008 89.3557C72.3177 92.0313 71.5385 92.9722 74.0671 93.8984C72.053 96.7064 71.6708 97.5297 72.4353 99.3233C73.1998 101.117 76.9339 99.5438 76.9339 99.5438C76.9339 99.5438 75.8167 106.027 80.0066 105.439C84.1965 104.851 83.0498 101.47 83.0498 101.47C83.0498 101.47 84.7552 104.748 87.9307 102.661C91.1062 100.573 88.2394 98.3089 88.2394 98.3089C88.2394 98.3089 91.7825 98.059 92.0618 94.1631C92.3412 90.2672 89.0479 91.0169 89.0479 91.0169C89.0479 91.0169 92.1941 88.3854 90.3564 85.8861C88.9745 84.1219 86.9751 85.9155 86.9751 85.9155C86.9751 85.9155 86.8281 83.2399 85.1521 82.4019C83.4614 81.5492 82.888 84.563 82.888 84.563C82.888 84.563 80.8004 82.1225 79.7125 83.1957C78.6246 84.2837 79.6978 86.7241 79.6978 86.7241C79.6978 86.7241 76.9046 84.5189 75.405 85.8714Z"
        fill="white" stroke="#595959" stroke-miterlimit="10" />
    <path
        d="M90.0906 82.0195C90.0906 82.0195 91.4284 76.5653 93.5454 76.9034C94.9126 77.021 94.5892 78.9469 94.5892 78.9469C94.5892 78.9469 96.9709 75.5509 98.6469 76.3889C99.7054 76.6388 99.2349 78.403 99.2349 78.403C99.2349 78.403 101.705 76.58 103.366 77.6532C105.027 78.7264 103.028 80.52 103.028 80.52C103.028 80.52 106.733 80.2112 105.277 83.6073C103.822 87.0033 95.3243 82.5341 95.3243 82.5341L90.0906 82.0195Z"
        fill="white" stroke="#595959" stroke-miterlimit="10" />
    <path
        d="M117.214 82.1958C117.214 82.1958 121.125 83.0779 122.286 82.1517C123.448 81.2255 122.492 79.035 120.757 77.8001C119.022 76.5651 116.567 78.3146 116.567 78.3146C116.567 78.3146 112.804 81.0344 117.214 82.1958Z"
        fill="#595959" />
    <path d="M113.936 96.2946C113.936 96.2946 110.187 98.9997 99.2346 97.9265L113.936 96.2946Z" fill="white" />
    <path d="M113.936 96.2946C113.936 96.2946 110.187 98.9997 99.2346 97.9265" stroke="#595959"
        stroke-miterlimit="10" />
    <path d="M118.231 92.3696L121.128 95.1188" stroke="#595959" stroke-miterlimit="10" />
    <path
        d="M99.1757 98.0002C98.9258 98.7353 98.2202 99.2204 97.441 99.1616C96.5148 99.0881 95.8385 98.2502 95.9267 97.3093C96.0149 96.3684 96.8235 95.6627 97.7497 95.7362C98.6759 95.8097 99.3522 96.6477 99.2639 97.5886C99.2492 97.7356 99.2198 97.8679 99.1757 98.0002Z"
        fill="white" stroke="#595959" stroke-miterlimit="10" />
    <path
        d="M99.6488 89.312C99.5606 90.2382 98.7521 90.9439 97.8406 90.8704C96.9291 90.7969 96.2528 89.9736 96.341 89.0474C96.4292 88.1212 97.2378 87.4155 98.1492 87.489C99.0607 87.5478 99.737 88.3711 99.6488 89.312Z"
        fill="white" stroke="#595959" stroke-miterlimit="10" />
    <path
        d="M93.2375 89.0177C93.2375 89.0177 93.4433 87.2829 94.5753 86.5331C95.5015 85.9304 97.4127 85.8716 97.4127 85.8716"
        fill="white" />
    <path
        d="M93.2375 89.0177C93.2375 89.0177 93.4433 87.2829 94.5753 86.5331C95.5015 85.9304 97.4127 85.8716 97.4127 85.8716"
        stroke="#595959" stroke-miterlimit="10" />
    <path
        d="M134.975 80.2702C142.892 80.2702 149.309 73.8527 149.309 65.9363C149.309 58.0198 142.892 51.6023 134.975 51.6023C127.059 51.6023 120.641 58.0198 120.641 65.9363C120.641 73.8527 127.059 80.2702 134.975 80.2702Z"
        fill="white" stroke="#595959" stroke-miterlimit="10" />
    <path
        d="M135.094 72.5227C132.683 72.8461 130.272 73.1843 127.861 73.5077C127.729 73.5224 127.597 73.5371 127.479 73.5371C126.95 73.5224 126.612 73.0078 126.788 72.4639C127.112 71.4936 127.435 70.538 127.773 69.5824C127.876 69.2737 127.905 68.9943 127.861 68.6709C127.67 67.3919 127.45 66.1128 127.361 64.8191C127.156 62.1728 128.244 60.1146 130.434 58.6445C130.625 58.5269 130.713 58.4093 130.743 58.1593C130.86 57.0273 131.772 56.1305 132.889 56.0129C134.021 55.8806 135.08 56.5422 135.491 57.6154C135.535 57.7183 135.638 57.8212 135.741 57.8653C138.476 58.7474 140.122 60.5998 140.563 63.4519C140.755 64.6721 140.902 65.8923 141.078 67.1272C141.093 67.2743 141.166 67.436 141.24 67.5536C141.828 68.421 142.401 69.3031 143.019 70.1558C143.445 70.7438 143.21 71.4642 142.386 71.5671C139.946 71.8317 137.52 72.1846 135.094 72.5227Z"
        fill="#b45309" />
    <path
        d="M131.933 74.5514C134.197 74.2427 136.403 73.9486 138.667 73.6399C137.99 74.8601 137.005 75.6099 135.682 75.8304C134.241 76.0509 133.007 75.6099 131.933 74.5514Z"
        fill="#b45309" />
</svg>