<svg width="276" height="539" viewBox="0 0 276 539" fill="none" xmlns="http://www.w3.org/2000/svg">
    <path
        d="M274.01 186.175H272.557V121.98H274.01C275.104 121.98 276 122.856 276 123.951V184.185C276 185.299 275.104 186.175 274.01 186.175Z"
        fill="url(#paint0_linear_13_4)" />
    <path
        d="M1.99007 147.997H3.44287V108.166H1.99007C0.895465 108.166 -0.00012207 109.042 -0.00012207 110.136V146.006C-0.00012207 147.121 0.875563 147.997 1.99007 147.997Z"
        fill="url(#paint1_linear_13_4)" />
    <path
        d="M1.99007 88.2801H3.44287V65.13H1.99007C0.895465 65.13 -0.00012207 66.0058 -0.00012207 67.1006V86.2895C-0.00012207 87.3843 0.875563 88.2801 1.99007 88.2801Z"
        fill="url(#paint2_linear_13_4)" />
    <path
        d="M1.99007 194.615H3.44287V154.784H1.99007C0.895465 154.784 -0.00012207 155.66 -0.00012207 156.755V192.625C-0.00012207 193.739 0.875563 194.615 1.99007 194.615Z"
        fill="url(#paint3_linear_13_4)" />
    <path
        d="M233.15 539H42.8277C20.6968 539 2.76514 521.205 2.76514 499.269V39.8501C2.76514 17.8944 20.6968 0.118774 42.8277 0.118774H233.13C255.261 0.118774 273.193 17.9143 273.193 39.8501V499.269C273.213 521.224 255.261 539 233.15 539Z"
        fill="url(#paint4_linear_13_4)" />
    <path
        d="M229.17 532.61H46.7885C27.4637 532.61 11.8009 517.084 11.8009 497.895V41.2235C11.8009 22.0545 27.4637 6.5083 46.7885 6.5083H229.17C248.495 6.5083 264.157 22.0346 264.157 41.2235V497.915C264.177 517.084 248.515 532.61 229.17 532.61Z"
        fill="url(#paint5_linear_13_4)" />
    <path
        d="M42.8288 526.579C28.0616 526.579 15.9612 514.974 15.3044 500.483C15.2845 500.085 15.2646 499.667 15.2646 499.249V39.8301C15.2646 24.9806 27.2655 12.8582 42.1522 12.5198C42.3711 12.5198 42.59 12.4999 42.8089 12.4999H233.111C233.728 12.4999 234.325 12.5198 234.942 12.5596C249.272 13.4951 260.656 25.3787 260.656 39.8102V499.229C260.656 501.12 260.476 502.951 260.098 504.723C257.531 517.164 246.406 526.539 233.111 526.539H42.8288V526.579Z"
        fill="white" />
    <path
        d="M264.18 503.509C264.18 503.509 264.12 501.697 263.981 498.293C263.861 494.89 263.622 489.893 263.483 483.543C263.184 470.824 262.528 452.65 262.13 430.873C261.911 419.965 261.652 408.161 261.513 395.681C261.353 383.2 261.194 370.022 261.035 356.407C260.936 342.792 260.737 328.699 260.717 314.406C260.677 300.114 260.637 285.583 260.597 271.032C260.637 256.501 260.677 241.97 260.717 227.658C260.717 213.366 260.936 199.273 261.015 185.658C261.095 172.042 261.314 158.865 261.493 146.384C261.652 133.904 261.891 122.1 262.11 111.191C262.289 100.283 262.587 90.2906 262.846 81.4526C263.105 72.5947 263.304 64.8713 263.483 58.5215C263.642 52.1517 263.881 47.1554 263.981 43.7715C264.1 40.3677 264.18 38.5563 264.18 38.5563C264.18 38.5563 264.259 40.3677 264.379 43.7715C264.498 47.1753 264.737 52.1716 264.876 58.5215C265.055 64.8713 265.274 72.5947 265.513 81.4526C265.772 90.3105 266.05 100.303 266.249 111.191C266.488 122.1 266.727 133.904 266.866 146.384C267.045 158.865 267.264 172.042 267.344 185.658C267.443 199.293 267.642 213.366 267.642 227.658C267.682 241.951 267.722 256.482 267.762 271.032C267.722 285.563 267.682 300.094 267.642 314.406C267.623 328.699 267.424 342.792 267.324 356.407C267.165 370.042 266.986 383.2 266.846 395.681C266.687 408.161 266.448 419.965 266.229 430.873C265.831 452.67 265.175 470.844 264.876 483.543C264.717 489.893 264.478 494.89 264.379 498.293C264.239 501.697 264.18 503.509 264.18 503.509Z"
        fill="url(#paint6_linear_13_4)" />
    <path
        d="M11.7211 503.509C11.7211 503.509 11.6614 501.697 11.5221 498.293C11.4027 494.89 11.1639 489.893 11.0245 483.543C10.726 470.824 10.0693 452.65 9.67122 430.873C9.4523 419.965 9.19358 408.161 9.05427 395.681C8.89505 383.2 8.73585 370.022 8.57664 356.407C8.47713 342.792 8.2781 328.699 8.2582 314.406C8.2184 300.114 8.1786 285.583 8.13879 271.032C8.1786 256.501 8.2184 241.97 8.2582 227.658C8.2582 213.366 8.47711 199.273 8.55672 185.658C8.63633 172.042 8.85523 158.865 9.03434 146.384C9.19356 133.904 9.43238 122.1 9.6513 111.191C9.83042 100.283 10.129 90.2906 10.3877 81.4526C10.6464 72.5947 10.8454 64.8713 11.0245 58.5215C11.1838 52.1517 11.4226 47.1554 11.5221 43.7715C11.6415 40.3677 11.7211 38.5563 11.7211 38.5563C11.7211 38.5563 11.8007 40.3677 11.9202 43.7715C12.0396 47.1753 12.2784 52.1716 12.4177 58.5215C12.5968 64.8713 12.8158 72.5947 13.0546 81.4526C13.3133 90.3105 13.5919 100.303 13.7909 111.191C14.0298 122.1 14.2487 133.904 14.4079 146.384C14.587 158.865 14.8059 172.042 14.8855 185.658C14.985 199.293 15.184 213.366 15.184 227.658C15.2238 241.951 15.2636 256.482 15.3034 271.032C15.2636 285.563 15.2238 300.094 15.184 314.406C15.1641 328.699 14.9652 342.792 14.8657 356.407C14.7064 370.042 14.5273 383.2 14.388 395.681C14.2288 408.161 13.9899 419.965 13.771 430.873C13.373 452.67 12.7162 470.844 12.4177 483.543C12.2585 489.893 12.0197 494.89 11.9202 498.293C11.7808 501.697 11.7211 503.509 11.7211 503.509Z"
        fill="url(#paint7_linear_13_4)" />
    <path
        d="M41.9138 6.50853C41.9138 6.50853 44.8593 6.34929 50.0139 6.17014C55.1685 6.0109 62.5123 5.69241 71.3687 5.49335C80.2051 5.27439 90.4944 5.07534 101.54 4.936C107.053 4.87629 112.765 4.83647 118.556 4.77676C124.348 4.75685 130.239 4.73695 136.13 4.71704C142.021 4.73695 147.912 4.75685 153.703 4.77676C159.494 4.83647 165.206 4.87629 170.719 4.936C181.765 5.05544 192.074 5.25449 200.89 5.49335C209.727 5.69241 217.091 6.0308 222.245 6.17014C227.4 6.34929 230.345 6.50853 230.345 6.50853C230.345 6.50853 227.4 6.66777 222.245 6.86683C217.091 7.02607 209.747 7.34456 200.89 7.54362C192.054 7.76258 181.765 7.96164 170.719 8.10097C165.206 8.16069 159.494 8.2005 153.703 8.26021C147.912 8.28012 142.021 8.30002 136.13 8.31993C130.239 8.30002 124.348 8.28012 118.556 8.26021C112.765 8.2005 107.053 8.16069 101.54 8.10097C90.4944 7.98154 80.1852 7.78248 71.3687 7.54362C62.5322 7.34456 55.1685 7.02607 50.0139 6.86683C44.8593 6.66777 41.9138 6.50853 41.9138 6.50853Z"
        fill="url(#paint8_linear_13_4)" />
    <path
        d="M41.9138 532.61C41.9138 532.61 44.8593 532.451 50.0139 532.272C55.1685 532.113 62.5123 531.794 71.3687 531.595C80.2051 531.376 90.4944 531.177 101.54 531.038C107.053 530.978 112.765 530.938 118.556 530.878C124.348 530.859 130.239 530.839 136.13 530.819C142.021 530.839 147.912 530.859 153.703 530.878C159.494 530.938 165.206 530.978 170.719 531.038C181.765 531.157 192.074 531.356 200.89 531.595C209.727 531.794 217.091 532.133 222.245 532.272C227.4 532.451 230.345 532.61 230.345 532.61C230.345 532.61 227.4 532.769 222.245 532.968C217.091 533.128 209.747 533.446 200.89 533.645C192.054 533.864 181.765 534.063 170.719 534.203C165.206 534.262 159.494 534.302 153.703 534.362C147.912 534.382 142.021 534.402 136.13 534.422C130.239 534.402 124.348 534.382 118.556 534.362C112.765 534.302 107.053 534.262 101.54 534.203C90.4944 534.083 80.1852 533.884 71.3687 533.645C62.5322 533.446 55.1685 533.128 50.0139 532.968C44.8593 532.769 41.9138 532.61 41.9138 532.61Z"
        fill="url(#paint9_linear_13_4)" />
    <path
        d="M46.59 345.399L230.703 345.001C235.101 345.001 238.644 341.418 238.644 337.039L238.365 212.869C238.365 208.47 234.783 204.926 230.404 204.926L46.2914 205.324C41.8931 205.324 38.3506 208.907 38.3506 213.287L38.6292 337.457C38.6292 341.856 42.1916 345.399 46.59 345.399Z"
        fill="#FECC32" />
    <path
        d="M38.7299 382.205L63.7267 381.787L88.7235 381.508L138.717 381.209L188.711 381.289L213.708 381.448L238.704 381.787L213.708 382.205L188.711 382.483L138.717 382.782L88.7235 382.702L63.7267 382.543L38.7299 382.205Z"
        fill="#ECECEC" />
    <path d="M88.3241 403.205L164.748 402.449" stroke="black" strokeWidth="1.5522" stroke-miterlimit="10"
        strokeLinecap="round" strokeLinejoin="round" />
    <path d="M88.3639 409.913L164.767 409.157" stroke="black" strokeWidth="1.5522" stroke-miterlimit="10"
        strokeLinecap="round" strokeLinejoin="round" />
    <path d="M88.4048 416.621L183.178 416.203" stroke="black" strokeWidth="1.5522" stroke-miterlimit="10"
        strokeLinecap="round" strokeLinejoin="round" />
    <path
        d="M68.8217 419.508C67.8465 420.105 66.7718 420.582 65.5976 420.861C62.5725 421.618 59.5275 421.04 57.0796 419.527C54.6714 418.054 52.8205 415.666 52.0841 412.7C50.6114 406.708 54.2535 400.657 60.244 399.184C66.2344 397.711 72.2647 401.354 73.7574 407.345C74.9515 412.182 72.822 417.039 68.8217 419.508Z"
        stroke="black" strokeWidth="1.5522" stroke-miterlimit="10" strokeLinecap="round" strokeLinejoin="round" />
    <path
        d="M142.018 235.501C139.013 235.8 132.704 232.715 129.341 231.859C125.659 230.923 115.728 233.013 111.648 237.412C105.578 239.044 93.0198 248.758 84.1435 259.766C75.2672 270.774 76.3817 269.48 78.3918 275.014C80.4019 280.547 90.4325 303.22 90.4325 303.22C90.4325 303.22 97.9355 315.203 103.826 313.949C109.717 312.675 112.504 304.414 112.504 304.414C112.504 304.414 119.589 329.475 138.217 315.74C146.655 322.21 155.651 325.195 164.189 308.296C167.672 313.65 173.722 316.974 182.598 306.166C191.475 295.337 201.664 276.606 201.664 276.606C201.664 276.606 206.302 269.082 195.296 257.258C184.31 245.434 175.852 239.522 172.926 238.228C169.085 233.61 161.184 229.908 153.084 232.078C144.964 234.227 144.884 235.223 142.018 235.501Z"
        stroke="black" strokeWidth="1.6625" stroke-miterlimit="10" strokeLinecap="round" strokeLinejoin="round" />
    <path
        d="M112.204 238.149C112.204 238.149 111.626 243.483 110.333 245.135C109.039 246.788 108.462 255.626 110.074 264.265C111.706 272.924 113.995 296.492 112.323 302.921"
        stroke="black" strokeWidth="1.6625" stroke-miterlimit="10" strokeLinecap="round" strokeLinejoin="round" />
    <path
        d="M173.639 239.124C173.639 239.124 172.147 244.28 173.401 251.645C172.624 262.314 165.281 305.907 165.281 305.907"
        stroke="black" strokeWidth="1.6625" stroke-miterlimit="10" strokeLinecap="round" strokeLinejoin="round" />
    <path
        d="M131.589 266.196C131.589 268.226 129.937 269.878 127.887 269.858C125.857 269.858 124.205 268.206 124.225 266.156C124.225 264.125 125.877 262.473 127.927 262.493C129.957 262.513 131.609 264.165 131.589 266.196Z"
        fill="black" />
    <path
        d="M157.901 266.295C157.901 268.325 156.249 269.978 154.199 269.958C152.169 269.958 150.517 268.305 150.537 266.255C150.537 264.225 152.189 262.573 154.239 262.593C156.269 262.612 157.92 264.265 157.901 266.295Z"
        fill="black" />
    <path
        d="M129.938 303.896L133.939 311.5C134.814 313.172 136.546 314.207 138.436 314.227H138.755C140.546 314.227 142.198 313.312 143.133 311.779L147.691 304.255C148.905 302.244 149.024 299.676 147.77 297.666C146.656 295.874 144.686 294.62 142.337 294.601L135.551 294.541C134.157 294.521 132.884 294.939 131.829 295.675C129.162 297.447 128.446 301.05 129.938 303.896Z"
        fill="black" />
    <path d="M87.885 178.054L164.309 177.298" stroke="black" strokeWidth="1.5522" stroke-miterlimit="10"
        strokeLinecap="round" strokeLinejoin="round" />
    <path d="M87.9259 184.762L164.329 184.006" stroke="black" strokeWidth="1.5522" stroke-miterlimit="10"
        strokeLinecap="round" strokeLinejoin="round" />
    <path d="M87.9648 191.471L182.738 191.053" stroke="black" strokeWidth="1.5522" stroke-miterlimit="10"
        strokeLinecap="round" strokeLinejoin="round" />
    <path
        d="M68.383 194.357C67.4078 194.954 66.3331 195.432 65.1589 195.71C62.1338 196.467 59.0888 195.89 56.6408 194.377C54.2327 192.904 52.3818 190.515 51.6454 187.549C50.1727 181.558 53.8147 175.506 59.8052 174.033C65.7957 172.56 71.826 176.203 73.3187 182.195C74.5128 187.032 72.3833 191.889 68.383 194.357Z"
        stroke="black" strokeWidth="1.5522" stroke-miterlimit="10" strokeLinecap="round" strokeLinejoin="round" />
    <path d="M89.6168 360.767L184.39 360.349" stroke="black" strokeWidth="1.2815" stroke-miterlimit="10"
        strokeLinecap="round" strokeLinejoin="round" />
    <path
        d="M63.7044 358.716C64.401 361.523 62.6696 364.35 59.8833 365.027C57.0771 365.723 54.251 363.991 53.5744 361.205C52.8778 358.398 54.6093 355.571 57.3956 354.895C60.1818 354.198 63.0079 355.91 63.7044 358.716Z"
        stroke="black" strokeWidth="1.2815" stroke-miterlimit="10" strokeLinecap="round" strokeLinejoin="round" />
    <path
        d="M77.9747 358.836C78.6713 361.643 76.9398 364.469 74.1535 365.146C71.3473 365.843 68.5213 364.111 67.8446 361.324C67.1481 358.517 68.8795 355.691 71.6658 355.014C74.452 354.337 77.298 356.049 77.9747 358.836Z"
        stroke="black" strokeWidth="1.2815" stroke-miterlimit="10" strokeLinecap="round" strokeLinejoin="round" />
    <path
        d="M31.8225 155.381H238.783C242.345 155.381 245.231 152.495 245.231 148.932V99.825C245.231 96.2619 242.345 93.3756 238.783 93.3756H31.8225C28.26 93.3756 25.3742 96.2619 25.3742 99.825V148.912C25.3543 152.495 28.2401 155.381 31.8225 155.381Z"
        fill="black" />
    <path
        d="M35.8028 151.4H242.763C246.326 151.4 249.211 148.514 249.211 144.951V95.844C249.211 92.281 246.326 89.3947 242.763 89.3947H35.8028C32.2404 89.3947 29.3546 92.281 29.3546 95.844V144.931C29.3347 148.514 32.2205 151.4 35.8028 151.4Z"
        fill="white" stroke="black" strokeWidth="0.9531" stroke-miterlimit="10" />
    <path
        d="M67.545 133.465C62.8482 134.023 58.1314 134.6 53.4346 135.157C53.1759 135.197 52.9371 135.217 52.6784 135.217C51.6435 135.177 51.0065 134.162 51.3847 133.127C52.0414 131.256 52.6982 129.404 53.3948 127.553C53.6137 126.956 53.6734 126.399 53.5938 125.782C53.2754 123.274 52.8774 120.785 52.7381 118.277C52.4395 113.122 54.6088 109.161 58.9275 106.354C59.2858 106.115 59.4848 105.896 59.5445 105.418C59.8032 103.229 61.6143 101.497 63.7836 101.298C65.9927 101.099 68.0426 102.413 68.779 104.483C68.8586 104.682 69.0576 104.901 69.2566 104.961C74.5705 106.772 77.6752 110.415 78.4513 115.968C78.7897 118.357 79.0285 120.746 79.327 123.114C79.3668 123.393 79.4663 123.712 79.6255 123.95C80.74 125.662 81.8148 127.414 83.0089 129.066C83.8249 130.201 83.3472 131.614 81.7351 131.793C76.9985 132.291 72.2817 132.908 67.545 133.465Z"
        fill="#FECC32" />
    <path
        d="M61.3359 137.307C65.7542 136.769 70.053 136.272 74.4513 135.734C73.0781 138.083 71.1675 139.496 68.5803 139.895C65.7741 140.332 63.3858 139.417 61.3359 137.307Z"
        fill="#FECC32" />
    <path d="M51.4652 102.751C51.2064 102.751 46.6887 108.663 47.2857 116.924" stroke="#FECC32" strokeWidth="1.3685"
        stroke-miterlimit="10" strokeLinecap="round" strokeLinejoin="round" />
    <path d="M83.3065 112.684C83.4857 112.505 82.4309 105.14 76.1021 99.7854" stroke="#FECC32" strokeWidth="1.3685"
        stroke-miterlimit="10" strokeLinecap="round" strokeLinejoin="round" />
    <path d="M111.032 117.481H217.567" stroke="black" strokeWidth="0.9531" stroke-miterlimit="10" strokeLinecap="round"
        strokeLinejoin="round" />
    <path d="M111.032 127.653H217.567" stroke="black" strokeWidth="0.9531" stroke-miterlimit="10" strokeLinecap="round"
        strokeLinejoin="round" />
    <path d="M242.803 94.6097L236.016 102.671" stroke="black" strokeWidth="0.9531" stroke-miterlimit="10"
        strokeLinecap="round" strokeLinejoin="round" />
    <path d="M235.499 95.0477L243.081 102.472" stroke="black" strokeWidth="0.9531" stroke-miterlimit="10"
        strokeLinecap="round" strokeLinejoin="round" />
    <path
        d="M102.772 516.567H173.225C174.916 516.567 176.27 515.193 176.27 513.521C176.27 511.829 174.896 510.475 173.225 510.475H102.772C101.08 510.475 99.7268 511.849 99.7268 513.521C99.7069 515.193 101.08 516.567 102.772 516.567Z"
        fill="url(#paint10_linear_13_4)" />
    <path d="M176.517 29.2803H173.711V33.2216H176.517V29.2803Z" fill="url(#paint11_linear_13_4)" />
    <path d="M181.103 27.5284H178.297V33.2214H181.103V27.5284Z" fill="url(#paint12_linear_13_4)" />
    <path d="M185.659 26.2147H182.853V33.2215H185.659V26.2147Z" fill="url(#paint13_linear_13_4)" />
    <path d="M190.234 23.6667H187.428V33.2214H190.234V23.6667Z" fill="url(#paint14_linear_13_4)" />
    <path
        d="M231.715 33.4206H217.605C217.047 33.4206 216.59 32.9628 216.59 32.4055V25.3987C216.59 24.8414 217.047 24.3835 217.585 24.3835H231.695C231.755 24.3835 231.834 24.4034 231.874 24.4632C231.914 24.503 231.954 24.5826 231.954 24.6423V26.9513H233.466C233.606 26.9513 233.725 27.0708 233.725 27.2101V30.5941C233.725 30.7334 233.606 30.8528 233.466 30.8528H231.954V33.1619C231.974 33.3012 231.854 33.4206 231.715 33.4206ZM231.456 24.9011H217.605C217.326 24.9011 217.127 25.12 217.127 25.3987V32.4055C217.127 32.6841 217.346 32.9031 217.624 32.9031H231.476V30.5941C231.476 30.4547 231.596 30.3353 231.735 30.3353H233.248V27.4689H231.735C231.596 27.4689 231.476 27.3495 231.476 27.2101V24.9011H231.456Z"
        fill="url(#paint15_linear_13_4)" />
    <path d="M218.28 31.7484V26.0554H230.301V28.6232V29.1806V31.7484H218.28Z" fill="url(#paint16_linear_13_4)" />
    <path
        d="M203.69 32.8837C203.69 32.3065 203.233 31.8486 202.656 31.8486C202.078 31.8486 201.621 32.3065 201.621 32.8837C201.621 33.461 202.078 33.9188 202.656 33.9188C203.233 33.9188 203.69 33.461 203.69 32.8837Z"
        fill="url(#paint17_linear_13_4)" />
    <path
        d="M199.134 30.395L200.448 31.7088C201.005 31.1514 201.781 30.7931 202.657 30.7931C203.513 30.7931 204.289 31.1514 204.846 31.7088L206.16 30.395C205.264 29.4992 204.01 28.9419 202.637 28.9419C201.284 28.9419 200.05 29.4992 199.134 30.395Z"
        fill="url(#paint18_linear_13_4)" />
    <path
        d="M202.661 26.0164C200.471 26.0164 198.501 26.9121 197.068 28.3254L198.382 29.6392C199.476 28.5444 200.989 27.8676 202.661 27.8676C204.332 27.8676 205.845 28.5444 206.94 29.6392L208.253 28.3254C206.82 26.8922 204.85 26.0164 202.661 26.0164Z"
        fill="url(#paint19_linear_13_4)" />
    <path
        d="M194.939 26.195L196.253 27.5088C197.905 25.8566 200.154 24.8414 202.661 24.8414C205.169 24.8414 207.438 25.8566 209.07 27.5088L210.383 26.195C208.413 24.2244 205.666 22.9902 202.661 22.9902C199.656 22.9703 196.91 24.2045 194.939 26.195Z"
        fill="url(#paint20_linear_13_4)" />
    <path
        d="M45.2169 46.1204C42.4705 46.1204 39.724 46.1204 36.9775 46.1204C36.8183 46.1204 36.679 46.1005 36.5397 46.0607C36.0023 45.9014 35.6242 45.4038 35.5645 44.8862C35.4849 44.1497 36.0023 43.4729 36.7188 43.3734C36.7785 43.3535 36.8581 43.3535 36.9178 43.3535C36.9377 43.3535 36.9775 43.3535 36.9974 43.3535C42.4705 43.3535 47.9435 43.3535 53.4165 43.3535C53.5757 43.3535 53.7349 43.3734 53.8941 43.4132C54.4315 43.5924 54.7699 43.9706 54.8495 44.5279C54.9689 45.3042 54.4315 45.9412 53.7747 46.0806C53.6951 46.1005 53.5956 46.1005 53.516 46.1005C53.4563 46.1005 53.4165 46.1005 53.3568 46.1005C50.6502 46.1204 47.9236 46.1204 45.2169 46.1204Z"
        fill="black" />
    <path
        d="M45.2169 51.6343C42.4705 51.6343 39.724 51.6343 36.9775 51.6343C36.8183 51.6343 36.679 51.6144 36.5397 51.5746C36.0023 51.4153 35.6242 50.9177 35.5645 50.4002C35.4849 49.6637 36.0023 48.9869 36.7188 48.8873C36.7785 48.8873 36.8581 48.8674 36.9178 48.8674C36.9377 48.8674 36.9775 48.8674 36.9974 48.8674C42.4705 48.8674 47.9435 48.8674 53.4165 48.8674C53.5757 48.8674 53.7349 48.8873 53.8941 48.9272C54.4315 49.1063 54.7699 49.4845 54.8495 50.0419C54.9689 50.8182 54.4315 51.4552 53.7747 51.5945C53.6951 51.6144 53.5956 51.6144 53.516 51.6144C53.4563 51.6144 53.4165 51.6144 53.3568 51.6144C50.6502 51.6343 47.9236 51.6343 45.2169 51.6343Z"
        fill="black" />
    <path
        d="M45.2162 57.1481C42.4697 57.1481 39.7232 57.1481 36.9768 57.1481C36.8175 57.1481 36.6583 57.1282 36.519 57.0884C35.9816 56.9092 35.6234 56.4315 35.5637 55.9339C35.4841 55.2571 35.9219 54.5803 36.6384 54.421C36.718 54.4011 36.8175 54.4011 36.8971 54.3812C36.9369 54.3812 36.9569 54.3812 36.9967 54.3812C42.4697 54.3812 47.9427 54.3812 53.4158 54.3812C53.575 54.3812 53.7342 54.4011 53.8934 54.4409C54.4308 54.6201 54.7691 54.9983 54.8487 55.5556C54.9681 56.332 54.4308 56.949 53.774 57.1083C53.6944 57.1282 53.5949 57.1282 53.5153 57.1481C53.4556 57.1481 53.4158 57.1481 53.3561 57.1481C50.6494 57.1481 47.9229 57.1481 45.2162 57.1481Z"
        fill="black" />
    <defs>
        <linearGradient id="paint0_linear_13_4" x1="272.552" y1="154.072" x2="276" y2="154.072"
            gradientUnits="userSpaceOnUse">
            <stop stop-color="#101010" />
            <stop offset="1" stop-color="#4E4E4E" />
        </linearGradient>
        <linearGradient id="paint1_linear_13_4" x1="-0.0062916" y1="128.081" x2="3.44188" y2="128.081"
            gradientUnits="userSpaceOnUse">
            <stop stop-color="#4E4E4E" />
            <stop offset="1" stop-color="#101010" />
        </linearGradient>
        <linearGradient id="paint2_linear_13_4" x1="3.38416" y1="76.7029" x2="0.103168" y2="76.7029"
            gradientUnits="userSpaceOnUse">
            <stop stop-color="#101010" />
            <stop offset="1" stop-color="#4E4E4E" />
        </linearGradient>
        <linearGradient id="paint3_linear_13_4" x1="-0.0062916" y1="174.706" x2="3.44188" y2="174.706"
            gradientUnits="userSpaceOnUse">
            <stop stop-color="#4E4E4E" />
            <stop offset="1" stop-color="#101010" />
        </linearGradient>
        <linearGradient id="paint4_linear_13_4" x1="2.7719" y1="269.559" x2="273.199" y2="269.559"
            gradientUnits="userSpaceOnUse">
            <stop stop-color="#494949" />
            <stop offset="0.5" stop-color="#767676" />
            <stop offset="1" stop-color="#494949" />
        </linearGradient>
        <linearGradient id="paint5_linear_13_4" x1="11.8103" y1="269.559" x2="264.182" y2="269.559"
            gradientUnits="userSpaceOnUse">
            <stop stop-color="#1B1B1B" />
            <stop offset="0.5" stop-color="#3B3B3B" />
            <stop offset="1" stop-color="#1B1B1B" />
        </linearGradient>
        <linearGradient id="paint6_linear_13_4" x1="264.174" y1="41.0347" x2="264.174" y2="502.628"
            gradientUnits="userSpaceOnUse">
            <stop />
            <stop offset="0.2258" stop-color="#303030" />
            <stop offset="0.7634" stop-color="#303030" />
            <stop offset="1" />
        </linearGradient>
        <linearGradient id="paint7_linear_13_4" x1="11.7159" y1="501.68" x2="11.7159" y2="35.9938"
            gradientUnits="userSpaceOnUse">
            <stop />
            <stop offset="0.2258" stop-color="#303030" />
            <stop offset="0.7634" stop-color="#303030" />
            <stop offset="1" />
        </linearGradient>
        <linearGradient id="paint8_linear_13_4" x1="41.271" y1="6.50475" x2="231.485" y2="6.50475"
            gradientUnits="userSpaceOnUse">
            <stop />
            <stop offset="0.2258" stop-color="#242424" />
            <stop offset="0.7634" stop-color="#242424" />
            <stop offset="1" />
        </linearGradient>
        <linearGradient id="paint9_linear_13_4" x1="41.271" y1="532.614" x2="231.485" y2="532.614"
            gradientUnits="userSpaceOnUse">
            <stop />
            <stop offset="0.2258" stop-color="#303030" />
            <stop offset="0.7634" stop-color="#303030" />
            <stop offset="1" />
        </linearGradient>
        <linearGradient id="paint10_linear_13_4" x1="99.7158" y1="513.508" x2="176.275" y2="513.508"
            gradientUnits="userSpaceOnUse">
            <stop stop-color="#1B1B1B" />
            <stop offset="0.5" stop-color="#3B3B3B" />
            <stop offset="1" stop-color="#1B1B1B" />
        </linearGradient>
        <linearGradient id="paint11_linear_13_4" x1="173.707" y1="31.2547" x2="176.515" y2="31.2547"
            gradientUnits="userSpaceOnUse">
            <stop />
            <stop offset="0.2258" stop-color="#242424" />
            <stop offset="0.7634" stop-color="#242424" />
            <stop offset="1" />
        </linearGradient>
        <linearGradient id="paint12_linear_13_4" x1="178.288" y1="30.3771" x2="181.096" y2="30.3771"
            gradientUnits="userSpaceOnUse">
            <stop />
            <stop offset="0.2258" stop-color="#242424" />
            <stop offset="0.7634" stop-color="#242424" />
            <stop offset="1" />
        </linearGradient>
        <linearGradient id="paint13_linear_13_4" x1="182.859" y1="29.7189" x2="185.667" y2="29.7189"
            gradientUnits="userSpaceOnUse">
            <stop />
            <stop offset="0.2258" stop-color="#242424" />
            <stop offset="0.7634" stop-color="#242424" />
            <stop offset="1" />
        </linearGradient>
        <linearGradient id="paint14_linear_13_4" x1="187.429" y1="28.4463" x2="190.237" y2="28.4463"
            gradientUnits="userSpaceOnUse">
            <stop />
            <stop offset="0.2258" stop-color="#242424" />
            <stop offset="0.7634" stop-color="#242424" />
            <stop offset="1" />
        </linearGradient>
        <linearGradient id="paint15_linear_13_4" x1="216.607" y1="28.9057" x2="233.745" y2="28.9057"
            gradientUnits="userSpaceOnUse">
            <stop />
            <stop offset="0.2258" stop-color="#242424" />
            <stop offset="0.7634" stop-color="#242424" />
            <stop offset="1" />
        </linearGradient>
        <linearGradient id="paint16_linear_13_4" x1="218.273" y1="28.9057" x2="230.31" y2="28.9057"
            gradientUnits="userSpaceOnUse">
            <stop />
            <stop offset="0.2258" stop-color="#242424" />
            <stop offset="0.7634" stop-color="#242424" />
            <stop offset="1" />
        </linearGradient>
        <linearGradient id="paint17_linear_13_4" x1="201.625" y1="32.8835" x2="203.687" y2="32.8835"
            gradientUnits="userSpaceOnUse">
            <stop />
            <stop offset="0.2258" stop-color="#242424" />
            <stop offset="0.7634" stop-color="#242424" />
            <stop offset="1" />
        </linearGradient>
        <linearGradient id="paint18_linear_13_4" x1="199.143" y1="30.3269" x2="206.173" y2="30.3269"
            gradientUnits="userSpaceOnUse">
            <stop />
            <stop offset="0.2258" stop-color="#242424" />
            <stop offset="0.7634" stop-color="#242424" />
            <stop offset="1" />
        </linearGradient>
        <linearGradient id="paint19_linear_13_4" x1="197.075" y1="27.825" x2="208.248" y2="27.825"
            gradientUnits="userSpaceOnUse">
            <stop />
            <stop offset="0.2258" stop-color="#242424" />
            <stop offset="0.7634" stop-color="#242424" />
            <stop offset="1" />
        </linearGradient>
        <linearGradient id="paint20_linear_13_4" x1="194.935" y1="25.2403" x2="210.389" y2="25.2403"
            gradientUnits="userSpaceOnUse">
            <stop />
            <stop offset="0.2258" stop-color="#242424" />
            <stop offset="0.7634" stop-color="#242424" />
            <stop offset="1" />
        </linearGradient>
    </defs>
</svg>