<?xml version="1.0" encoding="UTF-8" standalone="no"?>
<svg
   viewBox="0 0 64 64"
   version="1.1"
   id="svg1"
   width="64"
   height="64"
   xmlns="http://www.w3.org/2000/svg"
   xmlns:svg="http://www.w3.org/2000/svg">
  <defs
     id="defs1" />
  <path
     d="M 27.167306,0.46041622 C 14.366791,2.4428785 4.1701848,11.598062 0.88321105,24.059961 0.16856136,26.7702 0.00380596,28.185852 2.7460238e-5,31.654214 -0.00690254,38.094734 1.2975129,43.138018 4.2779628,48.194608 c 1.8151079,3.079238 2.2400579,3.624892 5.0021899,6.424483 3.8317193,3.883419 9.3487893,7.113051 14.6578543,8.580542 2.736739,0.756422 10.677152,1.065403 13.743072,0.535083 C 72.549125,57.701411 73.401172,5.9657997 36.466657,0.43040038 32.588613,-0.1507275 31.083112,-0.14595187 27.167306,0.46040161 M 22.738342,9.3850299 C 19.219675,11.183672 18.67494,18.242152 21.80092,21.535221 c 2.628613,2.769237 5.779663,2.297581 7.543283,-1.128836 2.970149,-5.77106 -1.684335,-13.5368629 -6.605861,-11.0213551 m 15.109897,0.01705 c -2.696231,1.3477931 -4.286168,5.5026691 -3.478499,9.0886871 0.988562,4.389176 4.652076,6.187814 7.593737,3.728241 1.879984,-1.571508 2.560649,-3.321384 2.565455,-6.593646 0.0045,-3.316264 -0.596918,-4.742146 -2.553789,-6.0524184 C 40.596993,8.6500915 39.447108,8.6026929 37.848239,9.4020764 M 12.95397,20.317411 c -4.1210683,0.973668 -4.8573383,7.930863 -1.248056,11.793468 2.113394,2.26211 4.470155,2.564608 6.33847,0.814051 2.179298,-2.04213 2.461107,-5.477421 0.737647,-8.985347 -1.217855,-2.478672 -3.82073,-4.096554 -5.828061,-3.622172 m 37.17098,0.08696 c -1.571748,0.456658 -2.838342,1.572873 -3.822096,3.368443 -4.052074,7.397476 2.795093,14.171875 7.626343,7.545489 3.575299,-4.903799 0.994396,-12.307755 -3.804247,-10.913932 m -21.150431,4.500698 c -1.834332,0.615567 -4.303674,3.087426 -5.675998,5.682039 -0.70709,1.337217 -1.793487,2.789014 -2.496799,3.337073 -4.759178,3.708115 -6.646368,6.773376 -6.646368,10.795584 0,3.961511 2.027239,6.455529 5.594988,6.884208 1.507899,0.181094 2.371173,0.01667 5.560661,-1.059604 3.244064,-1.094741 4.210658,-1.275141 6.86502,-1.281285 2.668773,-0.0063 3.597954,0.164736 6.826915,1.252974 2.055727,0.692653 4.140979,1.258435 4.633879,1.257418 4.565929,-0.0094 7.502441,-3.926045 6.577718,-8.772201 -0.658342,-3.447905 -2.431588,-5.873379 -6.583546,-9.004456 -0.65424,-0.493485 -1.710415,-1.874691 -2.347145,-3.069347 -2.562715,-4.810355 -4.385034,-6.154735 -8.552785,-6.308884 -1.437882,-0.0532 -3.128386,0.0757 -3.75654,0.286481"
     stroke="none"
     fill="#b45208"
     fill-rule="evenodd"
     id="path1"
     style="fill:#ffffff;fill-opacity:1;stroke:none;stroke-width:0;stroke-dasharray:none;stroke-opacity:1" />
</svg>
