<svg width="732" height="554" viewBox="0 0 732 554" fill="none" xmlns="http://www.w3.org/2000/svg">
    <g clip-path="url(#clip0_2_28227)">
        <path
            d="M285.852 499.103C138.876 479.264 21.3212 367.931 2.54003 227.327C-6.32141 161.106 7.52106 96.0138 51.3908 49.8001C144.732 -48.3599 218.516 129.026 325.319 63.355C489.637 -37.6855 726.356 -21.9985 731.351 140.279C736.346 302.557 714.334 459.469 608.222 498.919C558.003 517.599 376.922 511.401 285.852 499.103Z"
            fill="#FDF2F5" />
        <path
            d="M424.418 229.854H272.913C266.476 229.854 261.257 235.076 261.257 241.517V307.739C261.257 314.18 266.476 319.402 272.913 319.402H424.418C430.855 319.402 436.073 314.18 436.073 307.739V241.517C436.073 235.076 430.855 229.854 424.418 229.854Z"
            fill="#F9E6EB" />
        <path
            d="M599.234 229.854H447.729C441.291 229.854 436.073 235.076 436.073 241.517V307.739C436.073 314.18 441.291 319.402 447.729 319.402H599.234C605.671 319.402 610.889 314.18 610.889 307.739V241.517C610.889 235.076 605.671 229.854 599.234 229.854Z"
            fill="#F9E6EB" />
        <path
            d="M257.038 275.673H227.547C225.217 275.673 223.328 277.563 223.328 279.895V363.681C223.328 366.013 225.217 367.903 227.547 367.903H257.038C259.368 367.903 261.257 366.013 261.257 363.681V279.895C261.257 277.563 259.368 275.673 257.038 275.673Z"
            fill="white" />
        <path
            d="M257.038 275.673H227.547C225.217 275.673 223.328 277.563 223.328 279.895V363.681C223.328 366.013 225.217 367.903 227.547 367.903H257.038C259.368 367.903 261.257 366.013 261.257 363.681V279.895C261.257 277.563 259.368 275.673 257.038 275.673Z"
            stroke="#010101" strokeWidth="0.5" strokeLinecap="round" strokeLinejoin="round" />
        <path
            d="M644.599 275.673H615.108C612.778 275.673 610.889 277.563 610.889 279.895V363.681C610.889 366.013 612.778 367.903 615.108 367.903H644.599C646.929 367.903 648.818 366.013 648.818 363.681V279.895C648.818 277.563 646.929 275.673 644.599 275.673Z"
            fill="#F9E6EB" />
        <path
            d="M644.599 275.673H615.108C612.778 275.673 610.889 277.563 610.889 279.895V363.681C610.889 366.013 612.778 367.903 615.108 367.903H644.599C646.929 367.903 648.818 366.013 648.818 363.681V279.895C648.818 277.563 646.929 275.673 644.599 275.673Z"
            stroke="#010101" strokeWidth="0.5" strokeLinecap="round" strokeLinejoin="round" />
        <path
            d="M604.878 319.401H267.254C263.942 319.401 261.257 322.088 261.257 325.402V375.993C261.257 379.307 263.942 381.994 267.254 381.994H604.878C608.19 381.994 610.875 379.307 610.875 375.993V325.402C610.875 322.088 608.19 319.401 604.878 319.401Z"
            fill="#F9E6EB" />
        <path
            d="M357.887 319.401H604.892C605.679 319.4 606.459 319.553 607.186 319.853C607.914 320.153 608.575 320.594 609.132 321.15C609.689 321.706 610.131 322.367 610.432 323.094C610.734 323.821 610.889 324.601 610.889 325.388V375.993C610.889 376.78 610.734 377.56 610.432 378.287C610.131 379.015 609.689 379.675 609.132 380.231C608.575 380.787 607.914 381.228 607.186 381.528C606.459 381.828 605.679 381.982 604.892 381.98H267.254C265.666 381.98 264.143 381.35 263.019 380.227C261.895 379.105 261.261 377.582 261.257 375.993V325.388C261.261 323.799 261.895 322.276 263.019 321.154C264.143 320.032 265.666 319.401 267.254 319.401H339.007"
            stroke="#010101" strokeWidth="0.5" strokeLinecap="round" strokeLinejoin="round" />
        <path d="M307.328 381.782L296.858 428.956H308.119L319.308 381.782H307.328Z" fill="#010101" />
        <path d="M591.332 381.782L605.231 428.956H601.012L586.421 381.782H591.332Z" fill="#010101" />
        <path
            d="M380.703 260.24C380.703 260.98 380.484 261.703 380.073 262.319C379.662 262.934 379.078 263.414 378.395 263.697C377.712 263.98 376.96 264.054 376.234 263.91C375.509 263.765 374.843 263.409 374.32 262.886C373.797 262.363 373.441 261.696 373.296 260.97C373.152 260.244 373.226 259.492 373.509 258.808C373.792 258.124 374.272 257.54 374.886 257.129C375.501 256.718 376.224 256.498 376.964 256.498C377.956 256.498 378.907 256.893 379.608 257.594C380.309 258.296 380.703 259.248 380.703 260.24Z"
            fill="#010101" />
        <path
            d="M380.703 294.96C380.703 295.7 380.484 296.424 380.073 297.039C379.662 297.654 379.078 298.134 378.395 298.417C377.712 298.7 376.96 298.774 376.234 298.63C375.509 298.486 374.843 298.129 374.32 297.606C373.797 297.083 373.441 296.416 373.296 295.69C373.152 294.964 373.226 294.212 373.509 293.528C373.792 292.845 374.272 292.26 374.886 291.849C375.501 291.438 376.224 291.219 376.964 291.219C377.455 291.219 377.941 291.315 378.395 291.503C378.849 291.691 379.261 291.967 379.608 292.314C379.955 292.662 380.231 293.074 380.419 293.528C380.606 293.982 380.703 294.469 380.703 294.96Z"
            fill="#010101" />
        <path
            d="M493.687 260.24C493.687 260.98 493.467 261.703 493.056 262.319C492.646 262.934 492.062 263.414 491.378 263.697C490.695 263.98 489.943 264.054 489.218 263.91C488.492 263.765 487.826 263.409 487.303 262.886C486.78 262.363 486.424 261.696 486.28 260.97C486.136 260.244 486.21 259.492 486.493 258.808C486.776 258.124 487.255 257.54 487.87 257.129C488.485 256.718 489.208 256.498 489.947 256.498C490.939 256.498 491.89 256.893 492.591 257.594C493.293 258.296 493.687 259.248 493.687 260.24Z"
            fill="#010101" />
        <path
            d="M493.687 294.96C493.687 295.7 493.467 296.424 493.056 297.039C492.646 297.654 492.062 298.134 491.378 298.417C490.695 298.7 489.943 298.774 489.218 298.63C488.492 298.486 487.826 298.129 487.303 297.606C486.78 297.083 486.424 296.416 486.28 295.69C486.136 294.964 486.21 294.212 486.493 293.528C486.776 292.845 487.255 292.26 487.87 291.849C488.485 291.438 489.208 291.219 489.947 291.219C490.438 291.219 490.925 291.315 491.378 291.503C491.832 291.691 492.244 291.967 492.591 292.314C492.939 292.662 493.214 293.074 493.402 293.528C493.59 293.982 493.687 294.469 493.687 294.96Z"
            fill="#010101" />
        <path
            d="M554.983 260.24C554.983 260.98 554.764 261.703 554.353 262.319C553.942 262.934 553.358 263.414 552.675 263.697C551.991 263.98 551.24 264.054 550.514 263.91C549.789 263.765 549.123 263.409 548.6 262.886C548.077 262.363 547.721 261.696 547.576 260.97C547.432 260.244 547.506 259.492 547.789 258.808C548.072 258.124 548.551 257.54 549.166 257.129C549.781 256.718 550.504 256.498 551.244 256.498C552.235 256.498 553.187 256.893 553.888 257.594C554.589 258.296 554.983 259.248 554.983 260.24Z"
            fill="#010101" />
        <path
            d="M554.983 294.96C554.983 295.7 554.764 296.424 554.353 297.039C553.942 297.654 553.358 298.134 552.675 298.417C551.991 298.7 551.24 298.774 550.514 298.63C549.789 298.486 549.123 298.129 548.6 297.606C548.077 297.083 547.721 296.416 547.576 295.69C547.432 294.964 547.506 294.212 547.789 293.528C548.072 292.845 548.551 292.26 549.166 291.849C549.781 291.438 550.504 291.219 551.244 291.219C551.735 291.219 552.221 291.315 552.675 291.503C553.128 291.691 553.541 291.967 553.888 292.314C554.235 292.662 554.51 293.074 554.698 293.528C554.886 293.982 554.983 294.469 554.983 294.96Z"
            fill="#010101" />
        <path
            d="M351.748 319.402H272.927C269.832 319.402 266.864 318.171 264.675 315.981C262.487 313.792 261.257 310.821 261.257 307.725V241.517C261.257 239.985 261.559 238.467 262.146 237.051C262.733 235.635 263.592 234.349 264.676 233.265C265.76 232.182 267.046 231.324 268.462 230.738C269.878 230.153 271.395 229.853 272.927 229.855H424.418C427.509 229.855 430.474 231.083 432.659 233.27C434.845 235.458 436.073 238.424 436.073 241.517V307.725C436.075 309.257 435.775 310.775 435.19 312.192C434.605 313.609 433.747 314.896 432.664 315.981C431.582 317.065 430.296 317.925 428.881 318.512C427.466 319.099 425.95 319.402 424.418 319.402H356.687"
            stroke="#010101" strokeWidth="0.5" strokeLinecap="round" strokeLinejoin="round" />
        <path
            d="M599.234 229.854H447.729C441.291 229.854 436.073 235.076 436.073 241.517V307.739C436.073 314.18 441.291 319.402 447.729 319.402H599.234C605.671 319.402 610.889 314.18 610.889 307.739V241.517C610.889 235.076 605.671 229.854 599.234 229.854Z"
            stroke="#010101" strokeWidth="0.5" strokeLinecap="round" strokeLinejoin="round" />
        <path d="M217.754 135.591H67.6743V147.565H217.754V135.591Z" fill="white" />
        <path d="M218.164 147.974H67.2651V135.182H218.164V147.974ZM68.0836 147.155H217.303V136.001H68.0836V147.155Z"
            fill="#010101" />
        <path d="M219.772 112.421H144.224V124.013H219.772V112.421Z" fill="#F9E5EF" />
        <path d="M220.125 124.423H143.815V112.011H220.125V124.423ZM144.577 123.59H219.363V112.83H144.577V123.59Z"
            fill="#010101" />
        <path d="M214.396 123.999H138.848V135.591H214.396V123.999Z" fill="white" />
        <path d="M214.805 136.001H138.439V123.59H214.805V136.001ZM139.257 135.182H214.043V124.423H139.257V135.182Z"
            fill="#010101" />
        <path d="M196.137 100.419H138.439V112.011H196.137V100.419Z" fill="#b45309" />
        <path d="M136.212 86.3084L110.446 130.965L118.462 135.596L144.228 90.9397L136.212 86.3084Z" fill="white" />
        <path
            d="M118.613 136.156L109.879 131.101L136.054 85.7488L144.788 90.7895L118.613 136.156ZM110.994 130.805L118.317 135.041L143.716 91.1001L136.407 86.8642L110.994 130.805Z"
            fill="#010101" />
        <path
            d="M93.9907 102.184C93.9139 102.108 93.8099 102.064 93.7014 102.064C93.5929 102.064 93.4889 102.108 93.4121 102.184L87.4857 107.945L87.3305 95.1526C87.3235 95.0439 87.2762 94.9417 87.198 94.866C87.1197 94.7902 87.016 94.7465 86.9072 94.7432C86.7973 94.7468 86.6933 94.7931 86.6169 94.8721C86.5405 94.9512 86.4979 95.0568 86.4979 95.1668L86.6673 107.79L80.9525 102.142C80.8741 102.068 80.7707 102.028 80.6632 102.028C80.5558 102.028 80.4524 102.068 80.374 102.142C80.2996 102.223 80.2583 102.329 80.2583 102.438C80.2583 102.548 80.2996 102.654 80.374 102.735L86.6814 108.933V113.438C86.6814 113.546 86.7245 113.65 86.8012 113.727C86.878 113.804 86.9821 113.847 87.0906 113.847C87.1991 113.847 87.3032 113.804 87.3799 113.727C87.4567 113.65 87.4998 113.546 87.4998 113.438V109.046L93.9907 102.735C94.0591 102.66 94.097 102.561 94.097 102.46C94.097 102.358 94.0591 102.26 93.9907 102.184Z"
            fill="#010101" />
        <path
            d="M87.9369 135.549C83.9885 135.549 80.2012 133.982 77.4054 131.193C74.6095 128.403 73.0332 124.618 73.022 120.667V113.466H102.866V120.667C102.851 124.619 101.271 128.404 98.4733 131.194C95.6752 133.983 91.8865 135.549 87.9369 135.549Z"
            fill="#b45309" />
        <path
            d="M83.817 130.339C83.7565 130.352 83.694 130.352 83.6336 130.339C76.9311 126.922 76.9028 117.631 76.9028 117.264C76.9028 117.211 76.9135 117.158 76.9342 117.109C76.9549 117.06 76.9853 117.016 77.0235 116.979C77.0617 116.942 77.1069 116.914 77.1565 116.895C77.2061 116.876 77.259 116.867 77.312 116.869C77.3663 116.867 77.4204 116.876 77.4709 116.896C77.5215 116.916 77.5674 116.946 77.6058 116.984C77.6442 117.023 77.6743 117.069 77.6941 117.119C77.714 117.17 77.7232 117.224 77.7212 117.278C77.7212 117.363 77.7212 126.428 84.0004 129.605C84.0953 129.656 84.1672 129.741 84.2012 129.844C84.2353 129.946 84.2291 130.057 84.1839 130.155C84.1443 130.216 84.0895 130.264 84.0251 130.296C83.9607 130.329 83.8889 130.343 83.817 130.339Z"
            fill="white" />
        <path
            d="M91.1117 91.1002C91.1893 91.6975 91.1386 92.3046 90.9632 92.8808C90.7877 93.4569 90.4914 93.9891 90.0941 94.4416C89.6968 94.8941 89.2077 95.2567 88.6593 95.505C88.1108 95.7534 87.5158 95.8818 86.9138 95.8818C86.3119 95.8818 85.7168 95.7534 85.1684 95.505C84.62 95.2567 84.1308 94.8941 83.7336 94.4416C83.3363 93.9891 83.04 93.4569 82.8645 92.8808C82.689 92.3046 82.6384 91.6975 82.7159 91.1002C82.7159 88.7846 84.5927 91.1002 86.9491 91.1002C89.3056 91.1002 91.1117 88.7846 91.1117 91.1002Z"
            fill="#b45309" />
        <path
            d="M86.9072 95.7175C85.6859 95.7137 84.5159 95.2256 83.6536 94.3601C82.7913 93.4947 82.3071 92.3224 82.3071 91.1003C82.2778 90.8612 82.3061 90.6185 82.3895 90.3926C82.473 90.1666 82.6092 89.9639 82.7869 89.8013C83.2667 89.4907 83.8593 89.8013 84.6213 90.0696C85.3333 90.4296 86.111 90.641 86.9072 90.6908C87.7079 90.6409 88.4902 90.4296 89.2072 90.0696C89.9692 89.7448 90.6183 89.4907 91.0416 89.8013C91.2193 89.9639 91.3555 90.1666 91.439 90.3926C91.5224 90.6185 91.5507 90.8612 91.5213 91.1003C91.5176 92.3237 91.0303 93.4959 90.1658 94.361C89.3013 95.2261 88.1298 95.7137 86.9072 95.7175ZM83.2525 90.479C83.2525 90.479 83.1397 90.5638 83.1397 91.0862C83.1986 92.0517 83.6234 92.9583 84.3274 93.6211C85.0315 94.2839 85.9617 94.6529 86.9284 94.6529C87.895 94.6529 88.8252 94.2839 89.5293 93.6211C90.2333 92.9583 90.6581 92.0517 90.717 91.0862C90.717 90.5638 90.6042 90.479 90.6042 90.479C90.6042 90.479 89.8704 90.6626 89.5459 90.8038C88.7478 91.2568 87.8459 91.4949 86.9284 91.4949C86.0108 91.4949 85.1089 91.2568 84.3108 90.8038C83.9714 90.6561 83.6164 90.5472 83.2525 90.479Z"
            fill="#010101" />
        <path
            d="M99.5078 102.156C99.155 102.649 98.7006 103.06 98.1753 103.362C97.65 103.664 97.0661 103.849 96.463 103.906C95.8599 103.963 95.2516 103.89 94.6793 103.691C94.1069 103.492 93.5839 103.173 93.1455 102.755C92.707 102.336 92.3634 101.829 92.1379 101.266C91.9123 100.704 91.8101 100.099 91.838 99.4935C91.8659 98.888 92.0235 98.2955 92.2999 97.7561C92.5763 97.2167 92.9652 96.743 93.4402 96.3669C95.0347 94.6867 94.8513 97.6659 96.474 99.1908C98.0967 100.716 101.102 100.49 99.5078 102.156Z"
            fill="#b45309" />
        <path
            d="M96.4741 103.864C95.5694 103.874 94.682 103.616 93.9237 103.122C93.1654 102.628 92.57 101.921 92.2125 101.089C91.855 100.257 91.7514 99.3384 91.9146 98.4478C92.0779 97.5573 92.5007 96.7351 93.1299 96.0845C93.2699 95.8902 93.4545 95.7323 93.6681 95.6242C93.8817 95.5161 94.1182 95.4609 94.3575 95.4632C94.9361 95.5762 95.1901 96.1692 95.5146 96.8752C95.785 97.6277 96.2023 98.3188 96.7422 98.9084C97.3519 99.4267 98.0633 99.8115 98.8306 100.038C99.5926 100.334 100.242 100.56 100.34 101.125C100.354 101.363 100.312 101.601 100.216 101.82C100.12 102.038 99.9744 102.231 99.7901 102.382C99.369 102.844 98.8572 103.214 98.2866 103.469C97.716 103.724 97.099 103.859 96.4741 103.864ZM94.2305 96.2821C94.2305 96.2821 94.0753 96.2821 93.7367 96.6493C93.3939 97.009 93.1252 97.4327 92.9461 97.8963C92.7669 98.36 92.6808 98.8543 92.6926 99.3513C92.7044 99.8482 92.8139 100.338 93.0148 100.792C93.2157 101.247 93.5042 101.658 93.8637 102.001C94.2232 102.344 94.6466 102.612 95.11 102.792C95.5733 102.971 96.0673 103.057 96.5639 103.045C97.0605 103.034 97.5499 102.924 98.0042 102.723C98.4585 102.522 98.8688 102.233 99.2116 101.874C99.5643 101.506 99.5502 101.365 99.5502 101.365C99.5502 101.365 98.887 100.998 98.5484 100.871C97.6821 100.598 96.8804 100.151 96.1919 99.5579C95.5673 98.8969 95.0868 98.1131 94.7809 97.2564C94.6398 96.9175 94.3717 96.2963 94.2447 96.2821H94.2305Z"
            fill="#010101" />
        <path
            d="M75.4917 102.424C75.8475 102.911 76.3031 103.316 76.828 103.613C77.3529 103.909 77.935 104.09 78.5354 104.143C79.1358 104.196 79.7406 104.121 80.3094 103.921C80.8782 103.722 81.3978 103.403 81.8336 102.986C82.2693 102.569 82.6111 102.064 82.836 101.505C83.0609 100.945 83.1638 100.344 83.1379 99.7413C83.1119 99.1388 82.9576 98.5487 82.6854 98.0106C82.4131 97.4725 82.0292 96.9987 81.5592 96.6211C79.9506 94.955 80.1482 97.9201 78.5254 99.5297C76.9027 101.139 73.8831 100.744 75.4917 102.424Z"
            fill="#b45309" />
        <path
            d="M78.5254 104.133H78.4125C77.8096 104.122 77.2147 103.992 76.6625 103.749C76.1102 103.507 75.6116 103.157 75.1953 102.721C75.0081 102.569 74.8602 102.374 74.7644 102.153C74.6686 101.932 74.6276 101.69 74.645 101.45C74.772 100.899 75.3787 100.659 76.1548 100.377C76.9161 100.136 77.6248 99.7527 78.2432 99.2473C78.7814 98.6511 79.1984 97.9557 79.4708 97.1999C79.7953 96.4516 80.0493 95.7879 80.6138 95.7879C80.8537 95.7852 81.091 95.8387 81.3066 95.9441C81.5222 96.0495 81.7102 96.204 81.8555 96.3951C82.4818 97.0466 82.9026 97.8683 83.0652 98.7576C83.2278 99.6469 83.1251 100.564 82.77 101.396C82.4148 102.227 81.8229 102.935 81.068 103.432C80.3132 103.929 79.4289 104.192 78.5254 104.189V104.133ZM80.769 96.5363C80.642 96.5363 80.3739 97.1858 80.2328 97.5105C79.9231 98.3697 79.4432 99.1573 78.8217 99.8262C78.1314 100.421 77.3237 100.863 76.4511 101.125C76.1125 101.252 75.4775 101.492 75.4493 101.619C75.4211 101.746 75.4493 101.761 75.8021 102.142C76.1448 102.502 76.555 102.79 77.0093 102.992C77.4636 103.193 77.9531 103.302 78.4497 103.314C78.9463 103.326 79.4404 103.24 79.9037 103.06C80.3671 102.881 80.7905 102.612 81.15 102.269C81.8737 101.572 82.2931 100.617 82.3169 99.6123C82.3407 98.6075 81.9669 97.6339 81.277 96.9034C80.9242 96.5504 80.769 96.5363 80.769 96.5363Z"
            fill="#010101" />
        <path
            d="M417.856 170.848C416.981 169.436 416.318 168.18 415.556 167.022C414.776 165.772 413.611 164.811 412.236 164.283C410.861 163.756 409.351 163.691 407.937 164.099C406.533 164.274 405.224 164.899 404.206 165.882C403.188 166.865 402.517 168.152 402.292 169.549C401.877 171.709 401.82 173.922 402.123 176.101C403.236 182.223 406.395 187.784 411.083 191.872C412.231 193.143 413.802 193.952 415.503 194.15C417.203 194.347 418.917 193.919 420.326 192.946C426.737 189.287 431.822 183.685 434.845 176.948C435.608 175.355 435.826 173.555 435.466 171.825C435.107 170.096 434.19 168.532 432.856 167.375C431.545 166.293 429.921 165.661 428.224 165.572C426.527 165.483 424.847 165.942 423.43 166.881C421.553 168.024 419.846 169.436 417.856 170.848Z"
            fill="#b45309" />
        <path
            d="M422.809 131.313C422.225 130.437 421.589 129.598 420.904 128.8C420.324 128.142 419.576 127.654 418.741 127.387C417.905 127.12 417.013 127.085 416.16 127.285C415.306 127.484 414.522 127.912 413.891 128.522C413.261 129.132 412.807 129.901 412.579 130.748C412.386 131.389 412.296 132.056 412.311 132.725C412.421 135.464 413.21 138.133 414.607 140.492C416.003 142.85 417.964 144.825 420.311 146.237C421.021 146.658 421.842 146.851 422.665 146.79C423.487 146.73 424.271 146.419 424.911 145.899C428.989 143.36 432.163 139.6 433.985 135.154C434.524 134.041 434.659 132.775 434.365 131.574C434.071 130.372 433.368 129.311 432.376 128.574C430.415 127.162 428.411 127.162 425.941 128.884C424.911 129.604 423.938 130.409 422.809 131.313Z"
            fill="#b45309" />
        <path
            d="M374.156 150.869C373.266 150.14 372.323 149.479 371.334 148.892C370.726 148.536 370.037 148.344 369.333 148.336C368.629 148.328 367.935 148.504 367.319 148.846C366.704 149.188 366.188 149.685 365.823 150.287C365.458 150.89 365.257 151.577 365.238 152.281C365.182 153.905 365.521 155.519 366.226 156.983C367.827 160.106 370.438 162.595 373.634 164.043C374.301 164.413 375.068 164.566 375.827 164.48C376.586 164.394 377.299 164.073 377.867 163.562C381.391 160.622 383.707 156.485 384.372 151.942C384.559 150.95 384.403 149.924 383.928 149.033C383.453 148.142 382.689 147.44 381.761 147.042C380.854 146.618 379.832 146.509 378.856 146.731C377.879 146.954 377.005 147.495 376.371 148.271C375.652 149.062 375.017 149.895 374.156 150.869Z"
            fill="#b45309" />
        <path
            d="M391.385 114.624C390.753 114.103 390.084 113.631 389.381 113.212C388.946 112.956 388.453 112.818 387.948 112.811C387.444 112.805 386.947 112.931 386.506 113.177C386.065 113.422 385.696 113.779 385.436 114.211C385.175 114.643 385.032 115.136 385.021 115.64C384.976 116.801 385.218 117.956 385.726 119.001C386.871 121.249 388.741 123.045 391.032 124.098C391.508 124.364 392.055 124.474 392.596 124.414C393.138 124.353 393.647 124.124 394.052 123.759C396.574 121.653 398.236 118.694 398.722 115.443C398.849 114.733 398.732 114.001 398.392 113.366C398.051 112.73 397.506 112.228 396.846 111.941C396.195 111.636 395.463 111.557 394.762 111.716C394.062 111.874 393.435 112.261 392.979 112.816C392.457 113.339 391.992 113.932 391.385 114.624Z"
            fill="#b45309" />
        <path d="M667.529 80.1997H579.479V193.482H667.529V80.1997Z" stroke="#010101" strokeWidth="0.5"
            strokeLinecap="round" strokeLinejoin="round" />
        <path d="M661.842 87.5139H585.166V186.168H661.842V87.5139Z" fill="white" />
        <path d="M661.842 87.5139H585.166V186.168H661.842V87.5139Z" stroke="#010101" strokeWidth="0.5"
            strokeLinecap="round" strokeLinejoin="round" />
        <path d="M635.879 120.921H611.129V152.761H635.879V120.921Z" fill="#b45309" />
        <path d="M551.413 36.7537H503.338V98.612H551.413V36.7537Z" fill="white" />
        <path d="M554.969 32.1787H499.768V103.201H554.969V32.1787Z" stroke="#010101" strokeWidth="0.5"
            strokeLinecap="round" strokeLinejoin="round" />
        <path d="M551.413 36.7537H503.338V98.612H551.413V36.7537Z" stroke="#010101" strokeWidth="0.5"
            strokeLinecap="round" strokeLinejoin="round" />
        <path d="M535.143 57.7073H519.622V77.6725H535.143V57.7073Z" stroke="#010101" strokeWidth="0.5"
            strokeLinecap="round" strokeLinejoin="round" />
        <path d="M212.689 482.413H155.527L162.893 534.077L284.596 551.91L298.735 500.26L212.689 482.413Z"
            fill="#F3E4EA" />
        <path d="M212.689 482.413H155.527L162.893 534.077L284.596 551.91L298.735 500.26L212.689 482.413Z"
            stroke="#010101" strokeWidth="0.75" strokeLinecap="round" strokeLinejoin="round" />
        <path
            d="M155.978 485.618H122.042L123.101 493.511L136.463 551.953H153.058C153.058 551.953 164.12 542.718 162.935 534.105L155.978 485.618Z"
            fill="#FEFEFE" />
        <path
            d="M155.978 485.618H122.042L136.463 551.981H153.058C153.058 551.981 164.12 542.747 162.935 534.134L155.978 485.618Z"
            stroke="#010101" strokeWidth="0.75" strokeLinecap="round" strokeLinejoin="round" />
        <path
            d="M284.596 355.096C284.596 355.096 340.22 392.923 355.897 418.762C371.574 444.601 367.891 487.948 312.563 482.413C312.563 482.413 341.758 515.623 339.373 532.849C336.989 550.075 324.346 551.924 324.346 551.924H284.596C284.596 551.924 215.144 508.859 194.288 470.736C173.433 432.613 174.618 410.459 174.618 410.459L186.26 389.548L274.309 352.639L284.596 355.096Z"
            fill="#F3E4EA" />
        <path
            d="M308.076 228.908C302.912 217.711 308.542 225.943 319.718 209.296C321.592 206.994 323.29 204.554 324.797 201.996C326.353 198.871 327.133 195.417 327.069 191.926C327.005 188.436 326.1 185.012 324.43 181.946C320.677 174.759 323.302 167.756 326.928 159.807C331.754 149.189 334.759 137.314 331.161 129.393C327.563 121.472 323.64 118.21 317.615 115.471C314.285 113.96 307.117 113.903 302.009 109.653C297.776 106.081 293.119 90.2812 291.75 85.3111C291.279 83.6198 290.592 81.9967 289.704 80.4821C286.177 74.5378 275.918 62.4654 250.279 61.0252C216.089 59.0908 205.126 76.0909 205.126 76.0909L205.295 76.2462C187.247 80.4821 164.205 93.4723 156.628 126.385C150.01 155.147 176.058 174.562 180.616 177.724C181.727 178.474 182.63 179.495 183.24 180.69C184.566 183.372 185.258 188.314 180.037 195.967C177.05 200.293 175.176 205.289 174.581 210.513C173.985 215.737 174.686 221.027 176.622 225.915L269.752 251.994L308.076 228.908Z"
            fill="#FEFEFE" />
        <path
            d="M176.622 225.915C174.687 221.02 173.99 215.722 174.593 210.493C175.196 205.264 177.081 200.264 180.079 195.939C185.3 188.286 184.608 183.344 183.282 180.661C182.672 179.467 181.769 178.446 180.657 177.696C176.057 174.533 150.009 155.105 156.669 126.357C165.362 88.6011 194.415 77.0088 212.928 74.9756"
            stroke="#010101" strokeWidth="0.75" strokeLinecap="round" strokeLinejoin="round" />
        <path
            d="M205.14 76.1334C205.14 76.1334 216.089 59.1898 250.293 61.0677C275.932 62.4796 286.191 74.5802 289.718 80.5246C290.601 82.0579 291.28 83.7004 291.736 85.41C293.147 90.479 297.719 106.095 301.98 109.654C307.089 113.889 314.257 113.889 317.587 115.471C323.612 118.21 327.464 121.486 331.133 129.393C334.802 137.3 331.768 149.16 326.9 159.807C323.287 167.714 320.677 174.675 324.332 181.819C326.707 186.477 327.423 191.807 326.364 196.927"
            stroke="#010101" strokeWidth="0.75" strokeLinecap="round" strokeLinejoin="round" />
        <path d="M201.725 210.369L206.762 174.759" stroke="#010101" strokeWidth="0.75" strokeLinecap="round"
            strokeLinejoin="round" />
        <path d="M233.474 205.907L233.77 190.559" stroke="#010101" strokeWidth="0.75" strokeLinecap="round"
            strokeLinejoin="round" />
        <path
            d="M191.382 143.428C215.073 141.183 218.192 123.307 214.904 95.0537C232.204 115.217 244.536 122.46 265.632 126.894C274.183 155.599 262.81 174.901 260.171 178.826C259.875 179.249 259.592 179.687 259.31 180.125C257.603 182.709 249.701 192.833 231.978 189.288C230.033 188.896 228.115 188.382 226.235 187.749C218.905 185.456 212.313 181.262 207.129 175.592C202.832 170.951 199.868 165.233 198.55 159.044"
            stroke="#010101" strokeWidth="0.75" strokeLinecap="round" strokeLinejoin="round" />
        <path
            d="M199.509 161.628C199.509 161.628 187.473 166.33 184.764 156.503C182.054 146.675 195.05 143.795 195.05 143.795"
            stroke="#010101" strokeWidth="0.75" strokeLinecap="round" strokeLinejoin="round" />
        <path
            d="M233.6 197.775C212.124 191.181 207.736 177.908 207.129 175.593C212.308 181.277 218.9 185.487 226.235 187.792C228.115 188.425 230.033 188.939 231.978 189.331L233.487 190.531L233.6 197.775Z"
            fill="#010101" />
        <path
            d="M236.846 165.2C238.607 168.12 241.429 170.244 244.719 171.131C252.551 172.769 254.935 168.716 254.935 168.716"
            stroke="#010101" strokeWidth="0.75" strokeLinecap="round" strokeLinejoin="round" />
        <path d="M254.936 146.52L256.318 156.46" stroke="#010101" strokeWidth="0.75" strokeLinecap="round"
            strokeLinejoin="round" />
        <path
            d="M233.77 134.137C232.352 133.738 230.842 133.83 229.484 134.399C228.126 134.968 227.001 135.981 226.291 137.272"
            stroke="#010101" strokeWidth="0.75" strokeLinecap="round" strokeLinejoin="round" />
        <path d="M259.353 133.812C261.513 133.065 263.874 133.156 265.97 134.066" stroke="#010101" strokeWidth="0.75"
            strokeLinecap="round" strokeLinejoin="round" />
        <path
            d="M229.776 143.865C229.752 144.903 230.141 145.907 230.856 146.658C231.572 147.409 232.557 147.844 233.593 147.868C234.63 147.893 235.634 147.504 236.384 146.788C237.134 146.071 237.569 145.086 237.594 144.049"
            stroke="#010101" strokeWidth="0.75" strokeLinecap="round" strokeLinejoin="round" />
        <path
            d="M259.366 143.371C259.489 143.991 259.815 144.552 260.293 144.964C260.772 145.376 261.374 145.615 262.005 145.645C262.781 145.601 263.509 145.256 264.036 144.685C264.563 144.113 264.847 143.358 264.827 142.581"
            stroke="#010101" strokeWidth="0.75" strokeLinecap="round" strokeLinejoin="round" />
        <path
            d="M258.421 200.217C258.421 200.217 307.286 224.221 346.005 251.429L350.493 309.588L250.124 251.429L258.421 200.217Z"
            fill="#b45309" />
        <path
            d="M201.781 210.383C201.781 210.383 163.118 214.845 158.899 226.07C124.611 284.187 166.646 435.042 166.646 435.042C166.646 435.042 188.771 393.841 223.808 380.3C258.844 366.759 284.653 355.082 284.653 355.082C284.653 355.082 271.389 252.799 270.006 242.647C268.623 232.495 265.392 201.587 258.478 200.203C251.563 198.819 233.558 206.67 233.558 206.67L232.966 225.732L201.781 210.383Z"
            fill="#b45309" />
        <path
            d="M324.275 551.924H284.596C284.596 551.924 215.144 508.859 194.288 470.736C181.927 448.145 177.356 431.201 175.592 421.134"
            stroke="#010101" strokeWidth="0.75" strokeLinecap="round" strokeLinejoin="round" />
        <path d="M339.303 532.849C337.977 542.139 333.659 546.968 330.061 549.425" stroke="#010101" strokeWidth="0.75"
            strokeLinecap="round" strokeLinejoin="round" />
        <path
            d="M351.241 474.605C343.056 480.86 330.54 484.22 312.563 482.413C312.563 482.413 335.493 508.506 339.007 526.424"
            stroke="#010101" strokeWidth="0.75" strokeLinecap="round" strokeLinejoin="round" />
        <path d="M357.886 422.334C365.379 437.047 366.804 456.009 357.082 468.774" stroke="#010101" strokeWidth="0.75"
            strokeLinecap="round" strokeLinejoin="round" />
        <path d="M284.596 355.096C284.596 355.096 335.987 390.042 353.893 415.698" stroke="#010101" strokeWidth="0.75"
            strokeLinecap="round" strokeLinejoin="round" />
        <path d="M248.925 526.919C228.549 511.232 204.984 490.334 194.246 470.736" stroke="#010101" strokeWidth="0.75"
            strokeLinecap="round" strokeLinejoin="round" />
        <path d="M256.149 367.324C256.149 367.324 248.332 391.327 227.434 405.532" stroke="#010101" strokeWidth="0.75"
            strokeLinecap="round" strokeLinejoin="round" />
        <path d="M241.785 392.344L312.563 482.413" stroke="#010101" strokeWidth="0.75" strokeLinecap="round"
            strokeLinejoin="round" />
        <path d="M185.272 408.977C185.272 408.977 198.113 437.696 187.882 458.212" stroke="#010101" strokeWidth="0.75"
            strokeLinecap="round" strokeLinejoin="round" />
        <path d="M272.094 430.919C272.094 430.919 296.887 426.16 307.963 430.919" stroke="#010101" strokeWidth="0.75"
            strokeLinecap="round" strokeLinejoin="round" />
        <path d="M273.209 264.801C271.431 252.954 270.387 245.683 269.949 242.661" stroke="#010101" strokeWidth="0.75"
            strokeLinecap="round" strokeLinejoin="round" />
        <path
            d="M149.572 349.985C156.628 396.58 166.632 435.056 166.632 435.056C166.632 435.056 188.757 393.854 223.794 380.314C241.968 373.254 257.659 366.773 268.567 362.113"
            stroke="#010101" strokeWidth="0.75" strokeLinecap="round" strokeLinejoin="round" />
        <path d="M282.282 270.067L273.209 264.801" stroke="#010101" strokeWidth="0.75" strokeLinecap="round"
            strokeLinejoin="round" />
        <path d="M273.547 207.983C291.044 217.217 320.691 233.638 346.005 251.429V284.173L310.644 272.1"
            stroke="#010101" strokeWidth="0.75" strokeLinecap="round" strokeLinejoin="round" />
        <path
            d="M276.567 197.238L290.071 201.474L332.572 214.619L339.049 215.706C339.049 215.706 379.01 186.535 398.991 205.441C416.558 222.074 421.568 255.001 416.318 285.486C417.109 286.587 426.718 300.128 445.132 335.018C450.847 345.862 457.437 358.781 464.887 374.03C474.609 393.996 482.793 417.392 489.468 440.393C495.69 461.784 500.601 482.752 504.255 500.275L509.519 494.627C509.519 494.627 537.246 450.587 537.74 423.294C537.74 423.294 556.084 477.598 525.323 532.185L512.355 544.893L420.566 551.571L329.313 554.085C329.337 548.374 330.34 542.71 332.276 537.339C335.521 528.161 351.72 531.394 351.72 531.394L351.452 524.335C360.229 477.118 356.673 377.49 356.574 374.976L353.244 355.209C352.569 342.78 350.029 330.523 345.709 318.851C344.022 314.159 342.091 309.559 339.924 305.07C339.021 303.22 338.513 302.246 338.513 302.246L332.572 293.054C332.572 293.054 312.055 271.945 290.988 258.39C276.144 248.874 269.893 230.236 268.242 213.631C267.91 210.295 267.755 206.944 267.776 203.592C267.788 202.537 268.048 201.499 268.533 200.562C269.018 199.625 269.717 198.816 270.571 198.198C271.426 197.58 272.414 197.171 273.455 197.004C274.497 196.838 275.562 196.918 276.567 197.238Z"
            fill="white" />
        <path
            d="M268.27 203.634C268.249 206.986 268.404 210.337 268.736 213.673C272.852 213.072 276.912 212.127 280.871 210.849C283.068 210.066 285.07 208.815 286.736 207.181C288.403 205.548 289.695 203.571 290.522 201.389L277.019 197.153C276.006 196.835 274.933 196.76 273.886 196.936C272.839 197.112 271.849 197.533 270.996 198.165C270.143 198.797 269.451 199.622 268.977 200.572C268.504 201.523 268.261 202.572 268.27 203.634Z"
            fill="#010101" />
        <path
            d="M423.515 402.976C434.803 442.116 475.526 441.805 489.947 440.393C483.273 417.449 475.089 394.052 465.352 374.031C457.93 358.781 451.341 345.791 445.598 335.018C436.017 342.219 412.424 364.443 423.515 402.976Z"
            fill="#010101" />
        <path
            d="M416.756 285.458C416.756 285.458 426.379 298.603 445.612 335.06C451.341 345.904 457.93 358.824 465.367 374.073C475.089 394.052 483.273 417.449 489.947 440.435C499.726 474.76 507.383 509.655 512.877 544.921"
            stroke="#010101" strokeWidth="0.75" strokeLinecap="round" strokeLinejoin="round" />
        <path
            d="M339.542 215.749C339.542 215.749 379.504 186.577 399.484 205.484C419.465 224.39 423.317 264.377 414.06 297.925C407.598 321.519 389.607 321.802 379.532 319.896C376.849 319.398 374.297 318.356 372.033 316.833C369.769 315.311 367.84 313.34 366.367 311.042C359.311 299.93 352.002 274.105 380.576 224.432"
            stroke="#010101" strokeWidth="0.75" strokeLinecap="round" strokeLinejoin="round" />
        <path
            d="M333.01 214.619L290.466 201.375L276.962 197.139C275.957 196.823 274.891 196.747 273.851 196.919C272.81 197.09 271.825 197.504 270.974 198.126C270.123 198.749 269.429 199.562 268.95 200.502C268.471 201.441 268.218 202.48 268.214 203.535C268.192 206.888 268.348 210.239 268.68 213.574C270.33 230.179 276.581 248.874 291.426 258.334C308.104 269.037 324.444 284.484 330.526 290.442C332.436 292.301 334.152 294.35 335.648 296.556C336.866 298.333 337.969 300.187 338.95 302.105C346.212 316.243 350.986 331.528 353.061 347.288C353.921 354.63 354.839 361.958 356.066 369.244L356.165 369.795C356.73 373.2 357.069 376.638 357.181 380.088C357.802 401.522 359.566 482.922 351.875 524.208"
            stroke="#010101" strokeWidth="0.75" strokeLinecap="round" strokeLinejoin="round" />
        <path
            d="M352.228 531.31C352.228 531.31 336.029 528.062 332.798 537.254C331.169 541.864 330.186 546.678 329.877 551.557"
            stroke="#010101" strokeWidth="0.75" strokeLinecap="round" strokeLinejoin="round" />
        <path
            d="M452.399 536.35C452.399 536.35 428.75 532.256 422.88 539.598C417.01 546.94 421.074 551.487 421.074 551.487"
            stroke="#010101" strokeWidth="0.75" strokeLinecap="round" strokeLinejoin="round" />
        <path
            d="M478.673 484.842C478.673 484.842 436.553 461.431 427.55 478.657C418.548 495.883 445.188 529.093 445.188 529.093"
            stroke="#010101" strokeWidth="0.75" strokeLinecap="round" strokeLinejoin="round" />
        <path d="M396.958 410.629C396.958 410.629 384.725 515.114 374.283 543.198" stroke="#010101" strokeWidth="0.75"
            strokeLinecap="round" strokeLinejoin="round" />
        <path
            d="M509.998 494.57C509.998 494.57 537.711 450.531 538.219 423.238C538.219 423.238 556.563 477.542 525.802 532.114"
            stroke="#010101" strokeWidth="0.75" strokeLinecap="round" strokeLinejoin="round" />
        <path d="M366 309.588L346.02 318.949" stroke="#010101" strokeWidth="0.75" strokeLinecap="round"
            strokeLinejoin="round" />
        <path
            d="M359.227 236.9C359.227 236.9 353.583 240.839 348.446 234.147C343.31 227.454 349.251 224.15 349.251 224.15"
            stroke="#010101" strokeWidth="0.75" strokeLinecap="round" strokeLinejoin="round" />
        <path d="M322.54 258.051C322.54 258.051 307.018 264.772 278.797 243.099" stroke="#010101" strokeWidth="0.75"
            strokeLinecap="round" strokeLinejoin="round" />
        <path
            d="M289.761 227.073C290.228 227.073 290.607 226.693 290.607 226.226C290.607 225.758 290.228 225.378 289.761 225.378C289.293 225.378 288.914 225.758 288.914 226.226C288.914 226.693 289.293 227.073 289.761 227.073Z"
            stroke="#010101" strokeWidth="0.75" strokeLinecap="round" strokeLinejoin="round" />
        <path
            d="M289.507 237.197C289.974 237.197 290.353 236.817 290.353 236.349C290.353 235.881 289.974 235.502 289.507 235.502C289.039 235.502 288.66 235.881 288.66 236.349C288.66 236.817 289.039 237.197 289.507 237.197Z"
            stroke="#010101" strokeWidth="0.75" strokeLinecap="round" strokeLinejoin="round" />
        <path
            d="M281.238 229.953C281.814 229.953 282.282 229.485 282.282 228.908C282.282 228.331 281.814 227.864 281.238 227.864C280.661 227.864 280.193 228.331 280.193 228.908C280.193 229.485 280.661 229.953 281.238 229.953Z"
            stroke="#010101" strokeWidth="0.75" strokeLinecap="round" strokeLinejoin="round" />
        <path
            d="M339.627 350.168C339.415 350.281 320.634 350.931 320.634 350.931L312.168 329.045L315.569 328.89L325.446 330.627L339.232 345.339L339.627 350.168Z"
            fill="#FEFEFE" />
        <path
            d="M395.548 364.57L385.445 354.997L373.676 347.485L386.842 351.51C398.342 362.226 401.728 355.209 401.728 355.209L388.154 344.93L373.634 338.11L383.653 338.689C394.856 345.24 398.412 338.689 398.412 338.689L384.64 332.25L368.625 329.695L332.671 331.94L314.793 328.791L369.514 355.152C369.514 355.152 382.03 361.591 387.505 365.389C392.98 369.187 395.548 364.57 395.548 364.57Z"
            fill="#FEFEFE" />
        <path
            d="M387.744 369.046C388.789 367.126 388.379 361.761 388.379 361.761L320.169 329.497L336.184 350.168L340.22 354.164C343.906 357.38 348.237 359.769 352.922 361.172C357.607 362.574 362.538 362.958 367.383 362.297L381.762 368.82C381.762 368.82 386.7 370.952 387.744 369.046Z"
            fill="#FEFEFE" />
        <path
            d="M314.793 328.763L332.671 331.911L368.625 329.666L384.64 332.222L398.412 338.661C398.412 338.661 394.856 345.24 383.653 338.661L373.634 338.082L388.154 344.902L401.728 355.181C401.728 355.181 398.342 362.24 386.842 351.481L373.676 347.457L385.445 354.969L395.548 364.542C395.548 364.542 392.994 369.145 387.505 365.333C382.016 361.52 369.514 355.096 369.514 355.096"
            stroke="#010101" strokeWidth="0.75" strokeLinecap="round" strokeLinejoin="round" />
        <path
            d="M387.505 365.361C387.871 365.897 388.086 366.522 388.128 367.171C388.17 367.819 388.038 368.467 387.745 369.046C386.7 370.952 381.762 368.848 381.762 368.848L367.383 362.325C361.622 363.104 355.758 362.418 350.333 360.33C344.907 358.242 340.095 354.82 336.34 350.38L325.051 350.62"
            stroke="#010101" strokeWidth="0.75" strokeLinecap="round" strokeLinejoin="round" />
        <path
            d="M272.927 301.808C215.073 282.747 206.833 257.331 206.833 257.331L167.464 273.145C169.8 281.966 173.367 290.413 178.061 298.236C185.346 310.667 195.625 321.074 207.962 328.509C245.538 351.284 291.863 360.984 323.668 364.584L338.837 321.534C327.365 319.656 293.5 308.572 272.927 301.808Z"
            fill="#b45309" />
        <path
            d="M302.658 311.438C292.159 308.134 281.407 304.604 272.927 301.808C242.49 291.783 225.769 279.993 216.781 271.098"
            stroke="#010101" strokeWidth="0.75" strokeLinecap="round" strokeLinejoin="round" />
        <path
            d="M167.464 273.145C169.8 281.966 173.367 290.413 178.061 298.236C185.346 310.667 195.625 321.074 207.962 328.509C239.739 347.768 282.748 358.795 314.595 363.963"
            stroke="#010101" strokeWidth="0.75" strokeLinecap="round" strokeLinejoin="round" />
        <path d="M82.9985 551.924H667.529" stroke="#010101" strokeWidth="0.75" strokeLinecap="round"
            strokeLinejoin="round" />
    </g>
    <defs>
        <clipPath id="clip0_2_28227">
            <rect width="732" height="554" fill="white" />
        </clipPath>
    </defs>
</svg>