<?xml version="1.0" encoding="UTF-8" standalone="no"?>
<svg viewBox="0 0 500 153" version="1.1" id="svg1" xmlns="http://www.w3.org/2000/svg"
   xmlns:svg="http://www.w3.org/2000/svg">
   <defs id="defs1" />
   <path
      d="M 48.519931,0.25941522 C 24.354701,3.7312252 5.9856115,20.907125 0.84827149,44.834135 c -1.11329,5.18699 -1.13466,16.13627 -0.041,21.29073 C 3.2982615,77.86467 8.7894915,87.7917 17.335701,96.00534 c 6.89075,6.62233 14.70827,10.9114 24.72968,13.56773 4.82352,1.27847 5.5945,1.35691 13.35415,1.35691 7.75966,0 8.53064,-0.0785 13.35415,-1.35691 9.90924,-2.62648 17.7815,-6.91555 24.51689,-13.35695 6.967759,-6.66466 11.944409,-14.51334 14.840029,-23.406535 2.09838,-6.44453 2.69264,-10.33477 2.67306,-17.50343 -0.0267,-9.58969 -1.45026,-15.67862 -5.7325,-24.517 C 97.797601,15.775385 83.897721,4.9450952 66.993131,1.1181252 62.661491,0.13776522 52.617381,-0.32923478 48.519881,0.25941522 m 0.62676,14.06459978 c -16.60011,2.59038 -29.82339,14.55299 -34.08604,30.83631 -0.92678,3.54133 -1.14044,5.39109 -1.14534,9.92302 -0.009,8.4155 1.68262,15.0053 5.54776,21.612485 2.35389,4.02348 2.90498,4.73646 6.487,8.39454 4.96909,5.07426 12.1238,9.29426 19.00876,11.21175 3.54909,0.98838 13.84647,1.39211 17.82245,0.69917 15.70138,-2.73742 28.63443,-14.58017 33.15658,-30.361735 1.45249,-5.06935 1.68886,-14.05345 0.51458,-19.57733 -3.70088,-17.41119 -17.31277,-30.06941 -35.24606,-32.77743 -5.02917,-0.75933 -6.98155,-0.75309 -12.05969,0.0392 m -5.74362,11.66135 c -4.56312,2.3502 -5.26955,11.57315 -1.21568,15.87603 3.40887,3.61842 7.49525,3.00213 9.78237,-1.47499 3.85178,-7.54075 -2.1843,-17.68792 -8.56669,-14.40104 m 19.59499,0.0222 c -3.49656,1.76109 -5.55844,7.19005 -4.51103,11.87572 1.282,5.73511 6.03296,8.0853 9.8478,4.8715 2.43802,-2.05341 3.32073,-4.33988 3.32696,-8.61558 0.006,-4.33319 -0.7741,-6.19632 -3.31183,-7.90838 -1.78723,-1.20585 -3.27844,-1.26778 -5.3519,-0.22326 m -32.28367,14.26251 c -5.34433,1.27224 -6.29915,10.36285 -1.61852,15.40992 2.74072,2.95578 5.79704,3.35104 8.21993,1.06368 2.82618,-2.66835 3.19164,-7.15707 0.9566,-11.74069 -1.57935,-3.23876 -4.95484,-5.35276 -7.55801,-4.73291 m 48.20449,0.11363 c -2.03829,0.59669 -3.68085,2.05519 -4.95661,4.40137 -5.25486,9.6659 3.62476,18.51766 9.89008,9.8593 4.63656,-6.40754 1.28957,-16.08191 -4.93347,-14.26067 m -27.42854,5.88083 c -2.37882,0.80433 -5.58114,4.03418 -7.36081,7.42443 -0.91698,1.74727 -2.32585,3.64426 -3.23793,4.36038 -6.17185,4.8452 -8.61922,8.85042 -8.61922,14.10603 0,5.176305 2.62899,8.435115 7.25576,8.995245 1.95549,0.23662 3.07501,0.0218 7.21124,-1.38453 4.207,-1.43044 5.46051,-1.66616 8.90277,-1.67419 3.46095,-0.008 4.66594,0.21524 8.85336,1.6372 2.66593,0.90505 5.37015,1.64433 6.00936,1.643 5.92124,-0.0124 9.7294,-5.12996 8.53019,-11.462185 -0.85376,-4.5052 -3.15336,-7.67444 -8.53775,-11.76566 -0.84844,-0.64481 -2.21812,-2.44956 -3.04385,-4.01056 -3.32341,-6.28544 -5.68665,-8.04207 -11.09152,-8.24349 -1.86469,-0.0695 -4.05699,0.0989 -4.8716,0.37433 m 131.016279,1.26427 c -2.44827,0.17602 -7.0786,0.34357 -10.28938,0.37253 -5.22415,0.0467 -5.96397,0.15106 -7.03497,0.99462 -0.97218,0.76557 -1.17116,1.24595 -1.06165,2.5623 0.11974,1.43578 0.38816,1.75618 2.35878,2.82032 3.9831,2.1501 3.7868,1.26644 3.77923,17.0079 -0.005,10.211335 -0.15357,14.167085 -0.5631,14.977665 -0.3067,0.60604 -1.4053,1.67196 -2.44203,2.36891 -1.45516,0.97857 -1.88472,1.54763 -1.88472,2.49724 0,3.03332 4.04409,4.49094 12.48169,4.49896 8.80528,0.008 13.10755,-1.55164 12.80085,-4.64156 -0.0975,-0.9808 -0.60183,-1.65146 -1.90965,-2.5378 -2.29202,-1.55386 -2.852,-2.95221 -2.87648,-7.18648 l -0.02,-3.45353 h 5.3559 c 7.59184,0 12.02275,-1.59888 15.53756,-5.606335 2.57112,-2.93127 3.36169,-5.22709 3.36436,-9.7675 0.002,-3.48606 -0.15936,-4.34031 -1.23526,-6.53319 -1.97197,-4.01993 -5.71736,-6.8808 -10.78126,-8.23502 -2.35122,-0.62833 -8.05567,-0.67958 -15.57984,-0.13903 m 110.39434,0.213 c -0.24482,0.09 -1.2584,0.37254 -2.25195,0.62743 -5.15426,1.32348 -8.5382,5.77966 -8.09574,10.6623 0.1282,1.41751 0.65614,3.40764 1.17294,4.42186 1.33275,2.61533 1.22547,3.45042 -0.50701,3.94818 l -1.4467,0.41531 v 3.3252 3.325655 l 1.99422,0.14215 c 3.16716,0.22549 3.28913,0.47147 2.95617,5.95969 -0.15936,2.62782 -0.41131,5.09476 -0.55954,5.482 -0.14868,0.3868 -0.89651,1.02136 -1.6626,1.40949 -2.2021,1.11538 -2.95082,1.97453 -2.95082,3.38491 0,1.85199 2.1202,3.70532 4.92813,4.30824 2.89652,0.62163 11.74364,0.61896 14.64906,-0.005 4.2533,-0.91307 6.35079,-4.15895 3.93725,-6.09204 -3.06611,-2.45625 -3.03851,-2.38896 -3.03139,-7.32819 0.008,-5.2467 0.51146,-6.74442 2.34098,-6.95654 1.65547,-0.19251 2.16961,-1.38275 2.01336,-4.659395 l -0.1322,-2.7753 -2.1202,-0.13592 c -1.66749,-0.10694 -2.27154,-0.36718 -2.82841,-1.21787 -0.38905,-0.5949 -1.43824,-1.53114 -2.33074,-2.08059 -0.89295,-0.54989 -2.47497,-1.78202 -3.51526,-2.73832 -1.46317,-1.34487 -1.89184,-2.05965 -1.89184,-3.15274 0,-3.07299 1.74005,-3.22449 4.97131,-0.43359 4.22036,3.64515 6.31429,4.07205 8.62545,1.75796 3.30515,-3.30871 0.69263,-9.17839 -4.94015,-11.09945 -1.90564,-0.65016 -8.02006,-0.97501 -9.32432,-0.49552 m 24.18349,0.86494 c -5.06301,1.39612 -7.11821,4.78816 -4.64547,7.66596 0.95527,1.11182 1.40798,1.25665 4.40153,1.40816 7.60653,0.38456 12.79462,-3.31719 10.54533,-7.52382 -1.12887,-2.11223 -5.74495,-2.80695 -10.30139,-1.5503 m 95.3362,-0.005 c -1.59137,0.30168 -3.79481,0.799 -4.89652,1.10514 -6.11131,1.69959 -7.94261,5.16783 -3.67195,6.95386 0.90051,0.377 1.79168,0.92823 1.98042,1.22501 0.4674,0.73616 0.44692,3.77305 -0.0272,4.06626 -0.211,0.13056 -1.56289,-0.17958 -3.00469,-0.68893 -3.83754,-1.35557 -8.86093,-1.04452 -12.16163,0.7531 -6.81596,3.712 -10.81642,11.775455 -9.40533,18.956595 1.62609,8.27245 8.14203,14.64657 14.98425,14.65726 3.18675,0.005 5.04921,-0.55702 7.60252,-2.29448 2.45094,-1.6675 3.01849,-1.602 3.51393,0.40507 l 0.4122,1.67106 4.22881,-0.007 c 4.95751,-0.008 9.66752,-1.1301 11.60966,-2.76596 1.8175,-1.5307 1.81038,-3.72982 -0.0169,-5.08183 -0.7238,-0.53563 -1.52505,-1.57436 -1.78056,-2.30785 -0.29112,-0.83687 -0.46428,-7.71409 -0.46428,-18.453045 0,-10.94838 -0.16603,-17.4299 -0.46071,-17.98113 -0.37882,-0.70808 -0.91432,-0.85291 -3.00469,-0.81191 -1.39907,0.0276 -3.846,0.29678 -5.43737,0.59846 m -155.49711,8.47298 c -4.36369,2.7958 -8.21993,5.32112 -8.56892,5.61122 -0.77632,0.64481 -0.84799,4.03775 -0.10104,4.78549 0.29379,0.29411 1.67861,0.53474 3.07768,0.53474 h 2.54353 l 0.14956,9.469395 c 0.14467,9.17036 0.18696,9.54914 1.33497,12.00093 2.10729,4.50074 6.0619,6.44988 12.27826,6.05194 4.63166,-0.29678 8.122,-1.68623 10.85292,-4.3216 2.29335,-2.2125 2.64546,-3.39651 1.65636,-5.56934 -0.68151,-1.49727 -1.81171,-1.79138 -3.50858,-0.91263 -2.19231,1.13455 -3.97286,0.99417 -5.1783,-0.40862 -0.99978,-1.16352 -1.03851,-1.49149 -1.03851,-8.75952 v -7.550555 h 4.03563 c 2.21946,0 4.39619,-0.1934 4.83687,-0.42957 0.98732,-0.52895 1.5798,-4.29665 0.94014,-5.98064 -0.43179,-1.13677 -0.53996,-1.16529 -4.42334,-1.16529 -2.18964,0 -4.29782,-0.12165 -4.68509,-0.27049 -0.55776,-0.21434 -0.70421,-0.98348 -0.70421,-3.69863 0,-2.07212 -0.21144,-3.63981 -0.53416,-3.96288 -0.29379,-0.29411 -1.54597,-0.52851 -2.78212,-0.52093 -2.09615,0.0125 -2.78389,0.35694 -10.18165,5.09698 m -70.53398,-1.6167 c -0.43,0.27316 -0.53861,2.03425 -0.44513,7.2346 l 0.1233,6.87322 2.37748,0.13591 c 4.03964,0.23127 5.98088,-1.96028 6.04142,-6.82019 0.041,-3.31316 -1.14667,-5.81352 -3.31539,-6.97748 -1.59626,-0.85737 -3.80949,-1.06369 -4.78168,-0.44606 m 38.44038,5.88973 c -11.77035,4.14202 -16.28049,17.402275 -9.29449,27.323955 5.28825,7.51089 16.9856,9.21315 26.30413,3.82875 3.49033,-2.01686 4.9713,-5.09697 3.6439,-7.57995 -0.9152,-1.71208 -1.8816,-1.79005 -4.82174,-0.38814 -3.68308,1.75618 -6.19321,2.0748 -8.72382,1.10736 -2.35568,-0.90059 -4.80527,-3.48696 -4.60897,-4.86615 0.13354,-0.93668 0.34276,-0.96342 9.262,-1.18133 5.01894,-0.12255 9.36126,-0.3761 9.64927,-0.56326 0.91609,-0.59534 1.59671,-3.47226 1.31271,-5.54883 -0.66059,-4.821595 -4.15581,-9.375815 -8.8547,-11.536615 -3.77254,-1.73479 -9.88563,-1.99726 -13.86829,-0.59579 m 214.96673,-0.31773 c -8.13847,2.68663 -13.13158,9.31788 -13.13158,17.438375 0,9.51706 6.77768,16.58144 16.39311,17.08678 2.11352,0.11096 4.83866,-0.0424 6.25197,-0.35204 5.40843,-1.18535 10.27068,-4.44727 11.00694,-7.3839 0.36501,-1.45627 -0.6085,-3.76145 -1.77076,-4.19193 -0.6272,-0.23216 -1.74717,0.0531 -3.53752,0.9006 -1.44091,0.68225 -3.41866,1.37562 -4.39485,1.54095 -3.89006,0.65773 -9.04521,-2.29315 -8.7354,-5.00028 l 0.14378,-1.25353 8.98913,-0.12076 8.98868,-0.12032 0.95794,-1.21653 c 0.80882,-1.0267 0.93212,-1.66706 0.7919,-4.11261 -0.30002,-5.221305 -3.49211,-9.772395 -8.61254,-12.280785 -2.30671,-1.12964 -3.2179,-1.31056 -7.10307,-1.40905 -2.79325,-0.0709 -5.12221,0.10651 -6.23773,0.47503 m -118.18427,0.15508 c -2.79502,0.47012 -7.91545,2.0583 -9.4859,2.94152 -1.99734,1.12385 -3.16137,3.0302 -2.72291,4.45885 0.16559,0.5392 0.97708,1.5463 1.8037,2.23835 l 1.50234,1.25797 v 7.594225 7.59422 l -1.48676,1.39702 c -1.80415,1.69513 -2.17895,2.62335 -1.63589,4.05334 0.85155,2.24146 2.63879,2.69108 10.70291,2.69108 8.12334,0 10.52263,-0.57083 11.50951,-2.7392 0.80525,-1.76956 0.59826,-2.39476 -1.39551,-4.21867 l -1.89184,-1.73033 -0.22257,-12.3668 c -0.12241,-6.801475 -0.3846,-12.616775 -0.58269,-12.923365 -0.3481,-0.53875 -3.58514,-0.67066 -6.09439,-0.24821 m 23.36977,0.56638 c -7.51572,1.99325 -11.79617,4.26189 -11.79617,6.25201 0,0.4688 0.90141,1.74193 2.00313,2.82924 l 2.00312,1.97721 -0.0356,3.948165 c -0.0191,2.1715 -0.17405,5.62059 -0.34365,7.66464 -0.28889,3.48428 -0.39795,3.79042 -1.74895,4.90179 -1.74004,1.43177 -1.88293,3.05783 -0.39128,4.46064 1.54909,1.45672 3.51838,1.85065 9.19345,1.83862 5.71825,-0.0116 8.06903,-0.41532 9.76189,-1.67552 1.53929,-1.14613 1.66125,-2.54849 0.41175,-4.73737 -0.90808,-1.59085 -1.05898,-2.53913 -1.19876,-7.5247 -0.18295,-6.54034 0.0748,-8.476545 1.29135,-9.694425 1.25173,-1.25308 3.59271,-1.13365 4.97887,0.254 1.3786,1.380085 1.68263,2.812745 1.64078,7.736375 -0.0477,5.61434 -0.53149,8.26354 -1.84866,10.11643 -1.5473,2.17728 -1.04474,3.82161 1.47608,4.83138 2.11797,0.84846 11.12134,0.97457 14.70026,0.20633 4.32496,-0.92823 5.36748,-3.26372 2.81372,-6.30193 -1.4329,-1.7045 -1.48499,-1.99415 -1.94748,-10.80179 -0.48164,-9.166365 -1.11775,-11.588735 -3.72848,-14.198725 -2.16516,-2.16392 -4.38462,-2.95756 -8.27157,-2.95756 -3.42,0 -5.22859,0.74105 -7.93726,3.25256 -2.38016,2.20715 -3.2366,2.24725 -3.2366,0.15151 0,-3.43616 -1.96396,-4.07339 -7.78993,-2.52888 m 131.09329,-0.56638 c -2.79503,0.47012 -7.91545,2.0583 -9.4859,2.94152 -1.94481,1.09444 -3.16449,3.03511 -2.74295,4.36394 0.15447,0.4875 1.04118,1.36671 1.97108,1.95403 1.53662,0.97101 1.71868,1.29631 2.00312,3.575645 0.29112,2.33326 0.0721,7.37542 -0.47185,10.85213 -0.15535,0.99418 -0.84309,2.05609 -2.05965,3.18083 -1.3826,1.27803 -1.82596,2.02354 -1.82596,3.06941 0,3.53509 3.46585,4.64557 13.85538,4.43791 6.50793,-0.13012 7.65948,-0.26558 9.21748,-1.08196 1.95725,-1.02626 2.7394,-2.52354 2.27865,-4.36215 -0.2239,-0.89168 -0.8876,-1.44826 -2.6677,-2.23656 -2.8017,-1.24016 -2.93658,-1.66438 -2.94459,-9.23588 -0.006,-5.824665 0.3797,-6.396845 2.93614,-4.3577 3.57135,2.8484 5.6372,3.26639 8.8734,1.7945 3.4253,-1.55742 5.43955,-5.150895 4.9014,-8.743905 -0.60185,-4.0177 -3.47255,-6.46013 -7.5905,-6.45835 -2.65615,0.002 -4.418,0.95942 -6.4741,3.52039 -1.1351,1.41394 -1.59005,1.70626 -2.0543,1.32036 -0.32852,-0.27272 -0.59693,-0.95942 -0.59693,-1.52625 0,-0.56682 -0.19542,-1.54495 -0.43401,-2.17371 -0.40107,-1.05612 -0.62988,-1.13856 -3.00469,-1.08241 -1.41376,0.0334 -3.07146,0.14483 -3.68352,0.24821 m -246.91699,6.01762 c -0.98732,0.47771 -2.36057,2.83191 -2.36057,4.04711 0,1.26778 1.19475,1.70315 4.30004,1.56812 2.98243,-0.13012 3.04786,-0.15908 3.19031,-1.40592 0.20254,-1.77445 -0.6686,-3.64248 -1.97731,-4.23916 -1.31805,-0.60159 -1.85801,-0.59624 -3.15247,0.0298 m 213.47017,0.79632 c -1.08569,1.08687 -1.30336,1.6372 -1.18985,3.00793 l 0.13844,1.67819 3.15781,0.12967 c 3.7307,0.15286 4.45361,-0.34936 3.99823,-2.77931 -0.33252,-1.77401 -2.07746,-3.3662 -3.68931,-3.3662 -0.61295,0 -1.66615,0.57974 -2.41532,1.32972 m -42.2659,0.93758 c -1.5473,1.54897 -2.29736,3.98962 -2.52082,8.204725 -0.35922,6.76225 1.26464,10.22693 4.65882,9.94173 1.3372,-0.11274 1.81038,-0.4269 2.55332,-1.69779 0.75406,-1.28962 0.93924,-2.50839 1.06967,-7.03587 0.0868,-3.01194 0.0339,-6.135275 -0.11708,-6.940505 -0.58313,-3.11398 -3.6577,-4.46063 -5.64391,-2.47229 m -288.188,22.567435 c -0.48965,0.10963 -2.04185,1.32839 -3.44982,2.70802 l -2.55955,2.50838 -2.62142,-2.59661 -2.62142,-2.59707 -4.566679,4.50476 c -2.51147,2.47764 -4.78123,4.50475 -5.04431,4.50475 -0.26263,0 0.81238,1.30299 2.38862,2.89518 l 2.86669,2.89563 -2.29825,2.34038 c -2.52038,2.56765 -3.26153,4.02081 -2.93168,5.74803 0.14155,0.74329 6.07213,7.05235 17.204149,18.30242 14.14428,14.29408 17.40225,17.36572 19.46413,18.35054 7.12311,3.40185 14.49015,2.26641 19.80243,-3.05203 5.25842,-5.26408 6.4603,-12.81241 3.11998,-19.60096 -0.85155,-1.72988 -5.13557,-6.27073 -18.37354,-19.4735 -11.19835,-11.16808 -17.65419,-17.29086 -18.37621,-17.42722 -0.61206,-0.11586 -1.51347,-0.12077 -2.00312,-0.0107"
      stroke="none" fill="#b45208" fill-rule="evenodd" id="path1" style="strokeWidth:0.445379" />
</svg>