<?xml version="1.0" encoding="UTF-8" standalone="no"?>
<svg
   width="153"
   height="152.99998"
   viewBox="0 0 153 152.99998"
   version="1.1"
   id="svg1"
   xmlns="http://www.w3.org/2000/svg"
   xmlns:svg="http://www.w3.org/2000/svg">
  <defs
     id="defs1" />
  <path
     d="M 48.585095,0.25941522 C 24.38741,3.7312252 5.9936504,20.907125 0.84941075,44.834135 -0.26537444,50.021125 -0.28677314,60.970405 0.80835569,66.124865 3.3026912,77.86467 8.8012961,87.7917 17.358983,96.00534 c 6.900005,6.62233 14.728024,10.9114 24.762893,13.56773 4.829999,1.27847 5.602014,1.35691 13.372085,1.35691 7.770082,0 8.542097,-0.0785 13.372086,-1.35691 9.922548,-2.62648 17.805381,-6.91555 24.549817,-13.35695 6.977116,-6.66466 11.960446,-14.51334 14.859956,-23.406535 2.1012,-6.44453 2.69626,-10.33477 2.67665,-17.50343 -0.0267,-9.58969 -1.4522,-15.67862 -5.7402,-24.517 C 97.928947,15.775385 84.010399,4.9450952 67.083105,1.1181252 62.745648,0.13776522 52.688048,-0.32923478 48.585045,0.25941522 M 49.212647,14.324015 c -16.622405,2.59038 -29.863444,14.55299 -34.131819,30.83631 -0.928025,3.54133 -1.141972,5.39109 -1.146878,9.92302 -0.009,8.4155 1.68488,15.0053 5.555211,21.612485 2.357051,4.02348 2.908881,4.73646 6.495712,8.39454 4.975763,5.07426 12.140083,9.29426 19.034289,11.21175 3.553857,0.98838 13.865067,1.39211 17.846386,0.69917 15.722468,-2.73742 28.672888,-14.58017 33.201111,-30.361735 1.454441,-5.06935 1.691128,-14.05345 0.515271,-19.57733 -3.70585,-17.41119 -17.336022,-30.06941 -35.293397,-32.77743 -5.035924,-0.75933 -6.990926,-0.75309 -12.075886,0.0392 m -5.751334,11.66135 c -4.569249,2.3502 -5.276627,11.57315 -1.217313,15.87603 3.413448,3.61842 7.505317,3.00213 9.795508,-1.47499 3.856953,-7.54075 -2.187233,-17.68792 -8.578195,-14.40104 m 19.621307,0.0222 c -3.501256,1.76109 -5.565906,7.19005 -4.517089,11.87572 1.283722,5.73511 6.041063,8.0853 9.861026,4.8715 2.441294,-2.05341 3.32519,-4.33988 3.331428,-8.61558 0.006,-4.33319 -0.775139,-6.19632 -3.316278,-7.90838 -1.78963,-1.20585 -3.282843,-1.26778 -5.359087,-0.22326 m -32.327029,14.26251 c -5.351507,1.27224 -6.30761,10.36285 -1.620693,15.40992 2.744401,2.95578 5.804825,3.35104 8.230969,1.06368 2.829976,-2.66835 3.195927,-7.15707 0.957885,-11.74069 -1.581471,-3.23876 -4.961494,-5.35276 -7.568161,-4.73291 m 48.269231,0.11363 c -2.041028,0.59669 -3.685794,2.05519 -4.963267,4.40137 -5.261918,9.6659 3.629628,18.51766 9.903363,9.8593 4.642787,-6.40754 1.291302,-16.08191 -4.940096,-14.26067 m -27.465378,5.88083 c -2.382015,0.80433 -5.588635,4.03418 -7.370695,7.42443 -0.918212,1.74727 -2.328974,3.64426 -3.242279,4.36038 -6.180139,4.8452 -8.630796,8.85042 -8.630796,14.10603 0,5.176305 2.632521,8.435115 7.265505,8.995245 1.958116,0.23662 3.07914,0.0218 7.220925,-1.38453 4.21265,-1.43044 5.467843,-1.66616 8.914726,-1.67419 3.465599,-0.008 4.672207,0.21524 8.865251,1.6372 2.66951,0.90505 5.377362,1.64433 6.017431,1.643 5.929192,-0.0124 9.742466,-5.12996 8.541646,-11.462185 -0.854907,-4.5052 -3.157595,-7.67444 -8.549217,-11.76566 -0.849579,-0.64481 -2.221099,-2.44956 -3.047938,-4.01056 -3.327873,-6.28544 -5.694287,-8.04207 -11.106416,-8.24349 -1.867194,-0.0695 -4.062439,0.0989 -4.878143,0.37433 M 112.32534,91.50358 c -0.4903,0.10963 -2.04459,1.32839 -3.45445,2.70802 l -2.56299,2.50838 -2.62494,-2.59661 -2.62494,-2.59707 -4.57281,4.50476 c -2.514843,2.47764 -4.787651,4.50475 -5.051084,4.50475 -0.262983,0 0.813471,1.30299 2.391828,2.89518 l 2.87054,2.89563 -2.301337,2.34038 c -2.523765,2.56765 -3.26591,4.02081 -2.935617,5.74803 0.14174,0.74329 6.080285,7.05235 17.22725,18.30242 14.16328,14.29408 17.42563,17.36572 19.49028,18.35054 7.13267,3.40185 14.50961,2.26641 19.82902,-3.05203 5.26548,-5.26408 6.46898,-12.81241 3.12417,-19.60096 -0.85269,-1.72988 -5.14247,-6.27073 -18.39822,-19.4735 -11.21338,-11.16808 -17.6779,-17.29086 -18.40089,-17.42722 -0.61288,-0.11586 -1.5155,-0.12077 -2.00581,-0.0107"
     stroke="none"
     fill="#b45208"
     fill-rule="evenodd"
     id="path1"
     style="stroke-width:0.445678" />
</svg>
