<svg width="195" height="195" viewBox="0 0 195 195" fill="none" xmlns="http://www.w3.org/2000/svg">
    <path
        d="M97.5 0C43.6567 0 0 43.6567 0 97.5C0 151.343 43.6567 195 97.5 195C151.343 195 195 151.343 195 97.5C195 43.6567 151.358 0 97.5 0ZM97.5 181.335C51.1948 181.335 13.6646 143.805 13.6646 97.5C13.6646 51.1948 51.1948 13.6646 97.5 13.6646C143.805 13.6646 181.336 51.1948 181.336 97.5C181.336 143.805 143.805 181.335 97.5 181.335Z"
        fill="#b45309" />
    <path
        d="M139.557 45.3736H71.9183H55.4598C54.5139 45.3736 53.7571 46.1303 53.7571 47.0762V147.341C53.7571 148.04 54.1791 148.622 54.7612 148.898C55.0668 149.335 55.5907 149.64 56.1582 149.64H129.487C129.56 149.64 129.633 149.626 129.705 149.626C133.256 149.422 136.006 148.389 137.956 146.541C139.906 144.678 140.998 142.088 141.231 138.755C141.245 138.668 141.245 138.581 141.245 138.493V47.0908C141.245 46.1303 140.489 45.3736 139.557 45.3736ZM137.869 138.421C137.694 140.909 136.967 142.801 135.628 144.067C134.275 145.347 132.237 146.075 129.516 146.235H129.487H57.1478V48.7497H71.9183H137.869V138.421Z"
        fill="#595959" />
    <path
        d="M129.793 118.63H66.0829C65.0933 118.63 64.293 119.43 64.293 120.434C64.293 121.438 65.0933 122.239 66.0829 122.239H129.793C130.782 122.239 131.582 121.424 131.582 120.434C131.582 119.43 130.782 118.63 129.793 118.63Z"
        fill="#E5E5E5" />
    <path
        d="M64.293 107.279C64.293 108.283 65.0933 109.083 66.0829 109.083H129.341C130.331 109.083 131.131 108.268 131.131 107.279C131.131 106.275 130.331 105.474 129.341 105.474H66.0829C65.0933 105.46 64.293 106.275 64.293 107.279Z"
        fill="#E5E5E5" />
    <path
        d="M64.293 94.1091C64.293 95.1132 65.0933 95.9136 66.0829 95.9136H93.3101C94.2997 95.9136 95.1 95.0987 95.1 94.1091C95.1 93.1196 94.2997 92.3047 93.3101 92.3047H66.0829C65.0933 92.3192 64.293 93.1196 64.293 94.1091Z"
        fill="#E5E5E5" />
    <path
        d="M98.4775 94.1091C98.4775 95.1132 99.278 95.9136 100.268 95.9136H129.634C130.623 95.9136 131.424 95.0987 131.424 94.1091C131.424 93.1196 130.623 92.3047 129.634 92.3047H100.268C99.2634 92.3192 98.4775 93.1196 98.4775 94.1091Z"
        fill="#E5E5E5" />
    <path
        d="M64.293 82.3801C64.293 83.3843 65.0933 84.1846 66.0829 84.1846H88.537C89.5265 84.1846 90.3269 83.3697 90.3269 82.3801C90.3269 81.376 89.5265 80.5757 88.537 80.5757H66.0829C65.0933 80.5611 64.293 81.376 64.293 82.3801Z"
        fill="#E5E5E5" />
    <path
        d="M64.293 68.6862C64.293 69.6903 65.0933 70.4907 66.0829 70.4907H79.5C80.4895 70.4907 81.29 69.6903 81.29 68.6862C81.29 67.6821 80.4895 66.8818 79.5 66.8818H66.0829C65.0933 66.8818 64.293 67.6821 64.293 68.6862Z"
        fill="#E5E5E5" />
    <path
        d="M116.186 80.2551C115.371 80.2551 114.629 79.8185 114.062 79.4111C113.116 80.0514 112.214 80.226 111.399 79.9495C110.351 79.5857 109.696 78.5525 109.361 77.8249C109.056 78.3051 108.59 78.8581 107.906 79.0036C106.64 79.2801 105.345 77.2864 105.083 76.8935C104.981 76.6752 103.22 72.7025 102.856 71.6984C102.813 71.5965 102.784 71.5092 102.755 71.4219C102.391 70.5196 102.522 70.3741 103.962 68.5842C105.476 66.707 107.775 64.8443 109.041 64.4368C109.9 63.6073 111.762 63.1999 112.534 63.4036C112.752 63.4618 113.043 63.5637 113.349 63.6801C113.814 63.8547 114.455 64.073 114.717 64.0585C114.906 64.0439 115.008 64.0002 115.226 63.9129C115.488 63.8111 115.866 63.651 116.667 63.4473C118.282 63.0107 119.824 63.7383 120.596 64.626C121.178 64.917 122.677 65.9648 124.699 68.1331C126.868 70.4614 125.936 72.0185 125.907 72.0913C125.835 72.2077 124.03 75.5256 122.415 77.5047C121.6 78.4943 120.785 78.9891 120.072 78.9308C119.621 78.9017 119.213 78.698 118.849 78.3197C118.194 79.4402 117.496 80.0659 116.681 80.2551C116.506 80.2405 116.346 80.2551 116.186 80.2551ZM114.062 78.5088L114.28 78.6689C115.197 79.3674 115.895 79.6293 116.506 79.4838C117.19 79.3237 117.845 78.6398 118.457 77.432L118.748 76.8644L119.097 77.3883C119.402 77.854 119.737 78.1159 120.101 78.1305C120.566 78.1596 121.192 77.7521 121.847 76.9663C123.419 75.0454 125.252 71.6838 125.267 71.6547C125.296 71.5965 125.922 70.4469 124.161 68.5696C122.051 66.2995 120.596 65.3682 120.217 65.1935L120.086 65.0917C119.461 64.3349 118.151 63.7528 116.856 64.0875C116.099 64.2913 115.75 64.4368 115.502 64.5387C115.27 64.6405 115.095 64.6987 114.789 64.7278C114.353 64.7861 113.712 64.5387 113.101 64.3058C112.825 64.204 112.563 64.1021 112.359 64.0585C111.821 63.9275 110.162 64.2476 109.507 64.9607L109.434 65.0335L109.332 65.0626C108.343 65.3245 106.131 67.0126 104.53 68.9917C103.235 70.607 103.235 70.6069 103.424 71.1163C103.453 71.2036 103.497 71.3055 103.541 71.4219C103.89 72.3969 105.694 76.4715 105.723 76.5152C106.204 77.2864 107.193 78.3779 107.746 78.2469C108.459 78.1014 108.925 77.1118 109.056 76.748L109.434 75.6566L109.754 76.7771C109.754 76.7916 110.336 78.7853 111.646 79.2219C112.286 79.4402 113.029 79.2364 113.858 78.6398L114.062 78.5088Z"
        fill="#b45309" />
    <path
        d="M109.714 76.7332L109.015 76.5441C109.291 75.4818 108.913 71.3489 108.608 69.69C108.316 68.1329 108.375 66.372 108.724 65.9209C108.826 65.79 108.942 65.2515 108.986 64.8441L109.714 64.9168C109.684 65.1642 109.582 66.0228 109.306 66.372C109.175 66.5903 109.044 68.0165 109.335 69.559C109.583 71.0579 110.048 75.4381 109.714 76.7332Z"
        fill="#b45309" />
    <path
        d="M119.332 77.2284L118.619 77.112C118.633 77.0392 119.957 69.1955 120.088 67.2892C119.856 65.9795 120.132 64.9899 120.147 64.9463L120.845 65.15C120.845 65.1646 120.598 66.0377 120.816 67.2601C120.671 69.2829 119.39 76.9082 119.332 77.2284Z"
        fill="#b45309" />
    <path
        d="M112.186 71C111.91 71 111.648 70.8836 111.459 70.6944C111.269 70.5052 111.153 70.2433 111.153 69.9668C111.153 69.3993 111.619 68.9336 112.186 68.9336C112.463 68.9336 112.725 69.0355 112.914 69.2392C113.103 69.4284 113.219 69.6903 113.219 69.9668C113.219 70.5343 112.754 71 112.186 71ZM112.186 69.6612C112.099 69.6612 112.026 69.6903 111.968 69.7485C111.91 69.8067 111.881 69.8795 111.881 69.9668C111.881 70.0541 111.91 70.1269 111.968 70.1851C112.026 70.2433 112.099 70.2724 112.186 70.2724C112.361 70.2724 112.492 70.1414 112.492 69.9668H112.856H112.492C112.492 69.8795 112.463 69.8067 112.405 69.7485C112.346 69.6903 112.274 69.6612 112.186 69.6612Z"
        fill="#b45309" />
    <path
        d="M116.972 71.0145C116.957 71.0145 116.972 71.0145 116.972 71.0145C116.696 71.0145 116.434 70.898 116.244 70.7089C116.055 70.5197 115.939 70.2577 115.939 69.9813C115.939 69.7048 116.055 69.4428 116.244 69.2536C116.434 69.0645 116.696 68.9481 116.972 68.9481C117.249 68.9481 117.51 69.0645 117.7 69.2536C117.889 69.4428 118.005 69.7048 118.005 69.9813C117.991 70.5488 117.54 71.0145 116.972 71.0145ZM116.972 69.6757C116.885 69.6757 116.812 69.7048 116.754 69.763C116.696 69.8212 116.666 69.8939 116.666 69.9813C116.666 70.0686 116.696 70.1413 116.754 70.1996C116.812 70.2578 116.885 70.2869 116.972 70.2869C117.147 70.2869 117.278 70.1559 117.278 69.9813C117.278 69.8939 117.248 69.8212 117.19 69.763C117.117 69.7048 117.045 69.6757 116.972 69.6757Z"
        fill="#b45309" />
    <path
        d="M114.151 79.0476C113.613 79.0476 113.176 78.7856 112.958 78.3636L112.23 76.9811C111.866 76.2826 112.056 75.4386 112.681 75.0166C112.929 74.842 113.234 74.7546 113.54 74.7546H113.554L114.792 74.7692C115.33 74.7692 115.81 75.0457 116.087 75.4968C116.378 75.9625 116.363 76.5882 116.072 77.0685L115.243 78.4364C115.024 78.8147 114.602 79.0476 114.151 79.0476ZM113.554 75.4677C113.394 75.4677 113.234 75.5114 113.103 75.6132C112.783 75.8315 112.681 76.2826 112.871 76.6464L113.598 78.0289C113.7 78.2181 113.889 78.3345 114.093 78.3345C114.311 78.3199 114.53 78.2326 114.631 78.058L115.461 76.6901C115.621 76.4281 115.621 76.108 115.475 75.8752C115.33 75.6423 115.068 75.4968 114.792 75.4968L113.554 75.4677C113.569 75.4677 113.569 75.4677 113.554 75.4677Z"
        fill="#b45309" />
    <path
        d="M114.355 87.2698C105.813 87.2698 98.8567 80.3138 98.8567 71.7716C98.8567 63.2295 105.813 56.2735 114.355 56.2735C122.897 56.2735 129.853 63.2295 129.853 71.7716C129.838 80.3138 122.897 87.2698 114.355 87.2698ZM114.355 57.0011C106.206 57.0011 99.5843 63.6224 99.5843 71.7716C99.5843 79.9209 106.206 86.5422 114.355 86.5422C122.504 86.5422 129.125 79.9209 129.125 71.7716C129.111 63.6224 122.49 57.0011 114.355 57.0011Z"
        fill="#595959" />
    <path
        d="M112.55 138.697H82.4706C80.4624 138.697 78.8325 137.053 78.8325 135.059V133.182C78.8325 131.174 80.4769 129.544 82.4706 129.544H112.55C114.558 129.544 116.188 131.188 116.188 133.182V135.059C116.188 137.053 114.558 138.697 112.55 138.697Z"
        fill="#b45309" />
    <path
        d="M87.5344 135.874V131.159H89.3972C89.9065 131.159 90.2994 131.276 90.5613 131.508C90.8378 131.741 90.9687 132.076 90.9687 132.513C90.9687 132.862 90.8668 133.138 90.6777 133.371C90.4885 133.589 90.212 133.735 89.8773 133.808C90.081 133.88 90.2557 134.055 90.4013 134.332L91.2307 135.874H90.6341L89.8191 134.361C89.7173 134.172 89.6009 134.041 89.4699 133.982C89.3389 133.91 89.1643 133.881 88.946 133.881H88.0874V135.874H87.5344ZM88.0874 133.444H89.3243C90.0665 133.444 90.4303 133.138 90.4303 132.527C90.4303 131.916 90.0519 131.625 89.3243 131.625H88.0874V133.444Z"
        fill="white" />
    <path
        d="M93.3263 135.932C92.817 135.932 92.4095 135.787 92.1039 135.481C91.7984 135.176 91.6528 134.768 91.6528 134.259C91.6528 133.924 91.7256 133.633 91.8566 133.371C91.9876 133.109 92.1767 132.92 92.4095 132.774C92.6423 132.629 92.9188 132.556 93.2244 132.556C93.661 132.556 94.0103 132.702 94.2577 132.978C94.505 133.255 94.636 133.648 94.636 134.142V134.346H92.1913C92.2058 134.71 92.3222 135.001 92.5114 135.19C92.7151 135.379 92.977 135.481 93.3263 135.481C93.5155 135.481 93.7047 135.452 93.8938 135.394C94.0685 135.336 94.2432 135.234 94.4032 135.103L94.5923 135.481C94.4468 135.612 94.2577 135.729 94.0249 135.801C93.792 135.889 93.5591 135.932 93.3263 135.932ZM93.239 132.964C92.9334 132.964 92.686 133.065 92.5114 133.255C92.3367 133.444 92.2349 133.691 92.2058 134.011H94.1703C94.1558 133.677 94.0685 133.429 93.9084 133.24C93.7483 133.051 93.53 132.964 93.239 132.964Z"
        fill="white" />
    <path
        d="M95.4219 137.067V132.614H95.9458V133.196C96.0477 132.993 96.1932 132.833 96.3824 132.731C96.5716 132.614 96.8043 132.556 97.0663 132.556C97.3573 132.556 97.6047 132.629 97.823 132.76C98.0413 132.891 98.2013 133.095 98.3178 133.342C98.4342 133.589 98.4925 133.895 98.4925 134.244C98.4925 134.593 98.4342 134.884 98.3178 135.132C98.2013 135.379 98.0268 135.583 97.823 135.714C97.6047 135.845 97.3573 135.918 97.0663 135.918C96.8189 135.918 96.5861 135.859 96.3969 135.743C96.1932 135.627 96.0622 135.481 95.9603 135.277V137.053H95.4219V137.067ZM96.9499 135.496C97.2555 135.496 97.4884 135.394 97.6775 135.176C97.8667 134.957 97.954 134.652 97.954 134.244C97.954 133.837 97.8667 133.531 97.6775 133.313C97.4884 133.095 97.2555 132.993 96.9499 132.993C96.6443 132.993 96.3969 133.095 96.2223 133.313C96.0331 133.531 95.9458 133.837 95.9458 134.244C95.9458 134.652 96.0331 134.957 96.2223 135.176C96.4115 135.394 96.6443 135.496 96.9499 135.496Z"
        fill="white" />
    <path
        d="M100.659 135.932C100.339 135.932 100.063 135.859 99.8299 135.729C99.5971 135.598 99.4225 135.394 99.2915 135.146C99.1605 134.899 99.1023 134.593 99.1023 134.259C99.1023 133.924 99.1605 133.618 99.2915 133.371C99.4225 133.124 99.5971 132.92 99.8299 132.789C100.063 132.658 100.339 132.585 100.659 132.585C100.965 132.585 101.241 132.658 101.474 132.789C101.707 132.92 101.882 133.124 102.013 133.371C102.144 133.618 102.202 133.924 102.202 134.259C102.202 134.593 102.144 134.899 102.013 135.146C101.882 135.394 101.707 135.598 101.474 135.729C101.241 135.859 100.979 135.932 100.659 135.932ZM100.659 135.496C100.965 135.496 101.198 135.394 101.387 135.176C101.576 134.957 101.664 134.652 101.664 134.244C101.664 133.837 101.576 133.531 101.387 133.313C101.198 133.095 100.965 132.993 100.659 132.993C100.354 132.993 100.106 133.095 99.9317 133.313C99.7571 133.531 99.6553 133.837 99.6553 134.244C99.6553 134.652 99.7425 134.957 99.9317 135.176C100.106 135.394 100.354 135.496 100.659 135.496Z"
        fill="white" />
    <path
        d="M103.033 135.874V132.629H103.557V133.211C103.732 132.818 104.081 132.6 104.62 132.556L104.809 132.542L104.852 133.007L104.518 133.051C104.212 133.08 103.979 133.182 103.819 133.342C103.659 133.517 103.586 133.735 103.586 134.026V135.874H103.033Z"
        fill="white" />
    <path
        d="M106.903 135.932C106.525 135.932 106.234 135.831 106.044 135.627C105.855 135.423 105.753 135.132 105.753 134.754V133.051H105.113V132.629H105.753V131.639H106.292V132.629H107.325V133.051H106.292V134.695C106.292 134.943 106.35 135.147 106.452 135.278C106.554 135.409 106.728 135.481 106.976 135.481C107.049 135.481 107.121 135.467 107.194 135.452C107.267 135.438 107.325 135.423 107.383 135.394L107.47 135.816C107.412 135.845 107.325 135.874 107.223 135.903C107.107 135.918 107.005 135.932 106.903 135.932Z"
        fill="white" />
</svg>