<svg width="197" height="197" viewBox="0 0 197 197" fill="none" xmlns="http://www.w3.org/2000/svg">
    <path
        d="M98.5 0C44.1045 0 0 44.1045 0 98.5C0 152.896 44.1045 197 98.5 197C152.896 197 197 152.896 197 98.5C197 44.1045 152.896 0 98.5 0ZM98.5 183.195C51.7199 183.195 13.8047 145.28 13.8047 98.5C13.8047 51.7199 51.7199 13.8047 98.5 13.8047C145.28 13.8047 183.195 51.7199 183.195 98.5C183.195 145.28 145.265 183.195 98.5 183.195Z"
        fill="#b45309" />
    <path
        d="M150.587 137.15H46.4118C45.1475 137.15 44.1184 136.003 44.1184 134.606V62.3927C44.1184 60.9814 45.1475 59.8494 46.4118 59.8494H150.587C151.851 59.8494 152.88 60.9961 152.88 62.3927V134.606C152.88 136.003 151.851 137.15 150.587 137.15ZM46.4118 60.3639C45.4268 60.3639 44.6329 61.2754 44.6329 62.3927V134.606C44.6329 135.724 45.4268 136.635 46.4118 136.635H150.587C151.572 136.635 152.366 135.724 152.366 134.606V62.3927C152.366 61.2754 151.572 60.3639 150.587 60.3639H46.4118Z"
        fill="#b45309" />
    <path
        d="M152.621 62.1428V67.597H44.374V62.1428C44.374 61.0108 45.2855 60.0993 46.4176 60.0993H150.592C151.71 60.114 152.621 61.0255 152.621 62.1428Z"
        fill="#b45309" />
    <path
        d="M47.6807 63.8485C47.6807 63.3192 48.107 62.9075 48.6216 62.9075C49.1508 62.9075 49.5624 63.3339 49.5624 63.8485C49.5624 64.3777 49.1361 64.7894 48.6216 64.7894C48.107 64.8041 47.6807 64.3777 47.6807 63.8485Z"
        fill="white" />
    <path
        d="M51.4131 63.8485C51.4131 63.3192 51.8395 62.9075 52.354 62.9075C52.8833 62.9075 53.2949 63.3339 53.2949 63.8485C53.2949 64.3777 52.8686 64.7894 52.354 64.7894C51.8395 64.8041 51.4131 64.3777 51.4131 63.8485Z"
        fill="white" />
    <path
        d="M55.2512 63.8485C55.2512 63.3192 55.6775 62.9075 56.192 62.9075C56.7213 62.9075 57.133 63.3339 57.133 63.8485C57.133 64.3777 56.7066 64.7894 56.192 64.7894C55.6775 64.8041 55.2512 64.3777 55.2512 63.8485Z"
        fill="white" />
    <path
        d="M137.504 88.1648H60.4681C56.4252 88.1648 53.1467 85.0481 53.1467 81.2257C53.1467 79.3733 53.9113 77.6385 55.3079 76.3154C56.6898 75.0069 58.5275 74.2866 60.4681 74.2866H137.504C141.238 74.2866 144.281 77.4033 144.281 81.2257C144.281 83.0781 143.576 84.8129 142.297 86.1213C141.003 87.4445 139.298 88.1648 137.504 88.1648ZM60.4681 74.6247C58.6157 74.6247 56.8515 75.3157 55.5431 76.5653C54.2199 77.815 53.4996 79.4615 53.4996 81.2257C53.4996 84.857 56.6311 87.8267 60.4828 87.8267H137.519C139.224 87.8267 140.841 87.1357 142.061 85.886C143.282 84.6364 143.958 82.9752 143.958 81.2257C143.958 77.5944 141.076 74.6247 137.519 74.6247H60.4681Z"
        fill="#b45309" />
    <path
        d="M96.9109 96.6916H78.9898C78.6075 96.6916 78.2988 96.3828 78.2988 96.0006V95.736C78.2988 95.3537 78.6075 95.045 78.9898 95.045H96.9109C97.2931 95.045 97.6019 95.3537 97.6019 95.736V96.0006C97.6019 96.3828 97.2931 96.6916 96.9109 96.6916Z"
        fill="#E5E5E5" />
    <path
        d="M87.7075 102.322H78.8572C78.5485 102.322 78.2986 102.072 78.2986 101.763C78.2986 101.454 78.5485 101.205 78.8572 101.205H87.7075C88.0162 101.205 88.2661 101.454 88.2661 101.763C88.2661 102.072 88.0162 102.322 87.7075 102.322Z"
        fill="#E5E5E5" />
    <path
        d="M94.5437 99.9842H78.769C78.5044 99.9842 78.2986 99.7783 78.2986 99.5137V99.3373C78.2986 99.0727 78.5044 98.8668 78.769 98.8668H94.5437C94.8083 98.8668 95.0142 99.0727 95.0142 99.3373V99.5137C95.0142 99.7636 94.7936 99.9842 94.5437 99.9842Z"
        fill="#E5E5E5" />
    <path
        d="M111.672 99.9842H97.0146C96.75 99.9842 96.5442 99.7783 96.5442 99.5137V99.3373C96.5442 99.0727 96.75 98.8668 97.0146 98.8668H111.672C111.937 98.8668 112.143 99.0727 112.143 99.3373V99.5137C112.143 99.7636 111.937 99.9842 111.672 99.9842Z"
        fill="#E5E5E5" />
    <path
        d="M98.7481 102.322H89.8977C89.589 102.322 89.3391 102.072 89.3391 101.763C89.3391 101.454 89.589 101.205 89.8977 101.205H98.7481C99.0568 101.205 99.3068 101.454 99.3068 101.763C99.3068 102.072 99.0568 102.322 98.7481 102.322Z"
        fill="#E5E5E5" />
    <path
        d="M118.757 96.6916H100.835C100.453 96.6916 100.145 96.3828 100.145 96.0006V95.736C100.145 95.3537 100.453 95.045 100.835 95.045H118.757C119.139 95.045 119.448 95.3537 119.448 95.736V96.0006C119.448 96.3828 119.139 96.6916 118.757 96.6916Z"
        fill="#E5E5E5" />
    <path
        d="M96.9109 126.006H78.9898C78.6075 126.006 78.2988 125.697 78.2988 125.315V125.051C78.2988 124.668 78.6075 124.36 78.9898 124.36H96.9109C97.2931 124.36 97.6019 124.668 97.6019 125.051V125.315C97.6019 125.697 97.2931 126.006 96.9109 126.006Z"
        fill="#E5E5E5" />
    <path
        d="M87.7075 131.637H78.8572C78.5485 131.637 78.2986 131.387 78.2986 131.078C78.2986 130.77 78.5485 130.52 78.8572 130.52H87.7075C88.0162 130.52 88.2661 130.77 88.2661 131.078C88.2661 131.387 88.0162 131.637 87.7075 131.637Z"
        fill="#E5E5E5" />
    <path
        d="M94.5437 129.284H78.769C78.5044 129.284 78.2986 129.079 78.2986 128.814V128.638C78.2986 128.373 78.5044 128.167 78.769 128.167H94.5437C94.8083 128.167 95.0142 128.373 95.0142 128.638V128.814C95.0142 129.079 94.7936 129.284 94.5437 129.284Z"
        fill="#E5E5E5" />
    <path
        d="M111.672 129.284H97.0146C96.75 129.284 96.5442 129.079 96.5442 128.814V128.638C96.5442 128.373 96.75 128.167 97.0146 128.167H111.672C111.937 128.167 112.143 128.373 112.143 128.638V128.814C112.143 129.079 111.937 129.284 111.672 129.284Z"
        fill="#E5E5E5" />
    <path
        d="M98.7481 131.637H89.8977C89.589 131.637 89.3391 131.387 89.3391 131.078C89.3391 130.77 89.589 130.52 89.8977 130.52H98.7481C99.0568 130.52 99.3068 130.77 99.3068 131.078C99.3068 131.387 99.0568 131.637 98.7481 131.637Z"
        fill="#E5E5E5" />
    <path
        d="M118.757 126.006H100.835C100.453 126.006 100.145 125.697 100.145 125.315V125.051C100.145 124.668 100.453 124.36 100.835 124.36H118.757C119.139 124.36 119.448 124.668 119.448 125.051V125.315C119.448 125.697 119.139 126.006 118.757 126.006Z"
        fill="#E5E5E5" />
    <path
        d="M96.9109 111.349H78.9898C78.6075 111.349 78.2988 111.04 78.2988 110.658V110.394C78.2988 110.011 78.6075 109.703 78.9898 109.703H96.9109C97.2931 109.703 97.6019 110.011 97.6019 110.394V110.658C97.6019 111.04 97.2931 111.349 96.9109 111.349Z"
        fill="#E5E5E5" />
    <path
        d="M87.7075 116.98H78.8572C78.5485 116.98 78.2986 116.73 78.2986 116.421C78.2986 116.112 78.5485 115.862 78.8572 115.862H87.7075C88.0162 115.862 88.2661 116.112 88.2661 116.421C88.2661 116.73 88.0162 116.98 87.7075 116.98Z"
        fill="#E5E5E5" />
    <path
        d="M94.5437 114.628H78.769C78.5044 114.628 78.2986 114.422 78.2986 114.157V113.981C78.2986 113.716 78.5044 113.51 78.769 113.51H94.5437C94.8083 113.51 95.0142 113.716 95.0142 113.981V114.157C95.0142 114.422 94.7936 114.628 94.5437 114.628Z"
        fill="#E5E5E5" />
    <path
        d="M111.672 114.628H97.0146C96.75 114.628 96.5442 114.422 96.5442 114.157V113.981C96.5442 113.716 96.75 113.51 97.0146 113.51H111.672C111.937 113.51 112.143 113.716 112.143 113.981V114.157C112.143 114.422 111.937 114.628 111.672 114.628Z"
        fill="#E5E5E5" />
    <path
        d="M98.7481 116.98H89.8977C89.589 116.98 89.3391 116.73 89.3391 116.421C89.3391 116.113 89.589 115.863 89.8977 115.863H98.7481C99.0568 115.863 99.3068 116.113 99.3068 116.421C99.3068 116.73 99.0568 116.98 98.7481 116.98Z"
        fill="#E5E5E5" />
    <path
        d="M118.757 111.349H100.835C100.453 111.349 100.145 111.04 100.145 110.658V110.394C100.145 110.011 100.453 109.703 100.835 109.703H118.757C119.139 109.703 119.448 110.011 119.448 110.394V110.658C119.448 111.04 119.139 111.349 118.757 111.349Z"
        fill="#E5E5E5" />
    <path
        d="M59.7424 82.7257L60.0364 82.3728C60.301 82.6081 60.5657 82.7257 60.9038 82.7257C61.1978 82.7257 61.389 82.5934 61.389 82.3728C61.389 82.1817 61.2713 82.064 60.7715 81.9464C60.1834 81.8141 59.8453 81.6377 59.8453 81.1231C59.8453 80.6527 60.2422 80.3293 60.7862 80.3293C61.1831 80.3293 61.5065 80.4469 61.7859 80.6821L61.5213 81.0497C61.2713 80.8585 61.0214 80.7703 60.7715 80.7703C60.4921 80.7703 60.3157 80.9173 60.3157 81.1084C60.3157 81.3143 60.4481 81.4171 60.9773 81.5495C61.5654 81.6965 61.8595 81.9024 61.8595 82.3728C61.8595 82.8874 61.4477 83.1961 60.8744 83.1961C60.4627 83.1667 60.0659 83.0197 59.7424 82.7257Z"
        fill="#595959" />
    <path
        d="M62.2866 82.0786C62.2866 81.4758 62.713 80.9907 63.301 80.9907C63.9626 80.9907 64.3007 81.5052 64.3007 82.1079C64.3007 82.1373 64.3007 82.2256 64.286 82.2403H62.7571C62.8012 82.5784 63.0511 82.7695 63.3598 82.7695C63.595 82.7695 63.7567 82.6813 63.9185 82.5196L64.1978 82.7695C64.0067 83.0047 63.7273 83.1665 63.3451 83.1665C62.7423 83.1665 62.2866 82.7255 62.2866 82.0786ZM63.8303 81.9315C63.8009 81.6228 63.6245 81.3876 63.301 81.3876C63.007 81.3876 62.8012 81.6081 62.7571 81.9315H63.8303Z"
        fill="#595959" />
    <path
        d="M66.0481 83.1224V82.8725C65.9011 83.0489 65.6952 83.1665 65.3718 83.1665C64.9749 83.1665 64.6367 82.946 64.6367 82.5197C64.6367 82.0639 64.9896 81.8434 65.4747 81.8434C65.7246 81.8434 65.8864 81.8728 66.0481 81.9316V81.8875C66.0481 81.5935 65.8717 81.4465 65.5336 81.4465C65.2984 81.4465 65.1219 81.4905 64.9308 81.5788L64.7985 81.1965C65.0337 81.0936 65.2542 81.0201 65.5924 81.0201C66.2098 81.0201 66.5038 81.3436 66.5038 81.9022V83.1371H66.0481V83.1224ZM66.0628 82.2551C65.9452 82.2109 65.7688 82.1668 65.5924 82.1668C65.2983 82.1668 65.1219 82.2844 65.1219 82.505C65.1219 82.6961 65.2983 82.8137 65.5189 82.8137C65.8276 82.8137 66.0775 82.6373 66.0775 82.3727V82.2551H66.0628Z"
        fill="#595959" />
    <path
        d="M67.0945 81.0345H67.5649V81.505C67.6972 81.1963 67.9324 80.9758 68.2999 80.9905V81.4903H68.2706C67.8589 81.4903 67.5649 81.7696 67.5649 82.3136V83.1075H67.0945V81.0345Z"
        fill="#595959" />
    <path
        d="M68.5356 82.0786C68.5356 81.4905 68.9914 80.9907 69.6235 80.9907C70.0205 80.9907 70.2557 81.1377 70.4615 81.3435L70.1675 81.6669C70.0205 81.5199 69.8735 81.4023 69.6235 81.4023C69.2707 81.4023 69.0208 81.6963 69.0208 82.0786C69.0208 82.4461 69.2707 82.7548 69.6383 82.7548C69.8588 82.7548 70.0352 82.6519 70.1822 82.4902L70.4763 82.7695C70.2704 83.0047 70.0352 83.1665 69.6235 83.1665C68.9914 83.1665 68.5356 82.6813 68.5356 82.0786Z"
        fill="#595959" />
    <path
        d="M70.9006 80.2411H71.3711V81.3584C71.5034 81.1673 71.6945 80.9908 72.018 80.9908C72.4884 80.9908 72.753 81.2995 72.753 81.7847V83.1079H72.2826V81.9317C72.2826 81.6082 72.1209 81.4172 71.8416 81.4172C71.5622 81.4172 71.3711 81.6082 71.3711 81.9317V83.1079H70.9006V80.2411Z"
        fill="#595959" />
    <path d="M73.3125 82.5781H73.8417V83.1221H73.3125V82.5781Z" fill="#595959" />
    <path d="M74.386 82.5781H74.9152V83.1221H74.386V82.5781Z" fill="#595959" />
    <path d="M75.4443 82.5781H75.9736V83.1221H75.4443V82.5781Z" fill="#595959" />
    <path d="M76.5029 82.5781H77.0322V83.1221H76.5029V82.5781Z" fill="#595959" />
    <path
        d="M143.955 81.2697C143.955 83.0927 143.22 84.7539 142.044 85.9594C140.868 87.1649 139.251 87.9147 137.472 87.9147H123.799V74.6393H137.472C141.044 74.6246 143.955 77.6091 143.955 81.2697Z"
        fill="#b45309" />
    <path
        d="M135.312 83.6806C135.151 83.6806 134.974 83.666 134.812 83.6366C133.916 83.5042 133.136 83.0337 132.592 82.2987C131.475 80.7991 131.799 78.6821 133.298 77.5648C134.798 76.4475 136.915 76.7709 138.032 78.2705C139.149 79.77 138.826 81.8871 137.326 83.0044C136.724 83.4455 136.033 83.6806 135.312 83.6806ZM133.622 78.0206C132.372 78.9468 132.107 80.7257 133.034 81.9753C133.489 82.578 134.136 82.975 134.886 83.0926C135.636 83.2102 136.371 83.019 136.988 82.5633C138.238 81.6371 138.502 79.8582 137.576 78.6086C136.65 77.359 134.871 77.0944 133.622 78.0206Z"
        fill="white" />
    <path d="M133.011 82.3631L132.679 81.914L128.968 84.6603L129.3 85.1093L133.011 82.3631Z" fill="white" />
    <path
        d="M127.798 85.8418C127.636 85.6213 127.68 85.3125 127.901 85.1508L130.091 83.5337C130.312 83.372 130.621 83.4161 130.782 83.6366C130.944 83.8571 130.9 84.1658 130.679 84.3275L128.489 85.9448C128.283 86.1212 127.96 86.0624 127.798 85.8418Z"
        fill="white" />
    <path d="M142.779 89.65L138.765 90.5909L136.781 94.2075L135.266 85.9746L142.779 89.65Z" fill="#595959" />
    <path d="M138.578 89.8027L137.992 90.2467L140.558 93.6329L141.144 93.1889L138.578 89.8027Z" fill="#595959" />
    <path
        d="M72.8127 122.478H63.5361C63.051 122.478 62.6541 122.875 62.6541 123.36V132.637C62.6541 133.122 63.051 133.519 63.5361 133.519H72.8127C73.2979 133.519 73.6949 133.122 73.6949 132.637V123.36C73.6949 122.875 73.2979 122.478 72.8127 122.478Z"
        fill="#D3D3D3" />
    <path
        d="M72.8127 107.821H63.5361C63.051 107.821 62.6541 108.218 62.6541 108.703V117.979C62.6541 118.465 63.051 118.861 63.5361 118.861H72.8127C73.2979 118.861 73.6949 118.465 73.6949 117.979V108.703C73.6949 108.218 73.2979 107.821 72.8127 107.821Z"
        fill="#D3D3D3" />
    <path
        d="M72.8127 93.1635H63.5361C63.051 93.1635 62.6541 93.5604 62.6541 94.0455V103.322C62.6541 103.807 63.051 104.204 63.5361 104.204H72.8127C73.2979 104.204 73.6949 103.807 73.6949 103.322V94.0455C73.6949 93.5604 73.2979 93.1635 72.8127 93.1635Z"
        fill="#D3D3D3" />
</svg>