<?xml version="1.0" encoding="UTF-8" standalone="no"?>
<svg
   width="1920"
   height="273"
   viewBox="0 0 1920 273"
   fill="none"
   version="1.1"
   id="svg229"
   xmlns="http://www.w3.org/2000/svg"
   xmlns:svg="http://www.w3.org/2000/svg">
  <g
     clip-path="url(#clip0_2_44788)"
     id="g229"
     transform="matrix(1.0041575,0,0,1.0041575,-1.4167658,-1.0151195e-5)">
    <path
       d="M 1724.78,197.58 H 491.211 v 74.94 H 1724.78 Z"
       fill="#db1d41"
       id="path1"
       style="fill:#b45309;fill-opacity:1" />
    <path
       d="m 1647.18,76.4899 c -2.75,-1.68 -6.44,-1.69 -9.38,-0.06 0.99,-3.88 -1.33,-7.91 -4.21,-10.28 -3.42,-2.81 -8.66,-3 -12.3,-0.45 -4.94,-6.25 -14.4,-9.26 -22.11,-7 -3.43,1.01 -6.28,2.92 -8.01,5.38 -1.81,2.57 -2.37,5.8 -1.51,8.53 -4.56,-1 -10.09,0.72 -12.77,4.02 -0.96,1.17 -1.22,3.45 -0.66,5.16 -5.35,-1.74 -11.47,-1.3 -16.48,1.21 -0.97,0.49 -2.2,1.19 -3.09,2.29 -0.94,1.17 -1.3,2.62 -0.96,3.87 0.6,2.18 2.99,3.11 4.36,3.46 2.84,0.74 5.94,0.66 8.75,-0.22 2.49,4.55 6.43,7.8801 11.14,9.3901 4.87,1.56 10.3,1.17 14.9,-1.08 4.14,2.69 9.23,4.16 14.35,4.16 1.9,0 3.75,-0.21 5.51,-0.62 1.8,-0.42 6.04,-1.76 7.45,-5.2201 1.98,1.7401 4.06,2.5701 6.89,2.7401 2.81,0.17 5.77,-0.41 8.81,-1.74 1.41,-0.6201 3.41,-1.6401 4.58,-3.4701 0.75,-1.18 1.18,-3.07 0.5,-4.66 3.52,0.37 6.69,-2.36 7.83,-5.37 1.35,-3.57 -0.23,-7.98 -3.59,-10.04 z m -55.59,-12.12 c 1.67,-2.37 4.42,-4.21 7.74,-5.18 7.6,-2.23 16.93,0.79 21.72,7.01 0.08,0.11 0.24,0.13 0.35,0.05 3.41,-2.52 8.63,-2.39 11.88,0.3 2.9,2.39 5.22,6.52 3.87,10.36 -0.04,0.1 0,0.21 0.08,0.28 0.08,0.07 0.2,0.07 0.29,0.01 0.09,-0.06 0.18,-0.09 0.27,-0.15 -0.36,0.21 -0.71,0.44 -1.03,0.71 2.06,-4.02 -0.36,-8.62 -3.49,-11.19 -3.35,-2.76 -8.65,-2.82 -12.07,-0.14 -4.74,-6.38 -14.14,-9.47 -21.85,-7.21 -3.32,0.98 -6.07,2.82 -7.73,5.18 -1.67,2.37 -2.21,5.33 -1.52,7.85 -0.72,-2.55 -0.18,-5.5 1.49,-7.88 z m -15.01,18.07 c 0.09,0.03 0.2,0.01 0.27,-0.07 0.07,-0.08 0.08,-0.18 0.04,-0.27 -0.74,-1.57 -0.56,-3.98 0.39,-5.14 2.66,-3.27 8.24,-4.91 12.71,-3.74 0.09,0.02 0.19,0 0.25,-0.08 0.06,-0.07 0.08,-0.17 0.05,-0.26 -0.05,-0.14 -0.09,-0.3 -0.13,-0.44 0.1,0.32 0.21,0.64 0.35,0.95 -4.5,-1.44 -10.42,0.17 -13.2,3.58 -1.14,1.39 -1.13,4.4 -0.01,5.76 -0.6,-0.24 -1.21,-0.44 -1.83,-0.62 0.37,0.1 0.74,0.2 1.11,0.33 z m 0.53,0.75 c 0.22,0.09 0.46,0.02 0.61,-0.18 0.13,-0.19 0.13,-0.45 -0.03,-0.63 -0.97,-1.15 -0.97,-3.91 0,-5.1 2.66,-3.27 8.34,-4.8 12.67,-3.42 0.19,0.06 0.4,0 0.54,-0.15 0.13,-0.15 0.17,-0.37 0.08,-0.55 -1.19,-2.56 -0.78,-5.89 1.05,-8.48 1.6,-2.27 4.25,-4.04 7.46,-4.98 7.52,-2.21 16.68,0.81 21.31,7.03 0.08,0.11 0.21,0.19 0.34,0.2 0.15,0.02 0.28,-0.02 0.38,-0.1 3.23,-2.54 8.26,-2.49 11.43,0.13 2.97,2.45 5.29,6.8 3.36,10.58 -0.11,0.21 -0.05,0.48 0.13,0.63 0.19,0.15 0.46,0.15 0.65,0 2.68,-2.21 6.71,-2.54 9.56,-0.79 2.96,1.81 4.35,5.68 3.16,8.82 -1.14,3.03 -4.55,5.55 -7.8,4.49 -0.22,-0.08 -0.47,0.01 -0.59,0.21 -0.13,0.2 -0.1,0.45 0.06,0.63 1.15,1.22 0.91,3.24 0.1,4.51 -1.02,1.6 -2.84,2.53 -4.13,3.09 -2.89,1.2601 -5.7,1.8301 -8.33,1.6501 -2.86,-0.18 -4.84,-1.0501 -6.83,-3.0001 -0.13,-0.13 -0.33,-0.18 -0.49,-0.13 -0.18,0.05 -0.31,0.19 -0.36,0.37 -0.91,3.5001 -5.17,4.8501 -6.96,5.2701 -6.39,1.49 -13.79,0.12 -19.31,-3.5601 -0.08,-0.06 -0.18,-0.09 -0.29,-0.09 -0.08,0 -0.16,0.02 -0.23,0.06 -4.42,2.2401 -9.67,2.6601 -14.39,1.1501 -4.58,-1.4701 -8.4,-4.7601 -10.75,-9.2701 -0.12,-0.22 -0.39,-0.33 -0.62,-0.25 -2.73,0.95 -5.78,1.07 -8.57,0.33 -1.16,-0.3 -3.17,-1.06 -3.63,-2.75 -0.26,-0.93 0.03,-2.04 0.77,-2.96 0.76,-0.95 1.87,-1.58 2.75,-2.02 5.19,-2.62 11.5,-2.89 16.9,-0.74 z m 73.19,3.18 c -1.08,2.89 -4.36,5.61 -7.75,4.98 -0.1,-0.02 -0.19,0.02 -0.25,0.1 -0.06,0.08 -0.06,0.19 -0.01,0.27 0.88,1.48 0.47,3.41 -0.27,4.58 -1.1,1.72 -3.01,2.7 -4.36,3.29 -2.96,1.3001 -5.84,1.8801 -8.58,1.7001 -2.83,-0.18 -4.88,-1.03 -6.85,-2.8601 -0.06,-0.06 -0.15,-0.08 -0.23,-0.06 -0.08,0.02 -0.15,0.08 -0.17,0.16 -1.18,3.4901 -5.45,4.8301 -7.22,5.2501 -1.72,0.4 -3.54,0.61 -5.4,0.61 -5.08,0 -10.12,-1.48 -14.2,-4.16 -0.04,-0.03 -0.09,-0.04 -0.14,-0.04 -0.04,0 -0.08,0.01 -0.11,0.03 -4.52,2.24 -9.86,2.65 -14.65,1.11 -4.64,-1.4901 -8.53,-4.8001 -10.95,-9.3301 -0.06,-0.11 -0.19,-0.16 -0.3,-0.12 -2.77,0.92 -5.85,1.01 -8.67,0.28 -1.27,-0.33 -3.47,-1.18 -4,-3.11 -0.3,-1.09 0.02,-2.38 0.87,-3.43 0.83,-1.03 2,-1.69 2.92,-2.16 0.26,-0.13 0.53,-0.23 0.8,-0.35 -0.26,0.12 -0.53,0.24 -0.79,0.37 -0.92,0.46 -2.09,1.13 -2.91,2.15 -0.84,1.04 -1.16,2.32 -0.86,3.41 0.53,1.93 2.73,2.77 3.99,3.1 2.89,0.76 6.04,0.64 8.88,-0.34 2.41,4.63 6.33,8 11.04,9.5101 4.84,1.55 10.23,1.12 14.77,-1.18 h 0.01 0.01 c 4.13,2.75 9.28,4.24 14.31,4.24 1.84,0 3.65,-0.2 5.4,-0.61 1.88,-0.44 6.35,-1.86 7.34,-5.6401 2.08,2.0501 4.15,2.9601 7.14,3.1401 2.72,0.18 5.6,-0.39 8.57,-1.6901 1.34,-0.59 3.26,-1.57 4.35,-3.28 0.92,-1.43 1.17,-3.71 -0.15,-5.14 3.53,1.16 7.21,-1.54 8.42,-4.79 1.26,-3.36 -0.22,-7.5 -3.37,-9.43 -2.26,-1.38 -5.19,-1.54 -7.73,-0.57 2.56,-0.99 5.48,-0.83 7.74,0.55 3.14,1.94 4.63,6.09 3.36,9.46 z"
       fill="#eaeaea"
       id="path2" />
    <path
       d="m 761.352,11.84 c -2.17,-1.17 -4.85,-1.47 -7.24,-0.83 0.19,-0.76 0.08,-1.68002 -0.33,-2.21002 -1.15,-1.5 -3.54,-2.35 -5.59,-2.06 0.34,-1.21 0.1,-2.61 -0.65,-3.75 -0.76,-1.15 -2.04,-2.060003 -3.6,-2.570003 -3.44,-1.12 -7.73,0.08 -10.08,2.800003 -1.65,-1.15 -4,-1.11 -5.59,0.12 -1.29,1 -2.36,2.69 -2.13,4.41 -1.3,-0.66 -2.88,-0.65 -4.09,0.04 -1.59,0.91 -2.38,2.95002 -1.8,4.63002 0.47,1.35 1.81,2.61 3.37,2.61 -0.23,0.71 -0.06,1.5 0.25,2.02 0.52,0.87 1.43,1.37 2.07,1.67 1.36,0.65 2.71,0.96 4,0.91 1.22,-0.04 2.18,-0.37 3.06,-1.06 0.68,1.51 2.51,2.14 3.3,2.35 0.79,0.21 1.63,0.33 2.5,0.35 0.12,0 0.23,0 0.35,0 2.18,0 4.35,-0.59 6.16,-1.67 2.05,1.06 4.49,1.29 6.71,0.65 2.13,-0.62 3.95,-2.05 5.14,-4.04 1.25,0.41 2.62,0.47 3.89,0.18 0.65,-0.15 1.78,-0.56 2.1,-1.59 0.18,-0.6 0.03,-1.3 -0.4,-1.87 -0.4,-0.51 -0.95,-0.86 -1.4,-1.09 z m 1.1,2.76 c -0.21,0.68 -1.07,0.98 -1.57,1.09 -1.24,0.28 -2.58,0.2 -3.76,-0.25 -0.17,-0.07 -0.37,0.01 -0.45,0.16 -1.09,1.96 -2.82,3.37 -4.86,3.96 -2.11,0.61 -4.42,0.36 -6.34,-0.69 -0.03,-0.02 -0.12,-0.04 -0.16,-0.04 -0.07,0 -0.15,0.02 -0.21,0.06 -2.5,1.56 -5.8,2.08 -8.61,1.33 -0.77,-0.2 -2.61,-0.84 -2.96,-2.35 -0.03,-0.13 -0.12,-0.23 -0.25,-0.27 -0.04,-0.01 -0.07,-0.02 -0.11,-0.02 -0.09,0 -0.18,0.03 -0.25,0.1 -0.89,0.83 -1.76,1.18 -3.01,1.22 -1.17,0.05 -2.4,-0.24 -3.66,-0.84 -0.55,-0.26 -1.34,-0.69 -1.75,-1.39 -0.32,-0.54 -0.4,-1.37 0.08,-1.85 0.12,-0.12 0.14,-0.3 0.06,-0.45 -0.09,-0.15 -0.26,-0.22 -0.42,-0.17 -1.39,0.41 -2.82,-0.71 -3.27,-2.03 -0.47,-1.36 0.18,-3.01002 1.47,-3.76002 1.26,-0.72 2.99,-0.52 4.13,0.46 0.13,0.11 0.33,0.12 0.46,0.01 0.14,-0.11 0.18,-0.29 0.11,-0.45 -0.79,-1.65 0.28,-3.51 1.6,-4.54 1.41,-1.1 3.59,-1.06 4.96,0.08 0.08,0.06 0.16,0.09 0.28,0.08 0.1,-0.01 0.18,-0.06 0.25,-0.14 2.12,-2.69 6.21,-3.9100032458 9.5,-2.84 1.4,0.46 2.54,1.27 3.21,2.28 0.76,1.15 0.9,2.59 0.35,3.68 -0.07,0.13 -0.05,0.29 0.05,0.41 0.09,0.11 0.24,0.15 0.38,0.12 1.91,-0.55 4.37,0.19 5.49,1.65 0.38,0.5 0.35,1.66002 -0.06,2.12002 -0.11,0.13 -0.13,0.31 -0.03,0.45 0.1,0.14 0.28,0.19 0.43,0.14 2.41,-0.88 5.2,-0.68 7.46,0.53 0.38,0.2 0.85,0.49 1.16,0.9 0.31,0.42 0.42,0.88 0.3,1.25 z"
       fill="#eaeaea"
       id="path3" />
    <path
       d="m 1166.35,76.2999 c -2.21,-1.19 -4.93,-1.49 -7.37,-0.84 0.2,-0.78 0.08,-1.71 -0.33,-2.25 -1.17,-1.53 -3.59,-2.39 -5.69,-2.09 0.35,-1.23 0.11,-2.66 -0.66,-3.82 -0.77,-1.17 -2.07,-2.1 -3.66,-2.61 -3.5,-1.14 -7.86,0.09 -10.25,2.85 -1.67,-1.17 -4.07,-1.13 -5.68,0.12 -1.31,1.02 -2.4,2.74 -2.16,4.49 -1.32,-0.67 -2.93,-0.67 -4.17,0.04 -1.62,0.93 -2.42,2.99 -1.83,4.71 0.47,1.37 1.84,2.65 3.42,2.65 h 0.01 c -0.24,0.72 -0.06,1.53 0.25,2.06 0.53,0.88 1.45,1.39 2.11,1.7 1.39,0.65 2.76,0.96 4.06,0.92 1.24,-0.04 2.22,-0.38 3.12,-1.08 0.69,1.53 2.55,2.18 3.36,2.39 0.81,0.21 1.67,0.33 2.54,0.36 0.12,0 0.23,0 0.35,0 2.22,0 4.43,-0.6 6.26,-1.7 2.09,1.07 4.57,1.32 6.82,0.66 2.17,-0.63 4.02,-2.08 5.23,-4.11 1.27,0.42 2.67,0.48 3.96,0.18 0.66,-0.15 1.81,-0.56 2.14,-1.62 0.19,-0.61 0.03,-1.32 -0.41,-1.9 -0.4,-0.52 -0.97,-0.87 -1.42,-1.11 z m 1.13,2.81 c -0.21,0.7 -1.09,1 -1.59,1.11 -1.26,0.29 -2.62,0.2 -3.83,-0.26 -0.17,-0.07 -0.37,0 -0.46,0.16 -1.11,2 -2.87,3.43 -4.95,4.03 -2.14,0.62 -4.49,0.36 -6.45,-0.7 -0.03,-0.02 -0.12,-0.04 -0.16,-0.04 -0.07,0 -0.15,0.02 -0.21,0.06 -2.54,1.59 -5.9,2.11 -8.76,1.36 -0.79,-0.21 -2.66,-0.86 -3.01,-2.4 -0.03,-0.13 -0.13,-0.23 -0.25,-0.27 -0.04,-0.01 -0.07,-0.02 -0.11,-0.02 -0.09,0 -0.18,0.03 -0.25,0.1 -0.91,0.84 -1.8,1.2 -3.07,1.25 -1.18,0.04 -2.44,-0.25 -3.72,-0.85 -0.56,-0.26 -1.36,-0.7 -1.79,-1.41 -0.33,-0.55 -0.41,-1.4 0.08,-1.89 0.12,-0.12 0.14,-0.3 0.06,-0.45 -0.09,-0.15 -0.26,-0.22 -0.42,-0.16 -1.42,0.42 -2.88,-0.73 -3.34,-2.07 -0.48,-1.39 0.18,-3.07 1.5,-3.83 1.28,-0.73 3.05,-0.53 4.2,0.47 0.13,0.11 0.32,0.12 0.46,0.01 0.14,-0.11 0.18,-0.3 0.11,-0.45 -0.8,-1.68 0.29,-3.57 1.63,-4.62 1.43,-1.12 3.65,-1.08 5.05,0.09 0.08,0.06 0.18,0.09 0.28,0.08 0.1,-0.01 0.18,-0.06 0.25,-0.14 2.16,-2.74 6.32,-3.98 9.67,-2.89 1.43,0.46 2.59,1.29 3.27,2.32 0.77,1.17 0.91,2.64 0.36,3.75 -0.07,0.13 -0.05,0.29 0.05,0.4 0.1,0.11 0.25,0.16 0.38,0.12 1.94,-0.56 4.45,0.19 5.59,1.68 0.39,0.5 0.35,1.7 -0.06,2.16 -0.12,0.13 -0.13,0.31 -0.03,0.46 0.09,0.14 0.27,0.19 0.43,0.14 2.46,-0.89 5.29,-0.69 7.6,0.54 0.38,0.21 0.86,0.5 1.18,0.92 0.32,0.4 0.42,0.86 0.31,1.24 z"
       fill="#eaeaea"
       id="path4" />
    <path
       d="m 899.641,43.7199 c -1.25,-0.67 -2.76,-0.86 -4.15,-0.54 0.07,-0.44 -0.02,-0.92 -0.24,-1.21 -0.67,-0.87 -2.02,-1.38 -3.21,-1.26 0.15,-0.7 0,-1.48 -0.43,-2.13 -0.46,-0.69 -1.22,-1.24 -2.16,-1.54 -2.02,-0.66 -4.53,0.03 -5.94,1.6 -0.99,-0.64 -2.37,-0.6 -3.31,0.13 -0.73,0.57 -1.35,1.51 -1.3,2.49 -0.75,-0.32 -1.63,-0.29 -2.32,0.11 -0.97,0.56 -1.45,1.8 -1.1,2.83 0.27,0.79 1.03,1.52 1.93,1.59 -0.09,0.41 0.02,0.84 0.19,1.14 0.32,0.53 0.87,0.83 1.26,1.02 0.81,0.38 1.61,0.56 2.38,0.54 0.69,-0.02 1.24,-0.2 1.75,-0.56 0.45,0.84 1.48,1.2 1.94,1.32 0.47,0.12 0.97,0.19 1.48,0.21 0.07,0 0.13,0 0.2,0 1.28,0 2.54,-0.34 3.61,-0.96 1.21,0.61 2.64,0.74 3.94,0.36 1.24,-0.36 2.31,-1.19 3.02,-2.33 0.73,0.22 1.52,0.25 2.25,0.08 0.4,-0.09 1.1,-0.35 1.3,-1 0.12,-0.38 0.02,-0.83 -0.25,-1.19 -0.23,-0.35 -0.57,-0.55 -0.84,-0.7 z m 0.5,1.68 c -0.11,0.36 -0.62,0.52 -0.84,0.57 -0.7,0.16 -1.46,0.11 -2.13,-0.14 -0.15,-0.06 -0.32,0 -0.4,0.14 -0.63,1.12 -1.61,1.93 -2.78,2.26 -1.21,0.35 -2.53,0.21 -3.63,-0.39 0,0 0,0 -0.01,0 -0.04,-0.02 -0.1,-0.02 -0.12,-0.03 -0.07,-0.01 -0.14,0.02 -0.19,0.05 -1.44,0.9 -3.33,1.2 -4.95,0.77 -0.43,-0.11 -1.46,-0.47 -1.65,-1.29 -0.02,-0.11 -0.11,-0.2 -0.21,-0.24 -0.03,-0.01 -0.07,-0.02 -0.1,-0.02 -0.08,0 -0.16,0.03 -0.22,0.08 -0.51,0.47 -0.98,0.66 -1.69,0.69 -0.65,0.03 -1.37,-0.14 -2.09,-0.48 -0.31,-0.15 -0.75,-0.39 -0.98,-0.77 -0.17,-0.28 -0.21,-0.72 0.03,-0.96 0.1,-0.1 0.12,-0.27 0.05,-0.38 -0.07,-0.13 -0.22,-0.18 -0.37,-0.15 -0.76,0.21 -1.54,-0.4 -1.79,-1.12 -0.26,-0.75 0.1,-1.66 0.81,-2.07 0.7,-0.4 1.66,-0.29 2.29,0.26 0.11,0.1 0.28,0.1 0.4,0.01 0.12,-0.09 0.16,-0.25 0.09,-0.39 -0.43,-0.91 0.17,-1.95 0.91,-2.53 0.79,-0.61 2,-0.59 2.77,0.05 0.06,0.05 0.14,0.08 0.23,0.07 0.07,-0.01 0.17,-0.07 0.22,-0.12 1.21,-1.54 3.55,-2.24 5.44,-1.63 0.8,0.26 1.44,0.72 1.82,1.29 0.42,0.64 0.5,1.45 0.2,2.05 -0.05,0.11 -0.04,0.25 0.04,0.34 0.08,0.1 0.2,0.14 0.33,0.1 1.06,-0.31 2.48,0.12 3.1,0.93 0.19,0.25 0.17,0.88 -0.03,1.1 -0.1,0.11 -0.11,0.27 -0.02,0.4 0.08,0.11 0.23,0.16 0.37,0.11 1.38,-0.51 2.98,-0.39 4.28,0.31 0.21,0.11 0.47,0.27 0.65,0.5 0.17,0.21 0.22,0.45 0.17,0.63 z"
       fill="#eaeaea"
       id="path5" />
    <path
       d="m 872.554,89.15 c -2.63,-1.41 -5.87,-1.77 -8.76,-0.98 0.26,-0.92 0.13,-2.05 -0.36,-2.7 -1.39,-1.81 -4.29,-2.84 -6.76,-2.44 0.44,-1.46 0.16,-3.16 -0.76,-4.55 -0.91,-1.38 -2.44,-2.47 -4.31,-3.07 -4.14,-1.35 -9.29,0.11 -12.1,3.39 -1.96,-1.39 -4.8,-1.36 -6.7,0.12 -1.56,1.21 -2.86,3.28 -2.52,5.36 -1.56,-0.83 -3.49,-0.84 -4.96,0.01 -1.89,1.08 -2.83,3.51 -2.15,5.51 0.55,1.61 2.16,3.11 4,3.11 0.02,0 0.05,0 0.08,0 -0.31,0.85 -0.1,1.83 0.28,2.46 0.62,1.03 1.71,1.63 2.47,1.99 1.63,0.77 3.23,1.14 4.79,1.08 1.48,-0.05 2.64,-0.46 3.71,-1.3 0.79,1.84 3.01,2.61 3.97,2.86 0.95,0.25 1.96,0.39 3,0.42 0.14,0 0.28,0.01 0.41,0.01 2.63,0 5.24,-0.71 7.41,-2.02 2.47,1.27 5.4,1.56 8.06,0.79 2.56,-0.74 4.75,-2.47 6.18,-4.87 1.5,0.5 3.16,0.58 4.7,0.23 0.77,-0.18 2.12,-0.66 2.49,-1.88 0.22,-0.7 0.04,-1.53 -0.48,-2.21 -0.5,-0.63 -1.17,-1.03 -1.69,-1.32 z m 1.39,3.3 c -0.26,0.85 -1.32,1.21 -1.92,1.35 -1.5,0.35 -3.12,0.24 -4.56,-0.31 -0.18,-0.07 -0.38,0.01 -0.48,0.17 -1.32,2.37 -3.41,4.07 -5.88,4.79 -2.55,0.74 -5.34,0.44 -7.67,-0.83 -0.06,-0.03 -0.12,-0.05 -0.17,-0.05 -0.1,0 -0.16,0.02 -0.22,0.06 -3.02,1.89 -7,2.51 -10.4,1.61 -0.94,-0.25 -3.17,-1.02 -3.59,-2.87 -0.03,-0.13 -0.13,-0.24 -0.26,-0.28 -0.04,-0.01 -0.08,-0.02 -0.12,-0.02 -0.1,0 -0.19,0.04 -0.27,0.11 -1.08,1 -2.14,1.43 -3.66,1.49 -1.41,0.05 -2.9,-0.29 -4.42,-1.01 -0.67,-0.32 -1.62,-0.84 -2.13,-1.69 -0.4,-0.66 -0.5,-1.69 0.11,-2.29 0.13,-0.13 0.15,-0.32 0.06,-0.47 -0.09,-0.15 -0.28,-0.22 -0.45,-0.18 -1.72,0.51 -3.45,-0.87 -4,-2.47 -0.57,-1.67 0.22,-3.68 1.79,-4.58 1.53,-0.87 3.64,-0.64 5.02,0.56 0.14,0.12 0.35,0.13 0.49,0.01 0.15,-0.11 0.2,-0.31 0.12,-0.48 -0.96,-2.01 0.34,-4.27 1.95,-5.52 1.71,-1.33 4.37,-1.29 6.03,0.1 0.08,0.07 0.18,0.09 0.3,0.09 0.1,-0.01 0.2,-0.07 0.26,-0.15 2.57,-3.25 7.51,-4.73 11.5,-3.43 1.7,0.55 3.08,1.53 3.89,2.76 0.92,1.4 1.09,3.16 0.43,4.49 -0.07,0.14 -0.05,0.3 0.05,0.43 0.1,0.11 0.26,0.16 0.41,0.12 2.32,-0.67 5.31,0.23 6.67,2 0.48,0.62 0.44,2.04 -0.07,2.61 -0.12,0.13 -0.13,0.33 -0.03,0.48 0.1,0.14 0.28,0.21 0.46,0.15 2.92,-1.07 6.29,-0.82 9.03,0.64 0.46,0.25 1.03,0.59 1.42,1.1 0.33,0.48 0.46,1.05 0.31,1.51 z"
       fill="#eaeaea"
       id="path6" />
    <path
       d="m 1594.18,118.85 c -2.17,-1.17 -4.85,-1.47 -7.24,-0.83 0.19,-0.76 0.08,-1.68 -0.33,-2.21 -1.15,-1.5 -3.53,-2.35 -5.59,-2.06 0.34,-1.21 0.1,-2.61 -0.65,-3.75 -0.76,-1.15 -2.04,-2.07 -3.6,-2.57 -3.44,-1.12 -7.72,0.09 -10.08,2.8 -1.65,-1.15 -4.01,-1.11 -5.59,0.12 -1.29,1 -2.36,2.69 -2.12,4.41 -1.3,-0.66 -2.88,-0.65 -4.09,0.04 -1.59,0.91 -2.38,2.95 -1.8,4.63 0.46,1.35 1.81,2.61 3.37,2.61 -0.23,0.71 -0.06,1.5 0.25,2.02 0.52,0.87 1.43,1.37 2.07,1.67 1.36,0.64 2.7,0.94 4,0.91 1.22,-0.04 2.18,-0.37 3.06,-1.06 0.68,1.51 2.51,2.14 3.3,2.35 0.8,0.21 1.64,0.33 2.5,0.35 0.12,0 0.23,0 0.35,0 2.18,0 4.35,-0.59 6.16,-1.67 2.06,1.05 4.49,1.29 6.71,0.65 2.13,-0.62 3.95,-2.05 5.14,-4.04 1.25,0.41 2.62,0.48 3.89,0.18 0.65,-0.15 1.78,-0.56 2.1,-1.59 0.18,-0.6 0.03,-1.3 -0.4,-1.87 -0.41,-0.52 -0.97,-0.86 -1.41,-1.09 z m 1.1,2.76 c -0.21,0.68 -1.07,0.98 -1.57,1.09 -1.24,0.28 -2.58,0.19 -3.76,-0.25 -0.17,-0.07 -0.36,0 -0.45,0.16 -1.09,1.96 -2.82,3.37 -4.86,3.96 -2.11,0.61 -4.42,0.36 -6.34,-0.69 -0.03,-0.02 -0.12,-0.04 -0.16,-0.04 -0.1,0 -0.15,0.02 -0.21,0.06 -2.5,1.57 -5.79,2.07 -8.61,1.33 -0.77,-0.2 -2.61,-0.84 -2.96,-2.35 -0.03,-0.13 -0.13,-0.23 -0.25,-0.27 -0.04,-0.01 -0.07,-0.02 -0.11,-0.02 -0.09,0 -0.18,0.03 -0.25,0.1 -0.89,0.83 -1.76,1.18 -3.01,1.22 -1.17,0.05 -2.4,-0.24 -3.66,-0.83 -0.55,-0.26 -1.34,-0.69 -1.75,-1.39 -0.32,-0.54 -0.4,-1.37 0.08,-1.85 0.12,-0.12 0.14,-0.3 0.06,-0.45 -0.08,-0.14 -0.25,-0.21 -0.42,-0.16 -1.39,0.41 -2.82,-0.71 -3.28,-2.03 -0.47,-1.37 0.18,-3.01 1.47,-3.76 1.25,-0.72 2.99,-0.53 4.13,0.46 0.13,0.11 0.33,0.12 0.46,0.01 0.14,-0.11 0.18,-0.3 0.11,-0.45 -0.79,-1.65 0.28,-3.51 1.6,-4.54 1.41,-1.1 3.59,-1.06 4.96,0.08 0.08,0.07 0.18,0.1 0.27,0.08 0.1,-0.01 0.19,-0.06 0.25,-0.14 2.12,-2.69 6.21,-3.91 9.5,-2.84 1.4,0.46 2.54,1.26 3.21,2.28 0.76,1.15 0.9,2.59 0.35,3.69 -0.06,0.13 -0.04,0.28 0.05,0.4 0.09,0.11 0.25,0.16 0.38,0.11 1.91,-0.55 4.37,0.19 5.49,1.65 0.38,0.5 0.35,1.66 -0.06,2.12 -0.11,0.13 -0.13,0.31 -0.03,0.45 0.1,0.14 0.27,0.2 0.43,0.14 2.41,-0.88 5.2,-0.68 7.46,0.53 0.38,0.2 0.85,0.49 1.16,0.9 0.33,0.41 0.44,0.87 0.32,1.24 z"
       fill="#eaeaea"
       id="path7" />
    <path
       d="m 696.558,28.2699 c -3.05,0 -6.11,0.31 -9.11,0.9 1.44,-4.84 -1.9,-10.43 -6.06,-12.72 -4.26,-2.35 -10.13,-1.2 -13.29,2.54 -0.69,-1.46 -2.1,-2.53 -3.69,-2.76 -1.58,-0.23 -3.22,0.38 -4.3,1.56 -2.53,-6.64 -9.85,-10.92996 -16.85,-9.80996 -7.04,1.13 -12.65,7.51996 -12.95,14.64996 -3.25,-1.77 -8.46,-1.65 -11.63,0.34 -3.88,2.43 -3.64,7.84 -3.37,9.97 -4.58,-1.3 -9.45,-1.45 -14.09,-0.45 -2.69,0.58 -6.13,1.92 -7.28,5 -0.57,1.53 -0.43,3.2 0.4,4.82 1.07,2.08 3.16,3.76 5.44,4.37 3.83,1.03 7.96,-0.16 11.04,-1.08 2.27,5.7 7.31,10.27 13.19,11.95 5.88,1.68 12.56,0.48 17.5,-3.14 3.74,4.58 9.49,7.31 15.42,7.31 0.29,0 0.58,-0.01 0.87,-0.02 6.09,-0.28 11.98,-3.56 15.45,-8.59 2.93,3.31 7.92,4.44 12.52,2.82 4.49,-1.58 7.75,-6.16 7.81,-10.92 2.84,-0.77 6.65,-1.83 9.23,-4.38 2.58,-2.55 3.63,-7.32 1.01,-10.09 -1.89,-2.02 -4.85,-2.27 -7.26,-2.27 z m 0.04,0.5 c 1.42,0 3.06,0.09 4.52,0.62 -1.45,-0.53 -3.09,-0.62 -4.52,-0.62 -0.01,0 -0.01,0 0,0 z m -9.43,-0.65 c 0.64,-4.09 -2.05,-8.77 -5.55,-10.96 3.51,2.18 6.26,6.76 5.55,10.96 z m -0.28,1.54 c 0.06,0.06 0.14,0.09 0.22,0.08 -0.15,0.03 -0.29,0.06 -0.44,0.09 0.1,-0.22 0.17,-0.45 0.24,-0.68 -0.03,0.08 -0.04,0.17 -0.07,0.26 -0.03,0.09 0,0.18 0.05,0.25 z m -18.89,-9.95 c 0.09,0.01 0.18,-0.02 0.24,-0.09 0.07,-0.08 0.14,-0.16 0.21,-0.24 -0.17,0.21 -0.35,0.42 -0.5,0.64 -0.04,-0.15 -0.08,-0.3 -0.13,-0.45 0.02,0.08 0.09,0.13 0.18,0.14 z m -0.4,-0.62 c -0.57,-1.12 -1.63,-1.98 -2.85,-2.29 1.22,0.31 2.28,1.16 2.85,2.29 z m -3.85,-2.41 c 0.14,0 0.27,0.01 0.41,0.02 -0.15,-0.01 -0.31,-0.02 -0.46,-0.01 0.01,0 0.03,-0.01 0.05,-0.01 z m -3.96,1.69 c 0.03,0.09 0.11,0.15 0.2,0.17 0.1,0.01 0.17,-0.02 0.23,-0.08 -0.1,0.13 -0.19,0.27 -0.27,0.41 -0.09,-0.3 -0.21,-0.6 -0.32,-0.89 0.06,0.12 0.12,0.25 0.16,0.39 z m -2.34,-4.23 c -2.73,-3.4 -6.94,-5.61996 -11.3,-5.81996 4.36,0.19 8.57,2.39996 11.3,5.81996 z m -14.1,-5.66996 c 0.44,-0.07 0.88,-0.12 1.31,-0.15 -0.44,0.03 -0.88,0.08 -1.31,0.15 -5.73,0.92 -10.5,5.51996 -12.02,11.03996 1.51,-5.56 6.26,-10.11996 12.02,-11.03996 z m -12.67,14.79996 c 0.08,-0.04 0.13,-0.13 0.13,-0.22 0,-0.16 0.02,-0.31 0.03,-0.47 -0.01,0.31 -0.03,0.62 -0.02,0.93 -0.12,-0.09 -0.25,-0.17 -0.38,-0.25 0.07,0.05 0.16,0.06 0.24,0.01 z m -5.81,-1.4 c 0.21,0 0.41,0.03 0.62,0.04 -1.35,-0.06 -2.73,0.08 -4,0.41 1.08,-0.29 2.23,-0.45 3.38,-0.45 z m -7.17,2.58 c -1.08,1.21 -1.67,2.82 -1.9,4.53 0.21,-1.57 0.74,-3.24 1.9,-4.53 z m -1.91,9.02 c 0.06,-0.06 0.1,-0.14 0.08,-0.23 0,-0.03 -0.01,-0.05 -0.01,-0.08 0.02,0.16 0.05,0.32 0.08,0.47 -0.12,-0.04 -0.24,-0.08 -0.37,-0.11 0.08,0.03 0.16,0.01 0.22,-0.05 z m -18.95,1.28 c -1.07,0.71 -1.95,1.66 -2.42,2.91 0.46,-1.25 1.35,-2.19 2.42,-2.91 z m 14.06,10.3 c -1.69,0.51 -3.72,1.12 -5.84,1.39 2.14,-0.27 4.22,-0.9 6.06,-1.46 0.03,0.07 0.05,0.14 0.08,0.21 -0.05,-0.12 -0.18,-0.18 -0.3,-0.14 z m 30.86,8.86 c -0.05,-0.06 -0.12,-0.09 -0.2,-0.09 -0.05,0 -0.11,0.02 -0.15,0.05 -0.5,0.37 -1.01,0.72 -1.54,1.04 0.6,-0.36 1.18,-0.76 1.73,-1.19 v -0.25 0.25 c 0.17,0.21 0.34,0.42 0.52,0.63 -0.12,-0.15 -0.25,-0.29 -0.36,-0.44 z m 2.22,2.34 c 3.74,3.33 8.77,5.17 13.8,4.95 -5.09,0.23 -10.07,-1.62 -13.8,-4.95 z m 13.81,4.95 c -0.01,0 -0.01,0 0,0 0.49,-0.02 0.99,-0.07 1.47,-0.13 -0.49,0.06 -0.98,0.1 -1.47,0.13 z m 15.63,-8.67 c -0.05,-0.06 -0.12,-0.09 -0.19,-0.09 h -0.01 c -0.07,0 -0.14,0.04 -0.19,0.1 0.06,-0.09 0.12,-0.19 0.18,-0.28 0.17,0.23 0.36,0.44 0.55,0.65 -0.12,-0.12 -0.23,-0.25 -0.34,-0.38 z m 19.67,-7.72 c 0,0.31 -0.01,0.63 -0.04,0.94 0.03,-0.38 0.04,-0.75 0.04,-1.13 0.06,-0.02 0.12,-0.03 0.17,-0.05 -0.1,0.04 -0.17,0.13 -0.17,0.24 z m 9.03,-4.91 c -2.45,2.42 -6.02,3.38 -9.16,4.23 -0.22,0.06 -0.38,0.26 -0.37,0.49 0.1,4.5 -2.9,8.85 -7.14,10.35 -4.48,1.58 -9.23,0.36 -11.83,-3.02 -0.1,-0.13 -0.27,-0.19 -0.42,-0.19 -0.16,0.01 -0.31,0.09 -0.4,0.23 -3.24,5.09 -9,8.42 -15.03,8.7 -6.03,0.28 -12.07,-2.52 -15.76,-7.29 -0.1,-0.12 -0.24,-0.19 -0.39,-0.19 -0.11,0 -0.22,0.04 -0.31,0.11 -4.74,3.66 -11.26,4.91 -17.01,3.27 -5.76,-1.65 -10.62,-6.16 -12.7,-11.78 -0.09,-0.26 -0.37,-0.39 -0.62,-0.3 -3.24,0.98 -7.28,2.19 -10.93,1.21 -2.02,-0.54 -3.86,-2.02 -4.81,-3.86 -0.49,-0.95 -0.95,-2.42 -0.35,-4.01 0.99,-2.66 4.11,-3.84 6.56,-4.37 4.75,-1.03 9.71,-0.8 14.35,0.65 0.17,0.05 0.35,0.01 0.48,-0.1 0.13,-0.11 0.19,-0.29 0.16,-0.46 -0.62,-3.47 -0.2,-7.86 2.8,-9.74 3.12,-1.96 8.51,-1.9 11.29,0.11 0.15,0.11 0.35,0.13 0.53,0.04 0.17,-0.09 0.27,-0.26 0.27,-0.45 -0.16,-6.93 5.27,-13.45 12.11,-14.54996 6.84,-1.12 14.04,3.39996 16.05,10.03996 0.06,0.19 0.22,0.33 0.42,0.35 0.21,0.03 0.39,-0.07 0.49,-0.25 0.76,-1.33 2.36,-2.1 3.88,-1.89 1.52,0.22 2.83,1.42 3.18,2.92 0.04,0.19 0.2,0.34 0.4,0.38 0.19,0.04 0.39,-0.05 0.5,-0.21 2.67,-3.89 8.42,-5.26 12.56,-2.98 4.04,2.23 7.17,7.97 5.31,12.32 -0.07,0.17 -0.05,0.37 0.07,0.52 0.12,0.15 0.31,0.21 0.49,0.17 3.2,-0.7 6.49,-1.05 9.81,-1.06 2.17,0 4.87,0.22 6.5,1.94 2.23,2.33 1.27,6.45 -0.98,8.67 z"
       fill="#eaeaea"
       id="path8" />
    <path
       d="m 1295.94,34.27 c -4.11,0 -8.22,0.39 -12.25,1.15 1.99,-6.08 -2.45,-13.12 -8.01,-16 -5.69,-2.95 -13.53,-1.47 -17.69,3.27 -0.89,-1.87 -2.77,-3.24 -4.91,-3.53 -2.12,-0.29 -4.33,0.5 -5.75,2.04 -3.31,-8.37 -13.06,-13.78999 -22.41,-12.38999 -9.39,1.41999 -16.86,9.46999 -17.19,18.42999 -4.3,-2.28 -11.29,-2.14 -15.53,0.36 -5.21,3.07 -4.81,9.96 -4.45,12.55 -6.13,-1.66 -12.64,-1.86 -18.86,-0.59 -3.56,0.72 -8.12,2.39 -9.65,6.23 -0.76,1.91 -0.57,3.98 0.53,6 1.42,2.6 4.18,4.68 7.19,5.45 5.11,1.29 10.64,-0.22 14.74,-1.38 3,7.16 9.71,12.9 17.56,15.02 7.84,2.12 16.75,0.59 23.32,-3.98 4.97,5.77 12.63,9.2 20.54,9.2 0.38,0 0.77,-0.01 1.15,-0.02 8.13,-0.35 15.99,-4.5 20.58,-10.84 3.88,4.19 10.52,5.64 16.66,3.59 5.97,-1.98 10.3,-7.72 10.36,-13.69 3.78,-0.96 8.88,-2.29 12.32,-5.5 2.03,-1.89 3.32,-4.71 3.36,-7.38 0.03,-2.07 -0.66,-3.87 -2.01,-5.21 -2.49,-2.47 -6.41,-2.78 -9.6,-2.78 z m 7.93,15.02 c -3.41,3.17 -8.55,4.47 -12.29,5.42 -0.11,0.03 -0.19,0.13 -0.19,0.24 0.03,5.83 -4.19,11.47 -10.02,13.41 -6.06,2.01 -12.63,0.54 -16.34,-3.68 -0.05,-0.06 -0.12,-0.08 -0.2,-0.08 -0.08,0 -0.15,0.04 -0.19,0.11 -4.48,6.36 -12.29,10.53 -20.38,10.88 -8.24,0.34 -16.33,-3.14 -21.43,-9.18 -0.05,-0.06 -0.12,-0.09 -0.19,-0.09 -0.05,0 -0.1,0.01 -0.14,0.05 -6.47,4.58 -15.31,6.13 -23.08,4.03 -7.77,-2.1 -14.41,-7.82 -17.31,-14.93 -0.05,-0.12 -0.18,-0.18 -0.3,-0.15 -4.06,1.15 -9.63,2.73 -14.7,1.44 -2.89,-0.73 -5.52,-2.72 -6.88,-5.2 -1.03,-1.88 -1.2,-3.81 -0.5,-5.58 1.44,-3.63 5.84,-5.22 9.28,-5.92 6.27,-1.28 12.84,-1.04 19,0.68 0.08,0.03 0.17,0 0.23,-0.05 0.06,-0.06 0.09,-0.14 0.08,-0.23 -0.34,-2.14 -1.06,-9.35 4.15,-12.43 4.22,-2.49 11.27,-2.56 15.38,-0.16 0.08,0.04 0.17,0.05 0.25,0 0.08,-0.04 0.13,-0.13 0.13,-0.21 0.11,-8.89 7.48,-16.96 16.77,-18.35999 9.27,-1.4 18.94,4.07999 22.02,12.45999 0.03,0.08 0.11,0.15 0.19,0.16 0.09,0.01 0.18,-0.02 0.24,-0.09 1.29,-1.61 3.48,-2.47 5.57,-2.18 2.1,0.29 3.93,1.7 4.67,3.6 0.03,0.08 0.11,0.14 0.19,0.16 0.09,0.01 0.18,-0.02 0.23,-0.09 3.94,-4.81 11.72,-6.36 17.33,-3.45 5.49,2.85 9.87,9.87 7.63,15.79 -0.03,0.08 -0.02,0.18 0.04,0.25 0.06,0.07 0.15,0.1 0.24,0.08 4.13,-0.81 8.36,-1.22 12.63,-1.22 3.04,0 6.84,0.3 9.22,2.66 1.25,1.24 1.9,2.92 1.87,4.84 -0.04,2.53 -1.26,5.22 -3.2,7.02 z"
       fill="#eaeaea"
       id="path9" />
    <path
       d="m 1295.94,34.8899 c -4.42,0 -8.84,0.46 -13.14,1.34 -0.02,0 -0.06,0 -0.1,-0.08 2.61,-5.73 -1.72,-13.27 -7.33,-16.18 -5.76,-2.98 -13.77,-1.19 -17.49,3.92 -0.02,0.02 -0.06,0.04 -0.09,0.03 -0.03,-0.01 -0.06,-0.03 -0.06,-0.05 -0.52,-2.1 -2.47,-3.78 -4.73,-4.09 -2.25,-0.31 -4.63,0.78 -5.76,2.64 -0.02,0.03 -0.05,0.04 -0.09,0.04 -0.03,0 -0.06,-0.02 -0.07,-0.05 -2.76,-8.58 -12.64,-14.41002 -22.04,-12.98002 -9.39,1.42002 -16.86,9.86002 -16.63,18.82002 0,0.02 -0.02,0.04 -0.04,0.06 -0.03,0.02 -0.07,0.02 -0.1,-0.01 -3.88,-2.64 -11.36,-2.72 -15.69,-0.16 -4.25,2.51 -4.85,8.26 -4.02,12.85 -0.02,0.02 -0.06,0.03 -0.09,0.02 -6.27,-1.85 -12.99,-2.13 -19.41,-0.83 -3.4,0.69 -7.75,2.27 -9.16,5.83 -0.87,2.2 -0.21,4.2 0.5,5.5 1.34,2.44 3.93,4.41 6.77,5.13 5.02,1.27 10.49,-0.28 14.9,-1.53 0.04,-0.01 0.09,0.01 0.1,0.04 2.83,7.21 9.46,13 17.31,15.12 7.84,2.12 16.72,0.51 23.18,-4.19 0.03,-0.03 0.1,-0.02 0.12,0.01 4.81,5.85 12.53,9.38 20.37,9.38 0.37,0 0.74,-0.01 1.12,-0.02 8.22,-0.36 16.07,-4.64 20.49,-11.17 0.01,-0.02 0.04,-0.03 0.05,-0.04 0.04,0 0.09,0.02 0.1,0.03 3.62,4.43 10.22,6.03 16.42,3.97 5.89,-1.96 10.06,-7.65 9.91,-13.53 0,-0.03 0.02,-0.05 0.06,-0.06 4.26,-1.08 9.09,-2.3 12.47,-5.45 1.92,-1.78 3.13,-4.44 3.17,-6.93 0.03,-1.9 -0.61,-3.55 -1.84,-4.78 -2.36,-2.3 -6.11,-2.6 -9.16,-2.6 z m 7.47,13.95 c -3.29,3.06 -8.05,4.26 -12.25,5.33 -0.26,0.06 -0.44,0.3 -0.44,0.56 0.14,5.67 -3.89,11.16 -9.57,13.04 -6,1.99 -12.38,0.46 -15.87,-3.81 -0.12,-0.15 -0.32,-0.21 -0.48,-0.21 -0.19,0.01 -0.36,0.1 -0.46,0.26 -4.33,6.41 -12.03,10.6 -20.1,10.95 -8.04,0.36 -16.14,-3.17 -21.08,-9.18 -0.11,-0.14 -0.28,-0.21 -0.46,-0.21 -0.13,0 -0.25,0.04 -0.35,0.11 -6.33,4.62 -15.05,6.19 -22.75,4.11 -7.7,-2.08 -14.2,-7.76 -16.98,-14.82 -0.11,-0.28 -0.43,-0.42 -0.72,-0.34 -4.33,1.23 -9.73,2.75 -14.62,1.52 -2.71,-0.69 -5.19,-2.56 -6.46,-4.88 -0.66,-1.2 -1.27,-3.06 -0.47,-5.07 1.33,-3.36 5.52,-4.86 8.8,-5.53 6.35,-1.29 12.97,-1.01 19.17,0.82 0.19,0.06 0.4,0.01 0.55,-0.11 0.16,-0.13 0.23,-0.33 0.2,-0.53 -0.82,-4.38 -0.27,-9.9 3.76,-12.28 4.19,-2.47 11.41,-2.4 15.16,0.14 0.17,0.13 0.41,0.14 0.61,0.04 0.2,-0.1 0.32,-0.3 0.32,-0.51 -0.22,-8.72 7.05,-16.94 16.21,-18.32002 9.16,-1.39 18.8,4.28002 21.49,12.64002 0.07,0.22 0.26,0.37 0.49,0.39 0.23,0.03 0.45,-0.08 0.57,-0.27 1.03,-1.69 3.21,-2.69 5.27,-2.4 2.06,0.28 3.83,1.81 4.31,3.71 0.05,0.21 0.23,0.38 0.46,0.42 0.22,0.04 0.45,-0.05 0.58,-0.23 3.58,-4.92 11.3,-6.64 16.85,-3.77 5.42,2.81 9.61,10.05 7.11,15.53 -0.09,0.2 -0.05,0.43 0.09,0.59 0.14,0.16 0.35,0.23 0.57,0.19 4.27,-0.88 8.66,-1.33 13.09,-1.33 2.91,0 6.53,0.28 8.74,2.47 1.14,1.13 1.72,2.65 1.69,4.41 -0.06,2.36 -1.22,4.88 -3.03,6.57 z"
       fill="#eaeaea"
       id="path10" />
    <path
       d="m 343.602,67.1399 c -3.51,-1.14 -7.18,-0.98 -10.64,0.46 0.2,-2.39 0.39,-8.49 -2.54,-11.25 -2.39,-2.25 -6.3,-2.43 -8.81,-0.49 -0.24,-8.04 -4.49,-15.25 -9.83,-16.53 -2.04,-0.49 -4.19,-0.09 -6.21,1.16 -3.03,1.88 -5.47,5.52 -6.6,9.83 -0.83,-1.26 -2.06,-1.9 -3.25,-1.63 -1.19,0.26 -2.25,1.41 -2.79,2.99 -1.26,-2.14 -3.1,-3.59 -5.13,-4.01 -1.76,-0.36 -3.52,0.09 -4.97,1.28 -3.15,2.6 -5.67,8.92 -4.57,14.38 -2.25,-0.66 -4.55,-0.99 -6.86,-1 -1.82,0 -4.09,0.29 -5.54,2.59 -1.96,3.1 -1.17,8.46 0.76,11.32 1.96,2.9 4.84,4.11 7,4.99 0.04,5.39 2.51,10.58 5.92,12.39 3.5,1.85 7.27,0.62 9.52,-3.07 2.64,5.64 7.08,9.32 11.69,9.6401 0.22,0.01 0.44,0.02 0.66,0.02 4.5,0 8.85,-3.0601 11.69,-8.2201 3.76,4.06 8.81,5.39 13.27,3.48 4.46,-1.91 8.27,-7.08 9.99,-13.51 2.34,1.05 5.45,2.36 8.35,1.19 1.74,-0.7 3.33,-2.6 4.14,-4.96 0.62,-1.81 0.72,-3.67 0.3,-5.38 -0.88,-3.49 -3.5,-5.01 -5.55,-5.67 z m -11.1,1.24 c 0.01,-0.06 0.01,-0.12 0.02,-0.19 0,0 0,0 0.01,0 0.07,0.05 0.17,0.06 0.25,0.03 3.46,-1.54 7.15,-1.75 10.67,-0.61 0.88,0.29 1.88,0.74 2.78,1.46 -0.88,-0.67 -1.84,-1.11 -2.7,-1.39 -1.52,-0.49 -3.07,-0.74 -4.61,-0.74 -2.17,0 -4.33,0.48 -6.41,1.44 -0.01,0.01 -0.01,0.01 -0.01,0 z m -2.65,-11.86 c -1.14,-0.91 -2.63,-1.42 -4.17,-1.42 -0.08,0 -0.17,0 -0.25,0 -1.42,0.05 -2.75,0.53 -3.76,1.35 2.23,-1.93 5.87,-1.89 8.18,0.07 z m -8.61,0.09 c 0.01,0 0.02,0.01 0.03,0.01 0.07,0.03 0.15,0.03 0.21,-0.01 -0.08,0.07 -0.17,0.15 -0.25,0.23 0.01,-0.07 0.01,-0.15 0.01,-0.23 z m -15.4,-15.69 c 1.38,-0.85 2.82,-1.29 4.23,-1.29 0.54,0 1.07,0.06 1.6,0.19 1.04,0.25 2.04,0.75 2.97,1.45 -0.92,-0.66 -1.89,-1.13 -2.91,-1.38 -2.02,-0.49 -4.13,-0.07 -6.12,1.19 -0.24,0.15 -0.47,0.31 -0.7,0.48 0.3,-0.22 0.61,-0.44 0.93,-0.64 z m -6.74,10.32 c 0.04,0 0.07,-0.02 0.1,-0.04 -0.02,0.11 -0.05,0.21 -0.07,0.32 -0.04,-0.1 -0.09,-0.2 -0.14,-0.3 0.04,0.02 0.08,0.02 0.11,0.02 z m -3.27,-2.06 c 0.71,-0.16 1.45,0.09 2.08,0.66 -0.5,-0.41 -1.08,-0.64 -1.66,-0.64 -0.16,0 -0.31,0.02 -0.47,0.05 -0.36,0.08 -0.71,0.25 -1.02,0.49 0.33,-0.28 0.7,-0.48 1.07,-0.56 z m -2.79,3.4 c 0.03,0 0.06,-0.01 0.09,-0.03 -0.02,0.1 -0.04,0.2 -0.06,0.3 -0.04,-0.09 -0.09,-0.19 -0.14,-0.28 0.04,0.01 0.08,0.01 0.11,0.01 z m -6.41,-4.53 c 0.36,0 0.72,0.04 1.08,0.11 0.91,0.19 1.77,0.59 2.56,1.19 -0.73,-0.53 -1.54,-0.91 -2.38,-1.1 -1.46,-0.34 -2.93,-0.08 -4.21,0.72 0.91,-0.59 1.91,-0.92 2.95,-0.92 z m -3.47,1.29 c 0.12,-0.1 0.26,-0.18 0.39,-0.27 -0.14,0.09 -0.27,0.18 -0.41,0.29 0,-0.01 0.01,-0.01 0.02,-0.02 z m -11.73,13.5 c 2.38,0 4.77,0.37 7.1,1.1 0.09,0.03 0.18,0 0.25,-0.06 0.01,-0.01 0.01,-0.01 0.02,-0.02 0.02,0.06 0.03,0.12 0.05,0.18 0,0.02 0.01,0.03 0,0.05 -2.43,-0.78 -4.92,-1.18 -7.44,-1.19 -1.29,0 -2.82,0.15 -4.07,1.09 1.23,-0.99 2.77,-1.15 4.09,-1.15 z m 2.57,18.02 c -0.01,-0.01 -0.02,-0.01 -0.04,-0.02 -1.29,-0.52 -2.88,-1.16 -4.36,-2.24 1.42,1 2.96,1.62 4.38,2.19 0.01,0 0.02,0.03 0.02,0.07 z m 5.77,12.32 c -0.4,-0.21 -0.79,-0.48 -1.17,-0.79 0.34,0.27 0.69,0.5 1.06,0.69 1.63,0.87 3.36,1.05 4.97,0.54 0.91,-0.29 1.76,-0.79 2.52,-1.49 -2.06,2 -4.76,2.43 -7.38,1.05 z m 9.31,-3.42 c -0.03,0 -0.05,0 -0.07,0.01 0.03,-0.05 0.06,-0.1 0.08,-0.15 0.02,0.05 0.04,0.1 0.07,0.15 -0.03,-0.01 -0.04,-0.02 -0.08,-0.01 z m 11.7,9.93 c -2.09,-0.14 -4.14,-1.01 -6,-2.47 1.85,1.41 3.9,2.25 5.99,2.4 2.94,0.22 5.85,-0.97 8.33,-3.22 -2.47,2.29 -5.4,3.48 -8.32,3.29 z m 12.27,-8.38 c -0.01,0 -0.02,0 -0.03,0 -0.02,0 -0.03,0 -0.04,0.01 0.02,-0.04 0.04,-0.08 0.06,-0.11 0.03,0.04 0.07,0.08 0.1,0.12 -0.03,-0.01 -0.06,-0.02 -0.09,-0.02 z m 13.12,3.7 c -3.66,1.57 -7.75,0.84 -11.12,-1.87 3.4,2.68 7.51,3.38 11.21,1.78 0.97,-0.42 1.91,-0.99 2.8,-1.7 -0.91,0.76 -1.88,1.36 -2.89,1.79 z m 18.35,-12.33 c -2.81,1.13 -5.94,-0.27 -8.22,-1.3 -0.03,-0.01 -0.07,-0.02 -0.1,-0.02 -0.03,0 -0.06,0 -0.08,0.01 0.01,-0.04 0.02,-0.07 0.03,-0.11 2.5,1.13 5.6,2.49 8.47,1.33 0.45,-0.18 0.89,-0.45 1.31,-0.79 -0.45,0.39 -0.93,0.69 -1.41,0.88 z m 3.52,-4.92 c -0.72,2.09 -2.1,3.76 -3.61,4.38 -2.71,1.09 -5.74,-0.27 -8.17,-1.37 -0.1,-0.05 -0.22,-0.06 -0.33,-0.01 -0.13,0.06 -0.22,0.18 -0.26,0.34 -1.57,6.38 -5.25,11.5 -9.59,13.36 -4.31,1.85 -9.19,0.44 -12.75,-3.69 -0.19,-0.22 -0.54,-0.17 -0.68,0.1 -2.79,5.39 -7.32,8.55 -11.84,8.24 -4.53,-0.31 -8.86,-4.08 -11.31,-9.85 -0.07,-0.17 -0.21,-0.27 -0.4,-0.28 -0.15,0.01 -0.29,0.11 -0.36,0.25 -1.02,1.99 -2.52,3.38 -4.24,3.92 -1.49,0.47 -3.07,0.29 -4.59,-0.51 -3.21,-1.7 -5.48,-6.65 -5.4,-11.79 0,-0.24 -0.12,-0.44 -0.3,-0.52 -2.37,-0.96 -5.05,-2.04 -6.9,-4.78 -1.72,-2.55 -2.46,-7.28 -0.75,-9.98 1.22,-1.93 3.23,-2.18 4.88,-2.18 2.47,0 4.95,0.41 7.36,1.2 0.18,0.06 0.38,-0.03 0.48,-0.21 0.08,-0.14 0.09,-0.32 0.05,-0.48 -1.42,-4.98 0.95,-11.54 4.02,-14.07 1.29,-1.07 2.87,-1.46 4.44,-1.09 2.04,0.47 3.83,2.1 4.92,4.48 0.1,0.21 0.29,0.3 0.49,0.25 0.17,-0.05 0.29,-0.21 0.33,-0.42 0.27,-1.71 1.24,-3.08 2.37,-3.32 1.1,-0.24 2.27,0.64 2.84,2.13 0.08,0.21 0.27,0.33 0.46,0.3 0.18,-0.03 0.32,-0.19 0.36,-0.4 0.91,-4.48 3.27,-8.31 6.32,-10.26 1.87,-1.19 3.85,-1.58 5.73,-1.13 5.16,1.24 9.25,8.66 9.13,16.54 0,0.19 0.07,0.36 0.2,0.46 0.17,0.13 0.4,0.1 0.53,-0.05 0.96,-1.04 2.41,-1.66 3.98,-1.72 1.65,-0.07 3.29,0.52 4.43,1.59 2.28,2.14 2.6,7.15 2.13,11.12 -0.02,0.16 0.02,0.33 0.11,0.44 0.12,0.16 0.32,0.21 0.49,0.13 3.48,-1.63 7.21,-1.89 10.77,-0.73 1.83,0.59 4.18,1.94 4.93,4.96 0.45,1.86 0.1,3.55 -0.27,4.65 z"
       fill="#eaeaea"
       id="path11" />
    <path
       d="m 218.846,177.7 c -0.89,-0.15 -1.95,-0.32 -2.79,-0.46 -5.15,-9.83 -11.54,-19.03 -18.91,-27.31 -5.21,-5.85 -10.91,-11.24 -17.04,-16.1 -6.51,-5.17 -13.72,-10.12 -21.92,-12.07 -4.16,-0.99 -8.42,-1 -12.55,0.11 -3.95,1.06 -7.65,2.84 -11.5,4.22 -3.62,1.3 -7.46,2.22 -11.33,1.72 -3.92,-0.5 -7.45,-2.39 -10.67,-4.61 -3.49,-2.41 -6.8,-5.1 -10.24,-7.61 -3.4598,-2.52 -6.9798,-4.97 -10.5898,-7.28 -7.28,-4.66 -14.95,-8.7799 -23.11,-11.6699 -15.41,-5.46 -33.24,-6.37 -48.02,1.47 -1.31,0.69 -2.46,-1.29 -1.16,-1.98 1.81,-0.96 3.67,-1.81 5.58,-2.55 15.78,-6.06 33.66,-3.71 48.94,2.67 8.04,3.36 15.6,7.7599 22.81,12.6399 3.6698,2.48 7.2598,5.09 10.7998,7.75 3.36,2.53 6.64,5.27 10.42,7.16 3.85,1.91 7.92,2.27 12.08,1.27 4.02,-0.97 7.77,-2.78 11.64,-4.2 3.92,-1.45 7.97,-2.36 12.17,-2.12 4.15,0.24 8.14,1.41 11.93,3.06 7.69,3.34 14.52,8.65 20.82,14.1 6.02,5.21 11.57,10.95 16.59,17.13 6.21,7.63 11.6,15.91 16.05,24.66 z"
       fill="#ef3f69"
       id="path12"
       style="fill:#d97706;fill-opacity:1" />
    <path
       d="m 181.527,81.3301 c 0,0 -1.4,-19.6 -14.7,-17.5 0,0 -4.2,16.1 14.7,17.5 z"
       fill="#ef3f69"
       id="path13"
       style="fill:#d97706;fill-opacity:1" />
    <path
       d="m 113.827,109.06 c 0,0 10.61,-9.4401 3.54,-16.1301 0,-0.01 -11.07,4.69 -3.54,16.1301 z"
       fill="#ef3f69"
       id="path14"
       style="fill:#d97706;fill-opacity:1" />
    <path
       d="m 217.463,124.16 c 0,0 -7.57,-8.24 -12.76,-2.59 0.01,0 3.84,8.66 12.76,2.59 z"
       fill="#ef3f69"
       id="path15"
       style="fill:#d97706;fill-opacity:1" />
    <path
       d="m 206.18,168.35 c 0,0 5.4,-18.57 25.56,-10.71 -0.01,0 -7.06,23.39 -25.56,10.71 z"
       fill="#ef3f69"
       id="path16"
       style="fill:#d97706;fill-opacity:1" />
    <path
       d="m 1900.32,98.1101 c -14.78,-7.84 -32.62,-6.93 -48.02,-1.47 -8.16,2.89 -15.83,7.0099 -23.11,11.6699 -3.61,2.31 -7.13,4.76 -10.59,7.28 -3.44,2.51 -6.75,5.2 -10.25,7.61 -3.21,2.22 -6.74,4.11 -10.66,4.61 -3.87,0.5 -7.71,-0.42 -11.34,-1.72 -3.84,-1.38 -7.54,-3.16 -11.49,-4.22 -4.13,-1.11 -8.39,-1.1 -12.55,-0.11 -8.2,1.95 -15.41,6.9 -21.92,12.07 -6.13,4.86 -11.84,10.25 -17.04,16.1 -7.11,7.97 -13.29,16.8 -18.35,26.22 l -2.75,0.39 c 4.33,-8.33 9.51,-16.2 15.45,-23.5 5.02,-6.18 10.57,-11.92 16.59,-17.13 6.3,-5.45 13.12,-10.76 20.81,-14.1 3.79,-1.65 7.79,-2.82 11.93,-3.06 4.21,-0.24 8.25,0.67 12.18,2.12 3.87,1.42 7.62,3.23 11.64,4.2 4.16,1 8.23,0.64 12.08,-1.27 3.78,-1.89 7.06,-4.63 10.41,-7.16 3.55,-2.66 7.13,-5.27 10.81,-7.75 7.21,-4.88 14.76,-9.2799 22.81,-12.6399 15.28,-6.38 33.16,-8.73 48.94,-2.67 1.91,0.74 3.77,1.59 5.57,2.55 1.31,0.69 0.15,2.67 -1.15,1.98 z"
       fill="#ef3f69"
       id="path17"
       style="fill:#d97706;fill-opacity:1" />
    <path
       d="m 1760.74,106.62 c 0,0 2.01,-28.1201 21.09,-25.1101 0,0.01 6.03,23.1001 -21.09,25.1101 z"
       fill="#ef3f69"
       id="path18"
       style="fill:#d97706;fill-opacity:1" />
    <path
       d="m 1802.84,73.8199 c 0,0 -10.61,-9.44 -3.54,-16.13 0,0 11.07,4.69 3.54,16.13 z"
       fill="#ef3f69"
       id="path19"
       style="fill:#d97706;fill-opacity:1" />
    <path
       d="m 1729.07,108.08 c 0,0 7.57,-8.2399 12.76,-2.59 0,-0.01 -3.83,8.66 -12.76,2.59 z"
       fill="#ef3f69"
       id="path20"
       style="fill:#d97706;fill-opacity:1" />
    <path
       d="m 1724.79,153.28 c 0,0 -5.4,-18.57 -25.56,-10.71 0,0 7.05,23.4 25.56,10.71 z"
       fill="#ef3f69"
       id="path21"
       style="fill:#d97706;fill-opacity:1" />
    <path
       d="m 57.6641,156.29 c 7.18,11.43 13.65,23.32 19.36,35.58 0.01,-0.03 0.02,-0.05 0.03,-0.08 11.57,-20.77 26.5599,-39.42 44.3399,-55.2 -9.51,-2.41 -18.47,-9.35 -26.7699,-15.29 -1.93,-1.38 -3.9,-2.71 -5.89,-4.02 -12.39,11.27 -22.86,24.39 -31.07,39.01 z"
       fill="#db1d41"
       id="path22"
       style="fill:#b45309;fill-opacity:1" />
    <path
       d="m 50.5919,145.5 c 0.46,0.29 0.92,0.56 1.38,0.85 0.65,0.41 0.65,1.15 0.31,1.65 1.36,2.02 2.69,4.06 4,6.11 8.12,-14.23 18.39,-27.06 30.48,-38.1 -9.65,-6.16 -19.89,-11.41 -30.54,-15.62 -13.09,-5.1799 -27.45,-8.8299 -41.21,-5.8199 -2,0.44 -3.94,1.02 -5.84002,1.72 C 24.5919,111.29 38.4619,127.79 50.5919,145.5 Z"
       fill="#db1d41"
       id="path23"
       style="fill:#b45309;fill-opacity:1" />
    <path
       d="m -26.0177,155.28 c 30.11998,-2.26 60.43,2.38 88.5,13.52 -4.23,-7.39 -8.75,-14.6 -13.55,-21.63 -19.44,-12.06 -39.82002,-22.51 -60.99,-31.2 -1.35,-0.55 -0.76,-2.77 0.61,-2.21 19.75998,8.11 38.85,17.72 57.14,28.75 -11.51,-16.23 -24.51,-31.41 -38.84002,-45.29 -15.38,6.7 -26.81998,21.8 -31.25998,38.22 -1.81,6.72 -2.61,13.61 -2.6,20.53 0.17,-0.36 0.5,-0.65 0.99,-0.69 z"
       fill="#db1d41"
       id="path24"
       style="fill:#b45309;fill-opacity:1" />
    <path
       d="m 1843.44,191.8 c 0.01,0.03 0.02,0.05 0.03,0.08 5.71,-12.27 12.18,-24.15 19.36,-35.58 -8.21,-14.62 -18.67,-27.74 -31.08,-39 -1.99,1.3 -3.95,2.63 -5.89,4.02 -8.3,5.94 -17.26,12.88 -26.77,15.29 17.79,15.76 32.78,34.42 44.35,55.19 z"
       fill="#db1d41"
       id="path25"
       style="fill:#b45309;fill-opacity:1" />
    <path
       d="m 1946.52,157.57 c -30.48,-2.28 -61.07,2.52 -89.38,14.02 -0.27,0.11 -0.52,0.11 -0.72,0.03 -4.24,7.57 -12.05,25.59 -15.77,33.8 -0.15,0.32 -0.45,0.53 -0.8,0.57 -0.7,0.07 -1.24,-0.58 -1.05,-1.26 0.73,-2.53 3.72,-10.77 3.95,-11.28 -0.45,0.15 -0.98,0.05 -1.28,-0.5 -11.66,-20.93 -26.79,-39.65 -44.79,-55.46 -0.12,-0.11 -0.21,-0.22 -0.27,-0.34 -3.04,0.48 -6.14,0.45 -9.29,-0.26 -5.87,-1.33 -11.32,-5.03 -17.33,-4.68 -4.55,0.26 -8.62,2.83 -12.36,5.43 -9.86,6.84 -21.06,16.04 -31.68,26.01 -7.87,7.38 -17.84,12.11 -28.53,13.6 -34.73,4.83 -78.05,10.47 -118.22,15.38 -91.91,11.23 -406.47,13.28 -587.234,16.34 -36.29,0.62 -140.7,-10.91 -240.77,-11.74 -52.98,-0.44 -100.95,-3.43 -152.77,1.02 -95.15,8.17 -124.34,-15.62 -167.15,-12.25 -92.78,7.29 -166.01,-0.79 -208.19,-7.6 -9.71,-1.57 -18.73,-6.01 -25.87,-12.79 -11.29,-10.72 -23.41,-20.67 -33.93,-27.97 -3.75,-2.6 -7.81,-5.16 -12.36,-5.43 -6.01,-0.35 -11.45,3.35 -17.33,4.68 -3.15,0.71 -6.25,0.74 -9.29,0.26 -0.06,0.12 -0.14,0.23 -0.27,0.34 -18,15.81 -33.1304,34.53 -44.7904,55.46 -0.3,0.54 -0.83,0.65 -1.28,0.5 0.01,0.03 6.7,15.8 6.76,16.75 0.06,0.9 -1.18,1.22 -1.58,0.4 -3.52,-7.33 -15.51,-33 -18.85,-38.98 -0.2,0.08 -0.44,0.08 -0.72,-0.03 -28.32,-11.5 -58.90998,-16.3 -89.38,-14.02 -0.49,0.04 -0.81,-0.2 -0.98,-0.52 0.16,12.53 5.14,29.14 9.21,41.05 h 0.38 l 8.68003,46.65 v 27.77 H 1921.93 l 16.46,-73.9 -0.11,-0.51 c 4.08,-11.91 9.05,-28.52 9.21,-41.05 -0.16,0.32 -0.48,0.55 -0.97,0.51 z M 155.946,194.49 c -6.45,-6.76 -7.79,-17.62 -8.53,-26.54 -0.89,-10.8 0.3,-21.65 3.31,-32.05 0.41,-1.42 2.62,-0.81 2.21,0.61 -2.7,9.32 -3.9,18.96 -3.41,28.65 0.45,8.92 1.56,20.91 8.04,27.7 1.03,1.08 -0.6,2.7 -1.62,1.63 z m 54.66,-13.93 c -0.01,0 -0.01,0 0,0 -9.59,7.6 -22.31,4.39 -30.67,-3.41 -7.77,-7.25 -14.87,-19.99 -8.4,-30.19 0.79,-1.25 2.77,-0.09 1.98,1.16 -5.68,8.95 0.62,20.05 7.2,26.59 7.37,7.33 19.3,11.33 28.26,4.23 0.22,-0.17 0.67,-0.69 1.04,-0.56 0.16,0.05 0.32,0.11 0.46,0.18 0.76,0.38 0.8,1.47 0.13,2 z m 1529.974,-3.41 c -7.94,7.4 -19.8,10.67 -29.18,4.49 -0.5,-0.33 -0.63,-1.02 -0.31,-1.52 0,-0.01 0.01,-0.01 0.01,-0.02 0.34,-0.52 1.03,-0.69 1.55,-0.34 8.82,5.95 20.08,1.99 27.15,-5.04 6.58,-6.54 12.87,-17.65 7.2,-26.59 -0.79,-1.25 1.19,-2.4 1.98,-1.16 6.46,10.18 -0.63,22.93 -8.4,30.18 z m 32.51,-9.19 c -0.74,8.92 -2.08,19.78 -8.53,26.54 -1.02,1.07 -2.64,-0.55 -1.62,-1.62 6.48,-6.79 7.59,-18.78 8.04,-27.7 0.49,-9.7 -0.71,-19.34 -3.41,-28.65 -0.41,-1.42 1.8,-2.03 2.21,-0.61 3.01,10.39 4.2,21.23 3.31,32.04 z"
       fill="#db1d41"
       id="path26"
       style="fill:#b45309;fill-opacity:1" />
    <path
       d="m 1864.21,154.1 c 1.31,-2.05 2.64,-4.09 4,-6.11 -0.33,-0.5 -0.34,-1.24 0.31,-1.65 0.46,-0.29 0.92,-0.56 1.38,-0.85 12.13,-17.71 26,-34.21 41.41,-49.2199 -1.89,-0.7 -3.84,-1.29 -5.84,-1.72 -13.76,-3.01 -28.11,0.64 -41.21,5.8199 -10.65,4.21 -20.88,9.46 -30.54,15.62 12.11,11.05 22.37,23.89 30.49,38.11 z"
       fill="#db1d41"
       id="path27"
       style="fill:#b45309;fill-opacity:1" />
    <path
       d="m 1874.79,142.5 c 18.28,-11.03 37.37,-20.63 57.14,-28.75 1.36,-0.56 1.96,1.66 0.61,2.21 -21.17,8.69 -41.55,19.14 -60.99,31.2 -4.8,7.03 -9.32,14.24 -13.55,21.63 28.07,-11.13 58.38,-15.77 88.5,-13.52 0.5,0.04 0.82,0.33 0.98,0.69 0.01,-6.92 -0.79,-13.81 -2.6,-20.53 -4.43,-16.43 -15.88,-31.53 -31.26,-38.22 -14.32,13.89 -27.32,29.06 -38.83,45.29 z"
       fill="#db1d41"
       id="path28"
       style="fill:#b45309;fill-opacity:1" />
    <path
       d="m 313.997,164.22 c -0.01,0 -0.01,0 -0.02,0 -0.11,0.26 -0.21,0.51 -0.31,0.77 0.28,0.54 -0.07,1.16 -0.53,1.35 -0.49,1.26 -0.97,2.53 -1.41,3.81 5.37,-0.1 10.74,-0.06 16.11,0.11 0.76,-2.73 1.36,-5.48 1.74,-8.23 -5.27,0.2 -10.45,0.92 -15.58,2.19 z"
       fill="#ef3f69"
       id="path29"
       style="fill:#d97706;fill-opacity:1" />
    <path
       d="m 324.937,144.33 c -3.95,5.62 -7.32,11.6 -10.07,17.84 4.92,-1.13 9.89,-1.77 14.94,-1.94 0.36,-3.36 0.43,-6.8 -0.63,-9.99 -0.78,-2.34 -2.26,-4.52 -4.24,-5.91 z"
       fill="#ef3f69"
       id="path30"
       style="fill:#d97706;fill-opacity:1" />
    <path
       d="m 311.605,165.25 c -2.73,-3.43 -5.23,-7 -7.5,-10.75 -2.23,3.37 -3.98,7.09 -5.33,10.9 -2.53,7.14 -5.5,15.43 -6.72,22.91 l 13.48,-0.93 c 1.18,-7.92 3.15,-14.72 6.07,-22.13 z"
       fill="#ef3f69"
       id="path31"
       style="fill:#d97706;fill-opacity:1" />
    <path
       d="m 305.435,153.21 c 2.11,3.52 4.43,6.89 6.95,10.12 2.92,-6.99 6.59,-13.66 10.97,-19.89 -0.47,-0.2 -0.95,-0.37 -1.45,-0.48 -3.85,-0.87 -7.78,1.14 -10.82,3.66 -2.23,1.85 -4.18,3.99 -5.89,6.33 0.08,0.05 0.17,0.14 0.24,0.26 z"
       fill="#ef3f69"
       id="path32"
       style="fill:#d97706;fill-opacity:1" />
    <path
       d="m 311.127,171.97 c -1.73,5.32 -2.9,9.98 -3.76,15.54 l 13,0.8 c 2.76,-5.05 5.2,-10.58 6.94,-16.25 -5.39,-0.17 -10.79,-0.2 -16.18,-0.09 z"
       fill="#ef3f69"
       id="path33"
       style="fill:#d97706;fill-opacity:1" />
    <path
       d="m 271.115,160.76 c -0.05,0.1 -0.11,0.18 -0.17,0.25 3.41,4.76 6.79,9.55 10.13,14.37 0.13,-0.1 0.31,-0.17 0.52,-0.17 5.06,-0.14 10.11,-0.48 15.14,-1.01 -1.32,-2.42 -2.64,-4.82 -3.99,-7.22 -0.36,-0.64 -0.76,-1.32 -1.42,-1.64 -0.75,-0.36 -1.65,-0.16 -2.44,0.11 -2.63,0.88 -5.16,2.38 -7.94,2.31 -2.77,-0.07 -5.7,-2.81 -4.58,-5.34 0.47,-1.06 1.5,-1.75 2.48,-2.38 2.06,-1.32 4.11,-2.64 6.17,-3.97 0.94,-0.6 1.98,-1.38 2.04,-2.5 0.04,-0.77 -0.42,-1.46 -0.86,-2.09 -1.87,-2.7 -3.75,-5.41 -5.68,-8.08 -3.44,5.61 -6.58,11.4 -9.4,17.36 z"
       fill="#db1d41"
       id="path34"
       style="fill:#b45309;fill-opacity:1" />
    <path
       d="m 297.667,175.9 c -0.01,0 -0.02,0.01 -0.03,0.01 -5.14,0.57 -10.28,0.92 -15.45,1.08 3.64,5.27 7.24,10.57 10.79,15.9 0.65,0.97 -0.92,1.88 -1.56,0.91 -16.4,-24.66 -33.77,-48.66 -52.07,-71.95 -1.07,1.54 -1.68,3.39 -2.13,5.23 -2.39,9.75 -1.26,20.07 1.36,29.76 4.13,15.35 11.97,29.69 22.65,41.46 l 48.14,0.18 c -3.76,-7.59 -7.67,-15.12 -11.7,-22.58 z"
       fill="#db1d41"
       id="path35"
       style="fill:#b45309;fill-opacity:1" />
    <path
       d="m 269.789,159.39 c 2.87,-6.03 6.07,-11.89 9.59,-17.57 -2.83,-3.85 -5.77,-7.61 -8.98,-11.15 -5.04,-5.55 -11.03,-10.71 -18.33,-12.39 -3.97,-0.92 -8.6,-0.55 -11.53,2.19 10.03,12.76 19.78,25.74 29.25,38.92 z"
       fill="#db1d41"
       id="path36"
       style="fill:#b45309;fill-opacity:1" />
    <path
       d="m 1426.7,148.43 2.09,-3.96 38.58,-4.73 -4.03,29.24 c 0,0 -31.48,32.37 -32.08,32.22 -0.6,-0.15 -14.32,-8.21 -14.32,-8.21 0,0 -10.74,-11.19 -8.65,-21.78 2.09,-10.59 18.41,-22.78 18.41,-22.78 z"
       fill="#fdfdfd"
       id="path37" />
    <path
       d="m 1498.77,111.92 -1.49,24.07 10.47,3.47 -52.87,64.92 -22,-13.96 13.64,-47.41 19.48,-8.65 5.25,-0.03 3.31,-19.14 z"
       fill="#ffffff"
       id="path38" />
    <path
       d="m 1450.98,71.3701 c 0.12,7.96 0.04,32.9099 1.55,36.4899 0.12,0.27 0.23,0.54 0.35,0.81 l 0.18,0.42 c 0.82,2 5.54,11.57 19.79,12.37 -0.01,0.03 -0.03,0.05 -0.03,0.08 l -2.18,12.93 c -0.06,0.36 0.18,0.69 0.54,0.75 0.03,0.01 0.06,0.01 0.08,0.01 0.32,0.01 0.61,-0.22 0.67,-0.55 l 1.19,-7.04 c 17.13,-2.12 23.29,-10.98 24.82,-13.77 l -1.31,22.19 c -0.02,0.36 0.25,0.67 0.61,0.69 h 0.01 c 0.36,0.01 0.66,-0.26 0.68,-0.62 l 1.36,-22.85 c 0.78,-0.63 -0.14,-1.36 0.62,-2.1 0.02,0.03 0.03,0.06 0.06,0.08 1.17,1.46 1.77,-1.55 2.9,-2.29 1.94,0.08 0.3,-1.45 1.85,-2.3 2.23,-1.37 1.17,-1.82 2.05,-3.19 1.9,-1.97 -0.02,1.18 5.58,-3.17 1.38,-1.0699 2.12,-1.2699 3.55,-3.8799 0.12,-3.73 1.4,-4.09 -1.17,-8.51 2.26,-5.58 8.4,-12.39 6.98,-13.79 1.49,-4.84 2.66,-9.82 -0.78,-13.61 -0.96,-1.06 -7.83,-11.82 -24.23,-18.22 -8.6,-3.36 -8.19,-5.05 -14.67,-6.82 -4.12,-1.12 -6.03,-0.06 -13.49,0.6 -8.67,0.76 -15.65,3.64 -21.52,9.26 -0.98,2.62 -1.7,6.08 -0.86,8.6 1.67,5.11 6.73,3.45 4.82,17.43 z"
       fill="#ffffff"
       id="path39" />
    <path
       d="m 1497.27,136.11 1.39,-23.45"
       stroke="#000000"
       stroke-width="1.2112"
       stroke-miterlimit="10"
       stroke-linecap="round"
       stroke-linejoin="round"
       id="path40" />
    <path
       d="m 1471.28,134.58 2.18,-12.94"
       stroke="#000000"
       stroke-width="1.4937"
       stroke-miterlimit="10"
       stroke-linecap="round"
       stroke-linejoin="round"
       id="path41" />
    <path
       d="m 1508.05,100.77 c 0,0 -2.38,6.83 -9.83,12.54 -4.21,3.23 -10.05,6.1 -17.99,7.17 -1.8,0.25 -3.49,0.37 -5.07,0.38 -15.47,0.18 -20.5,-9.59 -21.51,-12.04 -0.17,-0.41 -0.34,-0.82 -0.51,-1.23 -1.49,-3.5 -5.97,-23.5699 3.9,-45.1999 0.8,-1.75 2.78,-2.66 4.64,-2.16 13.29,3.56 17.16,6.01 39.01,0.4 4.79,-0.48 5.2,25.25 5.2,25.25 0,0 9.64,-1.84 9.99,6.67 0.36,8.7099 -9.04,10.2199 -9.04,10.2199"
       stroke="#000000"
       stroke-width="1.2112"
       stroke-miterlimit="10"
       stroke-linecap="round"
       stroke-linejoin="round"
       id="path42" />
    <path
       d="m 1472.46,127.73 c 19.09,-2.13 24.89,-12.58 25.77,-14.42 -4.21,3.23 -10.05,6.1 -17.99,7.17 -1.8,0.25 -3.49,0.37 -5.07,0.38 l -1.47,0.76 z"
       fill="#000000"
       id="path43" />
    <path
       d="m 1482.02,92.9699 c 5.19,0 9.4,-4.2085 9.4,-9.4 0,-5.1915 -4.21,-9.4 -9.4,-9.4 -5.19,0 -9.4,4.2085 -9.4,9.4 0,5.1915 4.21,9.4 9.4,9.4 z"
       stroke="#000000"
       stroke-width="1.2112"
       stroke-miterlimit="10"
       stroke-linecap="round"
       stroke-linejoin="round"
       id="path44" />
    <path
       d="m 1468.26,80.66 c 0,0 2.24,-0.48 4.47,1.48"
       stroke="#000000"
       stroke-width="1.2112"
       stroke-miterlimit="10"
       stroke-linecap="round"
       stroke-linejoin="round"
       id="path45" />
    <path
       d="m 1461.51,84.2799 c 4.39,0 7.94,-3.5549 7.94,-7.94 0,-4.3851 -3.55,-7.94 -7.94,-7.94 -4.38,0 -7.94,3.5549 -7.94,7.94 0,4.3851 3.56,7.94 7.94,7.94 z"
       stroke="#000000"
       stroke-width="1.0238"
       stroke-miterlimit="10"
       stroke-linecap="round"
       stroke-linejoin="round"
       id="path46" />
    <path
       d="m 1491.31,85 14.57,-0.02"
       stroke="#000000"
       stroke-width="1.2112"
       stroke-miterlimit="10"
       stroke-linecap="round"
       stroke-linejoin="round"
       id="path47" />
    <path
       d="m 1468.53,84.3201 -3.44,7.74"
       stroke="#000000"
       stroke-width="1.2112"
       stroke-miterlimit="10"
       stroke-linecap="round"
       stroke-linejoin="round"
       id="path48" />
    <path
       d="m 1485.48,69.9399 c 0,0 4.27,0.22 5.22,2.86"
       stroke="#000000"
       stroke-width="1.2112"
       stroke-miterlimit="10"
       stroke-linecap="round"
       stroke-linejoin="round"
       id="path49" />
    <path
       d="m 1462.89,66.1299 c -1.58,-0.51 -3.15,-0.15 -4.61,0.5"
       stroke="#000000"
       stroke-width="1.2112"
       stroke-miterlimit="10"
       stroke-linecap="round"
       stroke-linejoin="round"
       id="path50" />
    <path
       d="m 1484.15,82.9937 c 0.29,-1.7384 -0.44,-3.3072 -1.64,-3.5041 -1.19,-0.1969 -2.39,1.0526 -2.68,2.791 -0.28,1.7383 0.45,3.3072 1.64,3.5042 1.2,0.1969 2.4,-1.0528 2.68,-2.7911 z"
       fill="#000000"
       id="path51" />
    <path
       d="m 1462.74,77.2395 c 0.24,-1.4604 -0.34,-2.7733 -1.31,-2.9324 -0.96,-0.1592 -1.94,0.8957 -2.18,2.3561 -0.24,1.4604 0.34,2.7734 1.31,2.9326 0.96,0.1591 1.94,-0.8958 2.18,-2.3563 z"
       fill="#000000"
       id="path52" />
    <path
       d="m 1458.69,99.3 c 0,0 1.54,6.65 11.65,3.76"
       stroke="#000000"
       stroke-width="1.2112"
       stroke-miterlimit="10"
       stroke-linecap="round"
       stroke-linejoin="round"
       id="path53" />
    <path
       d="m 1466,134.36 9.54,13.43 36.03,-23.05 -2.38,20.52 -42.07,61.09 -21.49,-6.04 8.06,-58.19 z"
       fill="#fecc32"
       id="path54" />
    <path
       d="m 1309.95,124.22 c 0,0 -12.23,8.65 -8.35,18.95 3.88,10.29 25.51,-10 25.51,-10 z"
       fill="#db1d41"
       id="path55" />
    <path
       d="m 1370.22,96.6201 c 0,0 -13.13,-11.04 -17.9,-23.12 -4.77,-12.08 -7.31,-27.15 -15.07,-25.51 -7.76,1.64 -7.91,15.81 -6.12,20.29 1.79,4.48 5.37,17.75 24.32,26.11 z"
       fill="#fdfdfd"
       id="path56" />
    <path
       d="m 1370.22,96.6201 c 0,0 -13.13,-11.04 -17.9,-23.12 -4.77,-12.08 -7.31,-27.15 -15.07,-25.51 -7.76,1.64 -7.91,15.81 -6.12,20.29 1.79,4.48 5.37,17.75 24.32,26.11 z"
       stroke="#000000"
       stroke-width="1.2112"
       stroke-miterlimit="10"
       stroke-linecap="round"
       stroke-linejoin="round"
       id="path57" />
    <path
       d="m 1466,134.36 -10.89,70.27 -52.52,-29.24 8.06,-12.53 13.87,-18.5 z"
       fill="#fecc32"
       id="path58" />
    <path
       d="m 1448.71,188.28 c 0,0 -14.32,-17.6 -37.74,-27.15 0,0 -11.6,-5.35 -14.58,-8.93 1.64,-2.69 0.88,-1.81 -2.41,-6.43 -3.29,-4.62 -4.7,-4.31 -4.7,-4.31 l -1.29,-20.16 -19.84,-25.0599 c 0,0 -8.95,-6.86 -20.74,-1.34 -11.79,5.5199 -13.43,10.7399 -30.88,7.9099 -17.45,-2.8299 -16.56,4.18 -16.56,4.18 0,0 -5.07,8.8 9.1,19.39 14.17,10.59 24.79,16.26 28.64,26.26 7.43,19.29 7.52,21.56 7.46,45.13 l 104.13,1.49 z"
       fill="#fdfdfd"
       id="path59" />
    <path
       d="m 1449.14,198.74 -0.6,-10.97 c 0,0 -14.32,-17.6 -37.74,-27.15 0,0 -11.6,-5.35 -14.58,-8.93 1.64,-2.69 0.88,-1.81 -2.41,-6.43 -3.28,-4.62 -4.7,-4.31 -4.7,-4.31 l -1.29,-20.16 -19.84,-25.0599 c 0,0 -8.95,-6.86 -20.74,-1.34 -11.79,5.52 -13.43,10.7399 -30.88,7.9099 -17.45,-2.8299 -16.56,4.18 -16.56,4.18 0,0 -5.07,8.8 9.1,19.39 14.17,10.59 24.79,16.26 28.64,26.26 7.43,19.29 7.52,21.56 7.46,45.13"
       stroke="#000000"
       stroke-width="1.2112"
       stroke-miterlimit="10"
       stroke-linecap="round"
       stroke-linejoin="round"
       id="path60" />
    <path
       d="m 1367.98,95.73 c 0,0 4.66,-2.72 11.15,2.2 6.49,4.92 21.82,19.73 27.04,23.01 5.22,3.28 15.81,10.74 15.81,10.74 0,0 7.76,4.77 -0.75,10.44 -8.51,5.67 -15.96,4.48 -20.74,2.24 -4.77,-2.24 -16.11,-7.46 -26.56,-25.36 -10.45,-17.9 -9.38,-19.99 -5.95,-23.27 z"
       fill="#fdfdfd"
       id="path61" />
    <path
       d="m 1367.98,95.73 c 0,0 4.66,-2.72 11.15,2.2 6.49,4.92 21.82,19.73 27.04,23.01 5.22,3.28 15.81,10.74 15.81,10.74 0,0 7.76,4.77 -0.75,10.44 -8.51,5.67 -15.96,4.48 -20.74,2.24 -4.77,-2.24 -16.11,-7.46 -26.56,-25.36 -10.45,-17.9 -9.38,-19.99 -5.95,-23.27 z"
       stroke="#000000"
       stroke-width="1.2112"
       stroke-miterlimit="10"
       stroke-linecap="round"
       stroke-linejoin="round"
       id="path62" />
    <path
       d="m 1317.11,131.68 c 0,0 12.68,8.65 22.38,5.07 6.45,-2.38 12.97,-7.14 16.61,-10.06"
       stroke="#000000"
       stroke-width="1.2112"
       stroke-miterlimit="10"
       stroke-linecap="round"
       stroke-linejoin="round"
       id="path63" />
    <path
       d="m 1336.2,151.67 c 0,0 20.44,0.45 32.52,-4.18 12.08,-4.62 21.18,-7.61 21.18,-7.61 0,0 3.43,1.04 5.37,4.18 1.94,3.13 7.76,5.67 -3.88,11.93 -11.64,6.27 -34.76,18.35 -50.87,10 -4.61,-4.03 -4.32,-14.32 -4.32,-14.32 z"
       fill="#db1d41"
       id="path64" />
    <path
       d="m 1347.09,113.18 c 1.48,0 2.69,-1.204 2.69,-2.69 0,-1.486 -1.21,-2.69 -2.69,-2.69 -1.49,0 -2.69,1.204 -2.69,2.69 0,1.486 1.2,2.69 2.69,2.69 z"
       stroke="#000000"
       stroke-width="1.2112"
       stroke-miterlimit="10"
       stroke-linecap="round"
       stroke-linejoin="round"
       id="path65" />
    <path
       d="m 1359.18,127.8 c 2.39,0 4.33,-1.939 4.33,-4.33 0,-2.391 -1.94,-4.33 -4.33,-4.33 -2.39,0 -4.33,1.939 -4.33,4.33 0,2.391 1.94,4.33 4.33,4.33 z"
       stroke="#000000"
       stroke-width="1.2112"
       stroke-miterlimit="10"
       stroke-linecap="round"
       stroke-linejoin="round"
       id="path66" />
    <path
       d="m 1452.27,136.9 -12.53,28.64 9.7,-0.59 -4.93,9.7 10.89,21.48"
       stroke="#000000"
       stroke-width="1.2112"
       stroke-miterlimit="10"
       stroke-linecap="round"
       stroke-linejoin="round"
       id="path67" />
    <path
       d="m 1314.42,130.64 -10.59,13.72"
       stroke="#000000"
       stroke-width="1.2112"
       stroke-miterlimit="10"
       stroke-linecap="round"
       stroke-linejoin="round"
       id="path68" />
    <path
       d="m 1404.11,189.73 c 0.09,0.14 11.24,7.66 11.24,7.66 l 13.44,-10.05 -2,-1.39 -6.65,-2.69 -13.94,3.69 z"
       fill="#fdfdfd"
       id="path69" />
    <path
       d="m 1364.73,177.3 9.75,-1.98 9.98,-0.09 -9.51,-2.55 c -11.03,2.15 -10.43,-3.4 -10.43,-3.4 l 12.13,-1.09 11.39,1.36 -6.29,-3.44 c -9.28,-0.27 -8.94,-5.61 -8.94,-5.61 l 10.79,1.32 10.68,4.52 20.97,14.98 12.04,4.87 -43.18,-4.76 c 0,0 -10.03,-0.84 -14.8,-0.61 -4.78,0.23 -4.58,-3.52 -4.58,-3.52 z"
       fill="#fdfdfd"
       id="path70" />
    <path
       d="m 1367.76,182.96 c 0.09,-1.55 2.37,-4.66 2.37,-4.66 l 53.6,6.3 -17.56,6.48 -3.96,0.89 c -11.96,1.81 -19.56,-5.36 -19.56,-5.36 l -11.19,-1.49 c 0.01,0 -3.79,-0.6 -3.7,-2.16 z"
       fill="#fdfdfd"
       id="path71" />
    <path
       d="m 1427.28,186.19 -12.04,-4.87 -20.97,-14.98 -10.68,-4.52 -10.79,-1.32 c 0,0 -0.34,5.34 8.95,5.61 l 6.29,3.44 -11.39,-1.36 -12.13,1.09 c 0,0 -0.6,5.54 10.43,3.4 l 9.51,2.55 -9.98,0.09 -9.75,1.98 c 0,0 -0.2,3.75 4.57,3.53 4.77,-0.23 14.8,0.61 14.8,0.61"
       stroke="#000000"
       stroke-width="1.2112"
       stroke-miterlimit="10"
       stroke-linecap="round"
       stroke-linejoin="round"
       id="path72" />
    <path
       d="m 1369.31,180.82 c 0,0 -1.44,0.59 -1.53,2.14 -0.09,1.55 3.69,2.15 3.69,2.15 l 11.2,1.49 c 0,0 9.21,8.71 23.33,4.51 l 6.73,4.41"
       stroke="#000000"
       stroke-width="1.2112"
       stroke-miterlimit="10"
       stroke-linecap="round"
       stroke-linejoin="round"
       id="path73" />
    <path
       d="m 1461.67,194.04 36.4,-59.67 c 0,0 15.47,-18.68 33.42,-7.76 13.73,8.35 -1.04,34.09 -1.04,34.09 l -33.12,55.5 c 0,0 -15.66,22.6 -41.18,9.85 -25.52,-12.75 -47.81,-24.84 -47.81,-24.84 0,0 6.27,-23.5 11.19,-26.41 z"
       fill="#fecc32"
       id="path74" />
    <path
       d="m 1466.89,186.1 20.59,-34.13"
       stroke="#000000"
       stroke-width="1.2112"
       stroke-miterlimit="10"
       stroke-linecap="round"
       stroke-linejoin="round"
       id="path75" />
    <path
       d="m 1299.5,98.8601 c 0,0 -3.88,-0.15 -3.58,7.7599 0.3,7.91 9.1,1.64 9.1,1.64 0,0 4.63,-7.76 -5.52,-9.3999 z"
       fill="#000000"
       id="path76" />
    <path
       d="m 1432.58,181.06 41.77,20.59"
       stroke="#000000"
       stroke-width="1.2112"
       stroke-miterlimit="10"
       stroke-linecap="round"
       stroke-linejoin="round"
       id="path77" />
    <path
       d="m 1348.56,101.86 c 0.13,0 8.85,-1.79 13.02,3.32"
       stroke="#000000"
       stroke-width="1.2112"
       stroke-miterlimit="10"
       stroke-linecap="round"
       stroke-linejoin="round"
       id="path78" />
    <path
       d="m 481.822,122.36 c -6.85,-8.47 -4.12,-4.45 -13.49,-9.13 -1.41,-6.99 -1.41,-9.59 -3.73,-14.06 -2.48,-2.1 -3.96,-7.16 -4.58,-11.61 0.21,-5.9 0.23,-6.39 0.19,-12.57 -0.48,-2.33 0.78,-8.44 -1.74,-13.6 -1.47,-6.69 -3.67,-12.14 -5.43,-15.24 -0.59,-1.04 -3.48,-4.7 -4.32,-5.56 -2.73,-2.25 -9.88,-11.07 -22.77,-10.46 -26.3,1.71 -27.71,17.75 -27.71,17.75 l 0.14,0.08 c -11.41,5.84 -24.65,18.48 -24.15,41.82 0.44,20.4 21.2,28.98 24.81,30.33 0.87,0.32 1.66,0.83 2.26,1.54 1.34,1.57 2.64,4.77 0.44,10.79 -4.36,11.91 2.76,20.66 2.76,20.66 l 84.68,37.15 z"
       fill="#fdfdfd"
       id="path79" />
    <path
       d="m 404.729,153.44 c 0,0 -7.12,-8.76 -2.76,-20.66 2.2,-6.02 0.91,-9.21 -0.44,-10.79 -0.6,-0.7 -1.39,-1.22 -2.26,-1.54 -3.62,-1.34 -24.38,-9.93 -24.81,-30.3299 -0.58,-26.77 16.94,-39.47 29.01,-43.97"
       stroke="#000000"
       stroke-width="1.2112"
       stroke-miterlimit="10"
       stroke-linecap="round"
       stroke-linejoin="round"
       id="path80" />
    <path
       d="m 398.463,48.2201 c 0,0 -0.62,-13.52 22.63,-18.02 17.44,-3.38 33.16,12.28 36.27,25.89 7.25,31.8 -2.57,29.46 7.81,44.6399 2.59,3.79 1.47,12.61 3.96,13.06 4.51,0.81 7.66,2.34 11.44,7.03 3.78,4.69 14.56,-3.02 13.12,4.91 -1.44,7.93 -1.98,14.42 7.39,19.1 9.37,4.69 16.76,6.13 23.61,14.6"
       stroke="#000000"
       stroke-width="1.2112"
       stroke-miterlimit="10"
       stroke-linecap="round"
       stroke-linejoin="round"
       id="path81" />
    <path
       d="m 418.556,132.89 -2.29,-18.86"
       stroke="#000000"
       stroke-width="1.2112"
       stroke-miterlimit="10"
       stroke-linecap="round"
       stroke-linejoin="round"
       id="path82" />
    <path
       d="m 439.455,130.37 -2.4,-10.33"
       stroke="#000000"
       stroke-width="1.2112"
       stroke-miterlimit="10"
       stroke-linecap="round"
       stroke-linejoin="round"
       id="path83" />
    <path
       d="m 400.641,95.65 c 15.5,-5.53 14.54,-18.02 7.57,-36.4 15.02,10.57 24.51,13.34 39.41,12.74 10.6,17.78 6.22,32.69 5.14,35.72 -0.12,0.34 -0.24,0.68 -0.35,1.02 -0.7,2.03 -4.28,10.16 -16.77,10.78 -1.28,0.06 -2.64,0.05 -4.11,-0.06 -6.46,-0.48 -11.31,-2.51 -14.87,-4.9 -6.3,-4.24 -8.55,-9.63 -8.55,-9.63"
       stroke="#000000"
       stroke-width="1.2112"
       stroke-miterlimit="10"
       stroke-linecap="round"
       stroke-linejoin="round"
       id="path84" />
    <path
       d="m 409.186,106.46 c 0,0 -7.27,5.2 -10.75,-0.93 -3.48,-6.13 4.75,-10.24 4.75,-10.24"
       stroke="#000000"
       stroke-width="1.2112"
       stroke-miterlimit="10"
       stroke-linecap="round"
       stroke-linejoin="round"
       id="path85" />
    <path
       d="m 438.166,124.9 c -15.51,-0.78 -20.71,-8.93 -21.51,-10.37 3.56,2.4 8.41,4.43 14.87,4.9 1.47,0.11 2.83,0.12 4.11,0.06 l 1.22,0.54 z"
       fill="#000000"
       id="path86" />
    <path
       d="m 434.836,102.56 c 0,0 2.16,1.86 5.8,1.69 3.63,-0.17 5.19,-2.79 5.19,-2.79"
       stroke="#000000"
       stroke-width="1.2112"
       stroke-miterlimit="10"
       stroke-linecap="round"
       stroke-linejoin="round"
       id="path87" />
    <path
       d="m 443.781,86.9402 2.2,6.31"
       stroke="#000000"
       stroke-width="1.2112"
       stroke-miterlimit="10"
       stroke-linecap="round"
       stroke-linejoin="round"
       id="path88" />
    <path
       d="m 424.434,82.9702 c 0,0 -1.5,1.38 -1.44,2.58"
       stroke="#000000"
       stroke-width="1.2112"
       stroke-miterlimit="10"
       stroke-linecap="round"
       stroke-linejoin="round"
       id="path89" />
    <path
       d="m 446,74.9802 c 0,0 2.64,0.9 3.06,1.74"
       stroke="#000000"
       stroke-width="1.2112"
       stroke-miterlimit="10"
       stroke-linecap="round"
       stroke-linejoin="round"
       id="path90" />
    <path
       d="m 428.781,91.5458 c 0.953,-0.2178 1.469,-1.5205 1.151,-2.9096 -0.317,-1.3891 -1.347,-2.3387 -2.3,-2.1209 -0.953,0.2178 -1.468,1.5205 -1.151,2.9096 0.318,1.3891 1.347,2.3387 2.3,2.1209 z"
       fill="#000000"
       id="path91" />
    <path
       d="m 449.659,84.8464 c 0.576,-0.1316 0.826,-1.1855 0.559,-2.3539 -0.267,-1.1684 -0.95,-2.0088 -1.526,-1.8771 -0.577,0.1316 -0.827,1.1855 -0.56,2.3539 0.267,1.1684 0.95,2.0088 1.527,1.8771 z"
       fill="#000000"
       id="path92" />
    <path
       d="m 436.681,195.58 6.92,-33.7 18.75,-23.88 12.5,-16.52 26.11,-0.89 -9.37,61.16 -42.63,16.29 -16.07,2.01 z"
       fill="#00c2ff"
       id="path93" />
    <path
       d="m 567.404,59.3601 c 0,0 12.8,6.84 5.8,15.92 -6.99,9.08 -16.22,-4.91 -16.22,-4.91 z"
       fill="#db1d41"
       id="path94" />
    <path
       d="m 455.646,197.58 c 0,0 -10.7,-38.82 19.05,-59.65 16.37,-11.61 16.96,-19.34 16.96,-19.34 0,0 2.68,-15.47 0.89,-27.9699 -1.79,-12.5 -2.08,-32.73 9.23,-37.79 11.31,-5.06 17.56,-3.57 22.62,-1.79 5.06,1.79 11.9,4.17 23.81,-5.36 11.91,-9.53 21.13,0.6 21.13,0.6 0,0 8.03,6.25 -9.82,27.97 -9.52,13.99 -17.86,18.75 -11.9,40.1699 5.95,21.43 18.03,23.29 14.76,83.1 z"
       fill="#fdfdfd"
       id="path95" />
    <path
       d="m 455.657,197.07 c 0,0 -10.71,-38.31 19.05,-59.14 16.37,-11.61 16.96,-19.34 16.96,-19.34 0,0 2.68,-15.47 0.89,-27.9699 -1.79,-12.5 -2.08,-32.73 9.23,-37.79 11.31,-5.06 17.56,-3.57 22.62,-1.79 5.06,1.79 11.9,4.17 23.81,-5.36 11.91,-9.53 21.13,0.6 21.13,0.6 0,0 8.03,6.25 -9.82,27.97 -9.52,13.99 -17.86,18.75 -11.9,40.1699 5.95,21.43 18.1,22.9 14.82,82.72"
       stroke="#000000"
       stroke-width="1.2112"
       stroke-miterlimit="10"
       stroke-linecap="round"
       stroke-linejoin="round"
       id="path96" />
    <path
       d="m 480.804,61.6002 c 0,0 -5.8,2.23 -0.15,6.7 -4.76,5.51 -6.1,7.44 -1.04,8.78 -3.42,5.65 -4.02,7.29 -2.23,10.56 1.79,3.27 8.78,-0.3 8.78,-0.3 0,0 -1.04,12.5 6.99,10.71 8.03,-1.79 5.21,-8.03 5.21,-8.03 0,0 3.87,5.95 9.67,1.49 5.8,-4.46 -0.15,-8.33 -0.15,-8.33 0,0 6.84,-1.04 6.7,-8.48 -0.14,-7.44 -6.4,-5.51 -6.4,-5.51 0,0 5.65,-5.51 1.64,-9.97 -2.98,-3.12 -6.55,0.6 -6.55,0.6 0,0 -0.74,-5.06 -4.17,-6.4 -3.42,-1.34 -4.02,4.46 -4.02,4.46 0,0 -4.46,-4.31 -6.4,-2.08 -1.93,2.23 0.6,6.7 0.6,6.7 0,0 -5.8,-3.73 -8.48,-0.9 z"
       fill="#fdfdfd"
       id="path97" />
    <path
       d="m 508.625,51.9203 c 0,0 1.64,-10.56 5.8,-10.27 2.68,0 2.38,3.72 2.38,3.72 0,0 4.02,-6.84 7.44,-5.51 2.08,0.3 1.49,3.72 1.49,3.72 0,0 4.46,-3.87 7.89,-2.08 3.42,1.79 -0.15,5.51 -0.15,5.51 0,0 7.14,-1.19 4.91,5.51 -2.23,6.7 -19.49,-0.45 -19.49,-0.45 z"
       fill="#fdfdfd"
       id="path98" />
    <path
       d="m 480.804,61.6002 c 0,0 -5.8,2.23 -0.15,6.7 -4.76,5.51 -6.1,7.44 -1.04,8.78 -3.42,5.65 -4.02,7.29 -2.23,10.56 1.79,3.27 8.78,-0.3 8.78,-0.3 0,0 -1.04,12.5 6.99,10.71 8.03,-1.79 5.21,-8.03 5.21,-8.03 0,0 3.87,5.95 9.67,1.49 5.8,-4.46 -0.15,-8.33 -0.15,-8.33 0,0 6.84,-1.04 6.7,-8.48 -0.14,-7.44 -6.4,-5.51 -6.4,-5.51 0,0 5.65,-5.51 1.64,-9.97 -2.98,-3.12 -6.55,0.6 -6.55,0.6 0,0 -0.74,-5.06 -4.17,-6.4 -3.42,-1.34 -4.02,4.46 -4.02,4.46 0,0 -4.46,-4.31 -6.4,-2.08 -1.93,2.23 0.6,6.7 0.6,6.7 0,0 -5.8,-3.73 -8.48,-0.9 z"
       stroke="#000000"
       stroke-width="1.2112"
       stroke-miterlimit="10"
       stroke-linecap="round"
       stroke-linejoin="round"
       id="path99" />
    <path
       d="m 508.625,51.9203 c 0,0 1.64,-10.56 5.8,-10.27 2.68,0 2.38,3.72 2.38,3.72 0,0 4.02,-6.84 7.44,-5.51 2.08,0.3 1.49,3.72 1.49,3.72 0,0 4.46,-3.87 7.89,-2.08 3.42,1.79 -0.15,5.51 -0.15,5.51 0,0 7.14,-1.19 4.91,5.51 -2.23,6.7 -19.49,-0.45 -19.49,-0.45 z"
       stroke="#000000"
       stroke-width="1.2112"
       stroke-miterlimit="10"
       stroke-linecap="round"
       stroke-linejoin="round"
       id="path100" />
    <path
       d="m 561.298,47.9102 c 0,0 7.74,1.04 9.82,-0.89 2.08,-1.93 -0.15,-5.95 -3.72,-8.03 -3.57,-2.08 -8.03,1.64 -8.03,1.64 0,0 -6.84,5.79 1.93,7.28 z"
       fill="#000000"
       id="path101" />
    <path
       d="m 556.533,75.7302 c 0,0 -5.95,5.24 -27.4,4.94"
       stroke="#000000"
       stroke-width="1.2112"
       stroke-miterlimit="10"
       stroke-linecap="round"
       stroke-linejoin="round"
       id="path102" />
    <path
       d="m 565.016,67.1001 6.11,4.76"
       stroke="#000000"
       stroke-width="1.2112"
       stroke-miterlimit="10"
       stroke-linecap="round"
       stroke-linejoin="round"
       id="path103" />
    <path
       d="m 529.067,80.8403 c -0.35,1.42 -1.64,2.48 -3.18,2.48 -1.81,0 -3.27,-1.47 -3.27,-3.27 0,-1.81 1.47,-3.27 3.27,-3.27 1.81,0 3.27,1.47 3.27,3.27 0.01,0.27 -0.03,0.54 -0.09,0.79 z"
       stroke="#000000"
       stroke-width="1.2112"
       stroke-miterlimit="10"
       stroke-linecap="round"
       stroke-linejoin="round"
       id="path104" />
    <path
       d="m 491.076,102.22 c 0,0 9.08,3.12 28.57,1.04 19.49,-2.08 25.44,-3.12 27.38,-5.5098 1.93,-2.38 3.72,2.23 3.72,2.23 0,0 5.51,13.0898 -2.68,15.9198 -8.18,2.83 -24.25,6.99 -36.01,6.4 -9.8,-0.5 -17.32,-1.51 -22.05,-5.1 -1.63,-1.24 -2.45,-3.26 -2.33,-5.3 l 0.42,-6.86 c 0,0 -0.15,-3.12 2.98,-2.82 z"
       fill="#fecc32"
       id="path105" />
    <path
       d="m 525.217,67.4802 c 1.789,0 3.24,-1.4506 3.24,-3.24 0,-1.7894 -1.451,-3.24 -3.24,-3.24 -1.79,0 -3.24,1.4506 -3.24,3.24 0,1.7894 1.45,3.24 3.24,3.24 z"
       stroke="#000000"
       stroke-width="1.2112"
       stroke-miterlimit="10"
       stroke-linecap="round"
       stroke-linejoin="round"
       id="path106" />
    <path
       d="m 515.969,64.7101 c 0,0 0.11,-3.34 2.17,-4.94 1.69,-1.3 5.4,-1.7 5.4,-1.7"
       stroke="#000000"
       stroke-width="1.2112"
       stroke-miterlimit="10"
       stroke-linecap="round"
       stroke-linejoin="round"
       id="path107" />
    <path
       d="m 491.034,120.93 c 0,0 -27.86,-8.15 -47.5,8.37 l 2.01,13.17 -31.25,-4.91 -15.62,4.46 c 0,0 -3.68,1 -8.78,9 -5.65,11.61 -6.25,42.03 6.84,62.49 19.14,29.91 37.2,24.4 45.53,22.62 8.33,-1.79 41.36,-15.77 60.11,-56.54 l -25.89,-20.83 -31.84,37.5 2.98,-28.27 27.38,-43.75 z"
       fill="#00c2ff"
       id="path108" />
    <path
       d="m 469.156,189.66 14.52,-22.34 8.78,-24.56 6.48,-10.03 8.66,-7.55 c 0,0 3.76,4.04 -4.25,9.86 l -3.32,6.53 9.16,-7.95 11.4,-6.44 c 0,0 4.12,4.04 -7,8.99 l -6.73,7.76 8.86,-5.94 9.88,-4.31 c 0,0 2.61,2.87 -1.74,5.56 -4.35,2.69 -12.65,9.41 -12.65,9.41"
       fill="#ffffff"
       id="path109" />
    <path
       d="m 517.688,137.31 c 0,0 7.83,1.51 8.91,2.69 1.09,1.18 -1.871,3.94 -1.871,3.94 l -8.899,7.93 c 0,0 -2.491,12.49 -17.661,17.66 l -5.069,12.23 -18.16,-0.28"
       fill="#ffffff"
       id="path110" />
    <path
       d="m 476.219,178.45 7.46,-11.13 8.78,-24.56 6.48,-10.03 8.66,-7.55 c 0,0 3.76,4.04 -4.25,9.86 l -3.32,6.53 9.16,-7.95 11.4,-6.44 c 0,0 4.12,4.04 -7,8.99 l -6.73,7.76 8.86,-5.94 9.88,-4.31 c 0,0 2.61,2.87 -1.74,5.56 -4.35,2.69 -12.65,9.41 -12.65,9.41"
       stroke="#000000"
       stroke-width="1.269"
       stroke-miterlimit="10"
       stroke-linecap="round"
       stroke-linejoin="round"
       id="path111" />
    <path
       d="m 523.862,139.23 c 0,0 1.66,-0.4 2.74,0.78 1.09,1.18 -1.87,3.94 -1.87,3.94 l -8.9,7.93 c 0,0 -2.49,12.49 -17.66,17.66 l -3.07,7.56"
       stroke="#000000"
       stroke-width="1.269"
       stroke-miterlimit="10"
       stroke-linecap="round"
       stroke-linejoin="round"
       id="path112" />
    <path
       d="m 491.03,120.93 c 0,0 -18.56,5.17 -32.85,26.3 l -17.56,37.79 c 0,0 -14.43,-35.41 -30.2,-41.74 -5.09,-2.04 -14.88,-3.87 -20.53,7.74 -5.65,11.61 -5.95,42.33 6.84,62.49 19.03,29.98 37.2,24.4 45.53,22.62 8.33,-1.79 41.36,-15.77 60.11,-56.54 l -25.89,-20.83 -31.84,37.5 2.98,-28.27 27.38,-43.75 z"
       fill="#00c2ff"
       id="path113" />
    <path
       d="m 410.422,143.28 c 0,0 11.9,5.06 19.05,19.94 7.14,14.88 11.31,20.83 11.31,20.83"
       stroke="#000000"
       stroke-width="1.2112"
       stroke-miterlimit="10"
       stroke-linecap="round"
       stroke-linejoin="round"
       id="path114" />
    <path
       d="m 445.312,195.58 -9.82,13.99"
       stroke="#000000"
       stroke-width="1.2112"
       stroke-miterlimit="10"
       stroke-linecap="round"
       stroke-linejoin="round"
       id="path115" />
    <path
       d="m 577.314,163.4 c -5.86,12.82 -5.35,33.8 -5.35,33.8 0,0 2.21,-9.34 4.25,-13.33"
       stroke="#000000"
       stroke-width="1.2112"
       stroke-miterlimit="10"
       stroke-linecap="round"
       stroke-linejoin="round"
       id="path116" />
    <path
       d="m 574.657,157.49 c 0,0 -3.96,-5.15 -0.74,-7.64 3.23,-2.49 4.53,2.43 4.59,7.87 3.28,-4.76 6.45,-8.44 9.28,-5.32 2.83,3.12 -3.4,6.96 -5.83,7.42 7.98,1.47 8.61,3 7.76,5.72 -0.85,2.72 -9.11,-2.32 -9.11,-2.32 0,0 5.38,7.98 0.28,9.34 -5.1,1.36 -3.85,-8.55 -3.85,-8.55 0,0 -2.55,9.34 -7.7,5.72 -5.15,-3.62 6.06,-8.15 6.06,-8.15 0,0 -10.81,1.02 -9.79,-3.57 1.01,-4.6 9.05,-0.52 9.05,-0.52 z"
       fill="#fecc32"
       id="path117" />
    <path
       d="m 578.118,162.17 c 0.751,0 1.36,-0.609 1.36,-1.36 0,-0.751 -0.609,-1.36 -1.36,-1.36 -0.751,0 -1.36,0.609 -1.36,1.36 0,0.751 0.609,1.36 1.36,1.36 z"
       fill="#000000"
       id="path118" />
    <path
       d="m 571.969,197.2 c 0,0 3.74,-7.56 7.98,-8.66"
       stroke="#000000"
       stroke-width="1.2112"
       stroke-miterlimit="10"
       stroke-linecap="round"
       stroke-linejoin="round"
       id="path119" />
    <path
       d="m 987.643,53.94 c 0,0 -1.36,-20.26 9.19,-21.45 10.547,-1.19 21.447,23.32 21.447,23.32 l -20.257,14.47 z"
       fill="#fdfdfd"
       id="path120" />
    <path
       d="m 987.643,53.94 c 0,0 -1.36,-20.26 9.19,-21.45 10.547,-1.19 21.447,23.32 21.447,23.32 l -20.257,14.47 z"
       stroke="#000000"
       stroke-width="1.2112"
       stroke-miterlimit="10"
       stroke-linecap="round"
       stroke-linejoin="round"
       id="path121" />
    <path
       d="m 995.73,197.35 c 0,0 0.6,-62.04 -5.53,-81.45 -6.13,-19.4001 -14.55,-24.7701 -25.53,-31.6601 -10.98,-6.89 -20.17,-22.21 -14.04,-33.45 4.09,-6.13 22.98,5.11 22.98,5.11 0,0 7.66,2.81 16.09,-5.62 8.43,-8.43 24,-6.38 28.34,-2.55 4.34,3.83 13.02,43.15 37.02,55.6601 24,12.51 24.94,66.89 23.4,79.66 l -1.02,14.04 z"
       fill="#fdfdfd"
       id="path122" />
    <path
       d="m 995.73,197.35 c 0,0 0.6,-62.04 -5.53,-81.45 -6.13,-19.4001 -14.55,-24.7701 -25.53,-31.6601 -10.98,-6.89 -20.17,-22.21 -14.04,-33.45 4.09,-6.13 22.98,5.11 22.98,5.11 0,0 7.66,2.81 16.09,-5.62 8.43,-8.43 24,-6.38 28.34,-2.55 4.34,3.83 13.02,43.15 37.02,55.6601 24,12.51 24.94,66.89 23.4,79.66 l -1.02,14.04"
       stroke="#000000"
       stroke-width="1.2112"
       stroke-miterlimit="10"
       stroke-linecap="round"
       stroke-linejoin="round"
       id="path123" />
    <path
       d="m 950.2,44.07 c 0,0 5.62,-1.36 5.96,2.21 0.34,3.57 1.19,6.81 -2.72,7.66 -3.91,0.85 -4.77,-3.57 -5.45,-5.45 -0.68,-1.88 -0.18,-3.91 2.21,-4.42 z"
       fill="#000000"
       id="path124" />
    <path
       d="m 999.787,63.2799 c 1.693,0 3.063,-1.37 3.063,-3.06 0,-1.69 -1.37,-3.06 -3.063,-3.06 -1.69,0 -3.06,1.37 -3.06,3.06 0,1.69 1.37,3.06 3.06,3.06 z"
       stroke="#000000"
       stroke-width="1.2112"
       stroke-miterlimit="10"
       stroke-linecap="round"
       stroke-linejoin="round"
       id="path125" />
    <path
       d="m 1071.45,118.17 c 1.69,0 3.06,-1.37 3.06,-3.06 0,-1.69 -1.37,-3.06 -3.06,-3.06 -1.69,0 -3.06,1.37 -3.06,3.06 0,1.69 1.37,3.06 3.06,3.06 z"
       stroke="#000000"
       stroke-width="1.2112"
       stroke-miterlimit="10"
       stroke-linecap="round"
       stroke-linejoin="round"
       id="path126" />
    <path
       d="m 1081.94,130.71 c 2.73,0 4.94,-2.212 4.94,-4.94 0,-2.728 -2.21,-4.94 -4.94,-4.94 -2.73,0 -4.94,2.212 -4.94,4.94 0,2.728 2.21,4.94 4.94,4.94 z"
       stroke="#000000"
       stroke-width="1.2112"
       stroke-miterlimit="10"
       stroke-linecap="round"
       stroke-linejoin="round"
       id="path127" />
    <path
       d="m 951.562,68.24 c 0,0 9.191,12.43 24.341,13.45 15.15,1.02 29.787,-6.64 29.787,-6.64"
       stroke="#000000"
       stroke-width="1.2112"
       stroke-miterlimit="10"
       stroke-linecap="round"
       stroke-linejoin="round"
       id="path128" />
    <path
       d="m 1015.56,52.4101 c 0,0 -2.72,-6.13 5.62,-11.57 8.34,-5.44 16.68,-10.21 20.94,-4.43 4.26,5.79 3.23,20.94 -1.19,30.3 -4.42,9.36 -11.23,9.02 -14.47,6.3 -3.24,-2.72 -8.86,-8.34 -10.9,-20.6 z"
       fill="#fdfdfd"
       id="path129" />
    <path
       d="m 1015.56,52.4101 c 0,0 -2.72,-6.13 5.62,-11.57 8.34,-5.44 16.68,-10.21 20.94,-4.43 4.26,5.79 3.23,20.94 -1.19,30.3 -4.42,9.36 -11.23,9.02 -14.47,6.3 -3.24,-2.72 -8.86,-8.34 -10.9,-20.6 z"
       stroke="#000000"
       stroke-width="1.2112"
       stroke-miterlimit="10"
       stroke-linecap="round"
       stroke-linejoin="round"
       id="path130" />
    <path
       d="m 1078.88,100.07 c 0,0 1.7,-22.1301 -13.96,-23.1501 -15.66,-1.02 -14.64,23.3201 -14.64,23.3201 0,0 0,5.45 4.77,5.79 4.77,0.34 7.15,-5.11 9.02,-7.4901 1.87,-2.38 5.79,-4.94 5.79,-1.02 0,3.9201 0.17,9.5301 0.17,9.5301 z"
       fill="#fdfdfd"
       id="path131" />
    <path
       d="m 1078.88,100.07 c 0,0 1.7,-22.1301 -13.96,-23.1501 -15.66,-1.02 -14.64,23.3201 -14.64,23.3201 0,0 0,5.45 4.77,5.79 4.77,0.34 7.15,-5.11 9.02,-7.4901 1.87,-2.38 5.79,-4.94 5.79,-1.02 0,3.9201 0.17,9.5301 0.17,9.5301 z"
       stroke="#000000"
       stroke-width="1.2112"
       stroke-miterlimit="10"
       stroke-linecap="round"
       stroke-linejoin="round"
       id="path132" />
    <path
       d="m 1100.16,125.86 c -2.04,-7.91 -10.72,-33.7001 -22.72,-27.3201 -12,6.3801 -16.34,10.7201 -27.83,9.4501 -11.49,-1.27 -18.38,-1.02 -19.4,6.38 -1.02,7.4 3.74,10.04 12.26,15.49 8.52,5.45 26.3,13.36 27.57,44.51 1.27,31.15 1.13,22.81 1.13,22.81 l 121.87,0.17 1.36,-35.06 c 0,0 -65.38,-5.53 -78.4,-11.15 -13.04,-5.62 -13.8,-17.37 -15.84,-25.28 z"
       fill="#00c2ff"
       id="path133" />
    <path
       d="m 1060.13,143.9 c 5.14,6.52 9.3,15.98 9.89,30.47 0.18,4.37 0.33,7.95 0.46,10.9"
       stroke="#000000"
       stroke-width="1.2112"
       stroke-miterlimit="10"
       stroke-linecap="round"
       stroke-linejoin="round"
       id="path134" />
    <path
       d="m 1042.45,129.86 c 4.55,2.91 11.76,6.54 17.68,14.05"
       stroke="#000000"
       stroke-width="1.2112"
       stroke-miterlimit="10"
       stroke-linecap="round"
       stroke-linejoin="round"
       id="path135" />
    <path
       d="m 1066.38,104.67 c -5.21,2.72 -9.6,4.11 -16.78,3.32 -11.49,-1.28 -18.38,-1.02 -19.4,6.38"
       stroke="#000000"
       stroke-width="1.2112"
       stroke-miterlimit="10"
       stroke-linecap="round"
       stroke-linejoin="round"
       id="path136" />
    <path
       d="m 1140.6,156.31 c -10.99,-1.6 -20.47,-3.38 -24.62,-5.17 -12.79,-5.52 -13.76,-16.95 -15.72,-24.85"
       stroke="#000000"
       stroke-width="1.2112"
       stroke-miterlimit="10"
       stroke-linecap="round"
       stroke-linejoin="round"
       id="path137" />
    <path
       d="m 1048.24,133.26 c 0,0 14.98,6.47 30.81,-5.96"
       stroke="#000000"
       stroke-width="1.2112"
       stroke-miterlimit="10"
       stroke-linecap="round"
       stroke-linejoin="round"
       id="path138" />
    <path
       d="m 1029.52,106.2 c 0,0 3.91,-3.57 7.15,-1.19 3.23,2.38 4.09,4.94 1.02,7.15 -3.06,2.21 -8.34,-1.19 -8.34,-1.19 0,0 -1.88,-1.71 0.17,-4.77 z"
       fill="#000000"
       id="path139" />
    <path
       d="m 1072.81,114.97 c 1.17,0 2.11,-0.945 2.11,-2.11 0,-1.166 -0.94,-2.11 -2.11,-2.11 -1.16,0 -2.11,0.944 -2.11,2.11 0,1.165 0.95,2.11 2.11,2.11 z"
       stroke="#000000"
       stroke-width="1.2112"
       stroke-miterlimit="10"
       stroke-linecap="round"
       stroke-linejoin="round"
       id="path140" />
    <path
       d="m 1089.09,117.26 c 0,0 -5.45,-2.38 -2.21,-10.72 3.24,-8.3402 12.26,-25.7002 23.49,-19.5702 11.23,6.13 22.81,17.5302 14.47,31.6602 -5.62,9.36 -16.85,-9.87 -16.85,-9.87 0,0 -3.91,-5.45 -8.68,0.68 -4.77,6.12 -4.94,9.35 -10.22,7.82 z"
       fill="#fdfdfd"
       id="path141" />
    <path
       d="m 1089.09,117.26 c 0,0 -5.45,-2.38 -2.21,-10.72 3.24,-8.3402 12.26,-25.7002 23.49,-19.5702 11.23,6.13 22.81,17.5302 14.47,31.6602 -5.62,9.36 -16.85,-9.87 -16.85,-9.87 0,0 -3.91,-5.45 -8.68,0.68 -4.77,6.12 -4.94,9.35 -10.22,7.82 z"
       stroke="#000000"
       stroke-width="1.2112"
       stroke-miterlimit="10"
       stroke-linecap="round"
       stroke-linejoin="round"
       id="path142" />
    <path
       d="m 1072.24,105.98 c 0,0 5.81,-0.64 8.11,5.04"
       stroke="#000000"
       stroke-width="1.2112"
       stroke-miterlimit="10"
       stroke-linecap="round"
       stroke-linejoin="round"
       id="path143" />
    <path
       d="m 998.367,53.3499 c 0,0 6.533,-3.53 12.023,2.09"
       stroke="#000000"
       stroke-width="1.2112"
       stroke-miterlimit="10"
       stroke-linecap="round"
       stroke-linejoin="round"
       id="path144" />
    <path
       d="m 1186.98,112.85 18.88,-0.16 8.03,-16.0501 26.28,72.2301 c 0,0 11.96,18.57 -6.61,31.79 -18.57,13.22 -24.39,7.71 -29.11,5.82 -4.72,-1.89 -22.82,-7.87 -34.78,-3.93 -11.96,3.94 -18.57,-2.2 -18.57,-2.2 0,0 -7.4,-8.81 -2.05,-15.58 5.35,-6.77 9.91,-7.24 13.22,-7.87 l 15.11,-79.4701 z"
       fill="#fdfdfd"
       id="path145" />
    <path
       d="m 1169.67,202.55 c -4.7,1.55 -8.58,1.54 -11.55,0.96 -4.97,-0.97 -8.98,-4.71 -10.45,-9.55 -0.86,-2.84 -0.97,-6.21 1.38,-9.19 5.35,-6.77 9.91,-7.24 13.22,-7.87 l 15.11,-79.4701 9.6,15.4201"
       stroke="#000000"
       stroke-width="1.2112"
       stroke-miterlimit="10"
       stroke-linecap="round"
       stroke-linejoin="round"
       id="path146" />
    <path
       d="m 1241.5,171.42 c 2.5,5.54 6.45,19 -7.94,29.24"
       stroke="#000000"
       stroke-width="1.2112"
       stroke-miterlimit="10"
       stroke-linecap="round"
       stroke-linejoin="round"
       id="path147" />
    <path
       d="m 1186.98,112.85 18.88,-0.16 8.03,-16.0501 24.22,66.5601"
       stroke="#000000"
       stroke-width="1.2112"
       stroke-miterlimit="10"
       stroke-linecap="round"
       stroke-linejoin="round"
       id="path148" />
    <path
       d="m 1186.98,112.85 18.88,-0.16"
       stroke="#000000"
       stroke-width="1.2112"
       stroke-miterlimit="10"
       stroke-linecap="round"
       stroke-linejoin="round"
       id="path149" />
    <path
       d="m 1172.74,121.85 4.64,-24.4201 7.32,11.7501"
       stroke="#000000"
       stroke-width="1.2112"
       stroke-miterlimit="10"
       stroke-linecap="round"
       stroke-linejoin="round"
       id="path150" />
    <path
       d="m 1204.5,128.64 c 0,0 -0.21,3.57 -1.78,3.36 -1.57,-0.21 -2.2,-3.15 -2.2,-3.15"
       stroke="#000000"
       stroke-width="1.2112"
       stroke-miterlimit="10"
       stroke-linecap="round"
       stroke-linejoin="round"
       id="path151" />
    <path
       d="m 1183.22,129.2 c 0,0 -0.21,3.57 -1.78,3.36 -1.57,-0.21 -2.2,-3.15 -2.2,-3.15"
       stroke="#000000"
       stroke-width="1.2112"
       stroke-miterlimit="10"
       stroke-linecap="round"
       stroke-linejoin="round"
       id="path152" />
    <path
       d="m 1194.17,133.77 -4.67,0.18 c -0.28,0.01 -0.41,0.35 -0.21,0.55 l 2.49,2.46 c 0.13,0.13 0.35,0.12 0.47,-0.02 l 2.19,-2.64 c 0.17,-0.22 0.01,-0.54 -0.27,-0.53 z"
       fill="#000000"
       id="path153" />
    <path
       d="m 1207.2,134.25 11.1,-1.26"
       stroke="#000000"
       stroke-width="1.2112"
       stroke-miterlimit="10"
       stroke-linecap="round"
       stroke-linejoin="round"
       id="path154" />
    <path
       d="m 1209.09,135.98 12.67,0.79"
       stroke="#000000"
       stroke-width="1.2112"
       stroke-miterlimit="10"
       stroke-linecap="round"
       stroke-linejoin="round"
       id="path155" />
    <path
       d="m 1207.67,137.64 9.05,3.07"
       stroke="#000000"
       stroke-width="1.2112"
       stroke-miterlimit="10"
       stroke-linecap="round"
       stroke-linejoin="round"
       id="path156" />
    <path
       d="m 1176.6,134.25 -11.33,-1.33"
       stroke="#000000"
       stroke-width="1.2112"
       stroke-miterlimit="10"
       stroke-linecap="round"
       stroke-linejoin="round"
       id="path157" />
    <path
       d="m 1174.86,136.22 -12.98,0.47"
       stroke="#000000"
       stroke-width="1.2112"
       stroke-miterlimit="10"
       stroke-linecap="round"
       stroke-linejoin="round"
       id="path158" />
    <path
       d="m 1176.2,137.56 -9.36,2.99"
       stroke="#000000"
       stroke-width="1.2112"
       stroke-miterlimit="10"
       stroke-linecap="round"
       stroke-linejoin="round"
       id="path159" />
    <path
       d="m 1232.63,183.98 c 0,0 -6.4,12.22 -16.16,10.44 -9.76,-1.78 -23.29,-10.6 -27.38,-12.17 -4.09,-1.57 -16.89,-5.98 -27.07,-4.72"
       stroke="#000000"
       stroke-width="1.2112"
       stroke-miterlimit="10"
       stroke-linecap="round"
       stroke-linejoin="round"
       id="path160" />
    <path
       d="m 1210.38,161.27 -4.1,25.91"
       stroke="#000000"
       stroke-width="1.2112"
       stroke-miterlimit="10"
       stroke-linecap="round"
       stroke-linejoin="round"
       id="path161" />
    <path
       d="m 1192.86,161.48 -0.11,20.14"
       stroke="#000000"
       stroke-width="1.2112"
       stroke-miterlimit="10"
       stroke-linecap="round"
       stroke-linejoin="round"
       id="path162" />
    <path
       d="m 1175.23,161.48 2.41,15.11"
       stroke="#000000"
       stroke-width="1.2112"
       stroke-miterlimit="10"
       stroke-linecap="round"
       stroke-linejoin="round"
       id="path163" />
    <path
       d="m 621.148,196.75 c 0,0 3.89,-12.6 30.43,-27.05 26.54,-14.45 23.59,-7.67 37.45,-18.87 13.86,-11.2 18.87,-50.42 18.87,-50.42 l 8.55,-5.3099 29.49,4.72 c 0,0 5.01,5.6799 15.41,4.1299 10.39,-1.55 19.68,-5.3099 22.11,0.22 2.43,5.53 4.2,11.72 -3.98,17.69 -8.18,5.97 -28.97,16.81 -32.95,30.96 -3.98,14.15 -8.12,44.23 -8.12,44.23 z"
       fill="#fdfdfd"
       id="path164" />
    <path
       d="m 621.211,196.93 c 1.53,-3.43 8.09,-15.09 30.37,-27.22 26.54,-14.45 23.59,-7.67 37.45,-18.87 13.86,-11.2 18.87,-50.42 18.87,-50.42 l 8.55,-5.3099 29.49,4.72 c 0,0 5.01,5.6799 15.41,4.1299 10.39,-1.55 19.68,-5.3099 22.11,0.22 2.43,5.53 4.2,11.72 -3.98,17.69 -8.18,5.97 -28.97,16.81 -32.95,30.96 -3.98,14.15 -8.12,44.23 -8.12,44.23"
       stroke="#000000"
       stroke-width="1.2112"
       stroke-miterlimit="10"
       stroke-linecap="round"
       stroke-linejoin="round"
       id="path165" />
    <path
       d="m 758.457,135.95 c 0,0 -20.2,-3.39 -30.66,-13.42"
       stroke="#000000"
       stroke-width="1.2112"
       stroke-miterlimit="10"
       stroke-linecap="round"
       stroke-linejoin="round"
       id="path166" />
    <path
       d="m 738.12,115.6 c 1.547,0 2.8,-1.254 2.8,-2.8 0,-1.546 -1.253,-2.8 -2.8,-2.8 -1.546,0 -2.8,1.254 -2.8,2.8 0,1.546 1.254,2.8 2.8,2.8 z"
       stroke="#000000"
       stroke-width="1.2112"
       stroke-miterlimit="10"
       stroke-linecap="round"
       stroke-linejoin="round"
       id="path167" />
    <path
       d="m 779.098,106.9 c 0,0 -4.57,-4.57 -0.74,-6.78 3.83,-2.2099 6.78,-1.7699 7.96,0.44 1.19,2.21 4.14,14.16 -7.22,6.34 z"
       fill="#000000"
       id="path168" />
    <path
       d="m 698.46,141.4 c 0,0 29.19,14.89 49.53,9.29 0,0 3.54,-0.74 1.77,7.96 -1.77,8.7 -12.38,7.67 -12.38,7.67 0,0 -34.35,1.03 -48.95,-13.56 z"
       fill="#db1d41"
       id="path169" />
    <path
       d="m 751.086,94.22 c 0,0 3.39,12.68 -16.36,12.24 -19.75,-0.44 -21.67,-5.9 -21.67,-5.9 0,0 4.13,51.78 -24.69,53.14 -6.48,0.3 -12.81,-2.4 -16.99,-7.36 -13.49,-16.01 13.16,-31.25 21.93,-38.71 0,0 12.38,-8.26 14.89,-16.36 2.51,-8.1 7.08,-22.85 15.92,-29.19 8.85,-6.34 22.11,1.47 12.38,17.54 7.22,-1.92 12.24,3.69 7.96,10.47 4.27,0.45 6.63,4.13 6.63,4.13 z"
       fill="#fdfdfd"
       id="path170" />
    <path
       d="m 744.591,90.11 c 5.57,0.67 8.35,7.4 4.83,11.77 -2.07,2.58 -6.28,4.77 -14.69,4.58 -19.75,-0.44 -21.67,-5.9 -21.67,-5.9 0,0 4.19,52.45 -25.25,53.16 -6.25,0.15 -12.32,-2.54 -16.37,-7.3 -13.64,-16.04 13.08,-31.31 21.86,-38.78 0,0 12.38,-8.26 14.89,-16.36 2.51,-8.1 7.08,-22.85 15.92,-29.19 8.85,-6.34 22.11,1.47 12.38,17.54 7.22,-1.92 12.24,3.69 7.96,10.47 0.05,0 0.09,0.01 0.14,0.01 z"
       stroke="#000000"
       stroke-width="1.2112"
       stroke-miterlimit="10"
       stroke-linecap="round"
       stroke-linejoin="round"
       id="path171" />
    <path
       d="m 591.492,170.57 c 8.02,6.26 13.69,26.8 13.69,26.8 0,0 5.09,-29.93 19.17,-36.78"
       stroke="#000000"
       stroke-width="1.2112"
       stroke-miterlimit="10"
       stroke-linecap="round"
       stroke-linejoin="round"
       id="path172" />
    <path
       d="m 610.859,196.79 c 0,0 1.76,-17.02 7.83,-23.48"
       stroke="#000000"
       stroke-width="1.2112"
       stroke-miterlimit="10"
       stroke-linecap="round"
       stroke-linejoin="round"
       id="path173" />
    <path
       d="m 614.969,196 c 0,0 2.54,-6.26 7.04,-8.61"
       stroke="#000000"
       stroke-width="1.2112"
       stroke-miterlimit="10"
       stroke-linecap="round"
       stroke-linejoin="round"
       id="path174" />
    <path
       d="m 934.297,150.03 c 18.89,9.57 24.42,47.22 24.42,47.22 0,0 3.69,-21.68 10.49,-37.68"
       stroke="#000000"
       stroke-width="0.9204"
       stroke-miterlimit="10"
       stroke-linecap="round"
       stroke-linejoin="round"
       id="path175" />
    <path
       d="m 964.391,196.66 c 0,0 1.46,-20.39 7.53,-26.84"
       stroke="#000000"
       stroke-width="0.9204"
       stroke-miterlimit="10"
       stroke-linecap="round"
       stroke-linejoin="round"
       id="path176" />
    <path
       d="m 968.5,195.88 c 0,0 2.4,-7 8.01,-9.55"
       stroke="#000000"
       stroke-width="0.9204"
       stroke-miterlimit="10"
       stroke-linecap="round"
       stroke-linejoin="round"
       id="path177" />
    <path
       d="m 1281.7,181.88 c -4.65,6.34 -4.56,15.39 -4.56,15.39 0,0 1.65,-21.03 -12.05,-29.03"
       stroke="#000000"
       stroke-width="1.2112"
       stroke-miterlimit="10"
       stroke-linecap="round"
       stroke-linejoin="round"
       id="path178" />
    <path
       d="m 1271.45,196.97 c 0,0 -1.29,-13.32 -7.67,-19.46"
       stroke="#000000"
       stroke-width="1.2112"
       stroke-miterlimit="10"
       stroke-linecap="round"
       stroke-linejoin="round"
       id="path179" />
    <path
       d="m 1267.31,196.4 c 0,0 -2.75,-6.87 -8.49,-9.13"
       stroke="#000000"
       stroke-width="1.2112"
       stroke-miterlimit="10"
       stroke-linecap="round"
       stroke-linejoin="round"
       id="path180" />
    <path
       d="m 628.622,186.4 -4.02,-7.46"
       stroke="#000000"
       stroke-width="0.9204"
       stroke-miterlimit="10"
       stroke-linecap="round"
       stroke-linejoin="round"
       id="path181" />
    <path
       d="m 617.491,169.6 c 0,0 -7.81,-2.8 -7.95,2.07 -0.14,4.87 8.14,2.1 8.14,2.1 0,0 -8.16,5.51 -3.17,8.6 4.99,3.09 6.16,-5.59 6.16,-5.59 0,0 -1.3,8.51 4.03,6.5 5.34,-2.01 -0.94,-7.84 -0.94,-7.84 0,0 7.85,6.15 8.61,0.17 0.76,-5.97 -7.13,-3.56 -7.13,-3.56 0,0 7.79,-4.72 4.11,-7.63 -3.68,-2.91 -7.05,4.74 -7.05,4.74 0,0 -0.45,-7.51 -4.47,-6.49 -4.02,1.02 -0.34,6.93 -0.34,6.93 z"
       fill="#00c2ff"
       id="path182" />
    <path
       d="m 621.229,175.01 c 1.071,0 1.94,-0.869 1.94,-1.94 0,-1.072 -0.869,-1.94 -1.94,-1.94 -1.071,0 -1.94,0.868 -1.94,1.94 0,1.071 0.869,1.94 1.94,1.94 z"
       fill="#000000"
       id="path183" />
    <path
       d="m 949.742,188.76 0.99,-0.99 -0.06,-0.06 c -0.3,0.36 -0.6,0.71 -0.93,1.05 z"
       fill="#fecc32"
       id="path184" />
    <path
       d="m 799.984,173.6 c 0.81,31.56 29.42,40.56 44.6,35.96 15.34,-4.64 20.35,-10.47 20.35,-10.47 h 74.46 l 4.85,-4.84 5.5,-5.5 c 0.32,-0.34 0.63,-0.68 0.92,-1.04 v -0.01 c 0.37,-0.45 0.72,-0.92 1.04,-1.4 l 5.09,-7.56 c 1.76,-2.62 -0.27,-6.12 -3.42,-5.89 l -15,1.09 c -0.07,0.05 -0.14,0.09 -0.21,0.15 -4.28,-4.26 -9.37,-8.83 -14.48,-12.19 1.56,-2.7 1.48,-12.45 1.18,-19.55 -0.13,-3.19 -3.92,-4.79 -6.3,-2.67 l -13.29,11.81 c -0.49,0.44 -0.9,0.97 -1.18,1.55 -3.13,-1.13 -6.37,-2.23 -9.57,-3.28 -13.27,-4.34 -52.22,-18.11 -66.66,-14.65 -12.13,2.94 -24.64,7.53 -27.88,38.49 z"
       fill="#fecc32"
       id="path185" />
    <path
       d="m 926.742,164.06 c -1.01,-0.75 -2.03,-1.47 -3.05,-2.14 1.56,-2.7 1.48,-12.45 1.18,-19.55 -0.13,-3.19 -3.92,-4.79 -6.3,-2.67 l -10.15,9.02"
       stroke="#000000"
       stroke-width="1.2112"
       stroke-miterlimit="10"
       stroke-linecap="round"
       stroke-linejoin="round"
       id="path186" />
    <path
       d="m 953.216,184.08 3.59,-5.33 c 1.76,-2.62 -0.27,-6.12 -3.42,-5.89 l -10.48,0.77"
       stroke="#000000"
       stroke-width="1.2112"
       stroke-miterlimit="10"
       stroke-linecap="round"
       stroke-linejoin="round"
       id="path187" />
    <path
       d="m 944.258,194.25 c 0.04,0.02 0.05,0.04 0.05,0.04 l 5.19,-5.27 c 0.09,-0.09 0.17,-0.17 0.25,-0.27 z"
       fill="#fecc32"
       id="path188" />
    <path
       d="m 949.338,186.37 0.99,1.22 -10.75,11.33"
       stroke="#000000"
       stroke-width="1.2112"
       stroke-miterlimit="10"
       stroke-linecap="round"
       stroke-linejoin="round"
       id="path189" />
    <path
       d="m 864.935,199.1 c 0,0 14.16,-19.02 7.49,-27.52 -6.68,-8.5 -14.57,-1.62 -16.79,1.82 -2.23,3.44 -18.62,24.48 -41.08,13.15"
       stroke="#000000"
       stroke-width="1.2112"
       stroke-miterlimit="10"
       stroke-linecap="round"
       stroke-linejoin="round"
       id="path190" />
    <path
       d="m 889.971,171.83 c 0,0 14.11,5.62 15.63,10.62 1.52,5.01 1.37,14.57 -7.59,16.54 -6.18,1.36 -12.72,0.92 -16.18,0.51 -2.99,-0.35 -5.33,-2.84 -5.37,-5.85 0,-0.04 0,-0.08 0,-0.13 0,-4.25 10.17,-6.22 10.17,-6.22 l 9.11,-1.82"
       stroke="#000000"
       stroke-width="1.2112"
       stroke-miterlimit="10"
       stroke-linecap="round"
       stroke-linejoin="round"
       id="path191" />
    <path
       d="m 879.352,181.09 7.59,3.79"
       stroke="#000000"
       stroke-width="1.2112"
       stroke-miterlimit="10"
       stroke-linecap="round"
       stroke-linejoin="round"
       id="path192" />
    <path
       d="m 904.547,199.15 c 0,0 0.76,-10.02 9.86,-10.02 9.11,0 9.86,9.71 9.86,9.71"
       stroke="#000000"
       stroke-width="1.2112"
       stroke-miterlimit="10"
       stroke-linecap="round"
       stroke-linejoin="round"
       id="path193" />
    <path
       d="m 928.984,193.13 6.37,8.9"
       stroke="#000000"
       stroke-width="1.2112"
       stroke-miterlimit="10"
       stroke-linecap="round"
       stroke-linejoin="round"
       id="path194" />
    <path
       d="m 931.406,192.73 10.22,8.39"
       stroke="#000000"
       stroke-width="1.2112"
       stroke-miterlimit="10"
       stroke-linecap="round"
       stroke-linejoin="round"
       id="path195" />
    <path
       d="m 931.203,190.5 13.84,7.18"
       stroke="#000000"
       stroke-width="1.2112"
       stroke-miterlimit="10"
       stroke-linecap="round"
       stroke-linejoin="round"
       id="path196" />
    <path
       d="m 902.572,170.47 -8.9,-8.1"
       stroke="#000000"
       stroke-width="1.2112"
       stroke-miterlimit="10"
       stroke-linecap="round"
       stroke-linejoin="round"
       id="path197" />
    <path
       d="m 900.557,171.18 -11.94,-7.39"
       stroke="#000000"
       stroke-width="1.2112"
       stroke-miterlimit="10"
       stroke-linecap="round"
       stroke-linejoin="round"
       id="path198" />
    <path
       d="m 900.654,173.4 -9.92,-3.24"
       stroke="#000000"
       stroke-width="1.2112"
       stroke-miterlimit="10"
       stroke-linecap="round"
       stroke-linejoin="round"
       id="path199" />
    <path
       d="m 909.053,167.43 c 0,0 -2.12,3.54 -0.3,4.35 1.82,0.81 3.95,-1.52 3.95,-1.52"
       stroke="#000000"
       stroke-width="1.2112"
       stroke-miterlimit="10"
       stroke-linecap="round"
       stroke-linejoin="round"
       id="path200" />
    <path
       d="m 928.076,181.5 c 0,0 -2.43,3.24 -0.4,4.25 2.02,1.01 3.64,-1.52 3.64,-1.52"
       stroke="#000000"
       stroke-width="1.2112"
       stroke-miterlimit="10"
       stroke-linecap="round"
       stroke-linejoin="round"
       id="path201" />
    <path
       d="m 915.434,178.79 3.59,3.06 c 0.24,0.2 0.11,0.6 -0.2,0.62 l -3.44,0.3 c -0.2,0.02 -0.38,-0.14 -0.39,-0.34 l -0.15,-3.36 c -0.01,-0.3 0.36,-0.48 0.59,-0.28 z"
       fill="#000000"
       id="path202" />
    <path
       d="m 1021.98,182.65 c -4.41,3.44 -7.52,14.72 -7.52,14.72 0,0 -2.79,-16.44 -10.53,-20.2"
       stroke="#000000"
       stroke-width="0.9204"
       stroke-miterlimit="10"
       stroke-linecap="round"
       stroke-linejoin="round"
       id="path203" />
    <path
       d="m 1022.51,176.32 c 0,0 -3.55,-3.65 -4.94,-1.18 -1.39,2.47 3.12,4.83 3.12,4.83 0,0 -6.45,0.54 -4.83,4.62 1.61,4.08 5.59,-1.4 5.59,-1.4 0,0 -2.36,6.88 1.83,6.55 4.19,-0.32 1.5,-5.48 1.5,-5.48 0,0 2.58,5.69 5.8,2.04 3.22,-3.65 -3.12,-4.3 -3.12,-4.3 0,0 6.45,-0.32 5.48,-3.76 -0.97,-3.44 -6.66,0.32 -6.66,0.32 0,0 3.55,-6.12 0.11,-6.45 -3.45,-0.31 -3.88,4.21 -3.88,4.21 z"
       fill="#00c2ff"
       id="path204" />
    <path
       d="m 1023.81,183.29 c 1.06,0 1.92,-0.864 1.92,-1.93 0,-1.066 -0.86,-1.93 -1.92,-1.93 -1.07,0 -1.93,0.864 -1.93,1.93 0,1.066 0.86,1.93 1.93,1.93 z"
       fill="#000000"
       id="path205" />
    <path
       d="m 1002.42,167.93 c 0,0 -0.75,-8.7 -5.158,-6.98 -4.41,1.72 0.64,9.67 0.64,9.67 0,0 -8.81,-4.83 -9.56,0.32 -0.75,5.15 8.06,3.98 8.06,3.98 0,0 -7.09,2.47 -4.51,6.77 2.58,4.3 8.168,-3.98 8.168,-3.98 0,0 -2.688,9.03 2.79,8.7 5.48,-0.33 0.54,-9.13 0.54,-9.13 0,0 9.45,5.8 8.7,-0.11 -0.75,-5.91 -7.31,-3.87 -7.31,-3.87 0,0 8.17,-4.3 5.05,-7.74 -3.11,-3.43 -7.41,2.37 -7.41,2.37 z"
       fill="#db1d41"
       id="path206" />
    <path
       d="m 1011.34,197.05 c 0,0 -0.97,-9.35 -4.3,-12.89"
       stroke="#000000"
       stroke-width="0.9204"
       stroke-miterlimit="10"
       stroke-linecap="round"
       stroke-linejoin="round"
       id="path207" />
    <path
       d="m 1009.08,196.62 c 0,0 -1.4,-3.44 -3.87,-4.73"
       stroke="#000000"
       stroke-width="0.9204"
       stroke-miterlimit="10"
       stroke-linecap="round"
       stroke-linejoin="round"
       id="path208" />
    <path
       d="m 1000.7,175.88 c 1.13,0 2.04,-0.913 2.04,-2.04 0,-1.127 -0.91,-2.04 -2.04,-2.04 -1.123,0 -2.036,0.913 -2.036,2.04 0,1.127 0.913,2.04 2.036,2.04 z"
       fill="#000000"
       id="path209" />
    <path
       d="m 799.902,182.65 c -4.41,3.44 -7.52,14.72 -7.52,14.72 0,0 -2.79,-16.44 -10.53,-20.2"
       stroke="#000000"
       stroke-width="0.9204"
       stroke-miterlimit="10"
       stroke-linecap="round"
       stroke-linejoin="round"
       id="path210" />
    <path
       d="m 800.442,176.32 c 0,0 -3.55,-3.65 -4.94,-1.18 -1.39,2.47 3.12,4.83 3.12,4.83 0,0 -6.45,0.54 -4.83,4.62 1.61,4.08 5.59,-1.4 5.59,-1.4 0,0 -2.36,6.88 1.83,6.55 4.19,-0.33 1.5,-5.48 1.5,-5.48 0,0 2.58,5.69 5.8,2.04 3.22,-3.65 -3.12,-4.3 -3.12,-4.3 0,0 6.45,-0.32 5.48,-3.76 -0.97,-3.44 -6.66,0.32 -6.66,0.32 0,0 3.55,-6.12 0.11,-6.45 -3.45,-0.31 -3.88,4.21 -3.88,4.21 z"
       fill="#00c2ff"
       id="path211" />
    <path
       d="m 801.735,183.29 c 1.066,0 1.93,-0.864 1.93,-1.93 0,-1.066 -0.864,-1.93 -1.93,-1.93 -1.066,0 -1.93,0.864 -1.93,1.93 0,1.066 0.864,1.93 1.93,1.93 z"
       fill="#000000"
       id="path212" />
    <path
       d="m 780.352,167.93 c 0,0 -0.75,-8.7 -5.16,-6.98 -4.41,1.72 0.64,9.67 0.64,9.67 0,0 -8.81,-4.83 -9.56,0.32 -0.75,5.16 8.06,3.98 8.06,3.98 0,0 -7.09,2.47 -4.51,6.77 2.58,4.3 8.17,-3.98 8.17,-3.98 0,0 -2.69,9.03 2.79,8.7 5.48,-0.32 0.54,-9.13 0.54,-9.13 0,0 9.45,5.8 8.7,-0.11 -0.75,-5.91 -7.31,-3.87 -7.31,-3.87 0,0 8.17,-4.3 5.05,-7.74 -3.11,-3.43 -7.41,2.37 -7.41,2.37 z"
       fill="#db1d41"
       id="path213" />
    <path
       d="m 789.269,197.05 c 0,0 -0.97,-9.35 -4.3,-12.89"
       stroke="#000000"
       stroke-width="0.9204"
       stroke-miterlimit="10"
       stroke-linecap="round"
       stroke-linejoin="round"
       id="path214" />
    <path
       d="m 787.011,196.62 c 0,0 -1.4,-3.44 -3.87,-4.73"
       stroke="#000000"
       stroke-width="0.9204"
       stroke-miterlimit="10"
       stroke-linecap="round"
       stroke-linejoin="round"
       id="path215" />
    <path
       d="m 778.634,175.88 c 1.126,0 2.04,-0.913 2.04,-2.04 0,-1.127 -0.914,-2.04 -2.04,-2.04 -1.127,0 -2.04,0.913 -2.04,2.04 0,1.127 0.913,2.04 2.04,2.04 z"
       fill="#000000"
       id="path216" />
    <path
       d="m 1290.19,165.51 c -5.43,11.88 -4.96,31.32 -4.96,31.32 0,0 2.05,-8.66 3.93,-12.35"
       stroke="#000000"
       stroke-width="1.2112"
       stroke-miterlimit="10"
       stroke-linecap="round"
       stroke-linejoin="round"
       id="path217" />
    <path
       d="m 1287.73,160.03 c 0,0 -3.67,-4.77 -0.68,-7.08 2.99,-2.31 4.2,2.26 4.25,7.29 3.04,-4.41 5.98,-7.82 8.6,-4.93 2.62,2.89 -3.15,6.45 -5.4,6.87 7.4,1.36 7.97,2.78 7.19,5.3 -0.79,2.52 -8.45,-2.15 -8.45,-2.15 0,0 4.98,7.4 0.26,8.66 -4.72,1.26 -3.57,-7.92 -3.57,-7.92 0,0 -2.36,8.66 -7.13,5.3 -4.77,-3.36 5.61,-7.55 5.61,-7.55 0,0 -10.02,0.94 -9.07,-3.3 0.95,-4.24 8.39,-0.49 8.39,-0.49 z"
       fill="#fecc32"
       id="path218" />
    <path
       d="m 1290.94,164.37 c 0.7,0 1.26,-0.564 1.26,-1.26 0,-0.696 -0.56,-1.26 -1.26,-1.26 -0.7,0 -1.26,0.564 -1.26,1.26 0,0.696 0.56,1.26 1.26,1.26 z"
       fill="#000000"
       id="path219" />
    <path
       d="m 1285.23,196.83 c 0,0 3.46,-7 7.4,-8.03"
       stroke="#000000"
       stroke-width="1.2112"
       stroke-miterlimit="10"
       stroke-linecap="round"
       stroke-linejoin="round"
       id="path220" />
    <path
       d="m 1606.46,172.94 c 0.01,0 0.01,0 0.02,0 0.09,0.21 0.17,0.41 0.25,0.62 -0.22,0.44 0.05,0.93 0.43,1.08 0.39,1.01 0.77,2.03 1.13,3.06 -4.3,-0.08 -8.61,-0.05 -12.91,0.09 -0.61,-2.19 -1.09,-4.39 -1.39,-6.59 4.21,0.14 8.36,0.72 12.47,1.74 z"
       fill="#ef3f69"
       id="path221"
       style="fill:#d97706;fill-opacity:1" />
    <path
       d="m 1597.7,156.99 c 3.17,4.5 5.86,9.29 8.07,14.29 -3.94,-0.9 -7.93,-1.42 -11.97,-1.55 -0.29,-2.69 -0.35,-5.45 0.51,-8.01 0.62,-1.86 1.8,-3.61 3.39,-4.73 z"
       fill="#ef3f69"
       id="path222"
       style="fill:#d97706;fill-opacity:1" />
    <path
       d="m 1608.38,173.76 c 2.18,-2.75 4.19,-5.61 6.01,-8.61 1.78,2.7 3.19,5.68 4.27,8.74 2.03,5.72 2.56,7.52 3.54,13.52 l -9.32,0.99 c -0.95,-6.36 -2.16,-8.71 -4.5,-14.64 z"
       fill="#ef3f69"
       id="path223"
       style="fill:#d97706;fill-opacity:1" />
    <path
       d="m 1613.32,164.11 c -1.69,2.82 -3.55,5.52 -5.57,8.11 -2.34,-5.6 -5.28,-10.94 -8.79,-15.94 0.37,-0.16 0.76,-0.3 1.16,-0.39 3.08,-0.7 6.24,0.91 8.67,2.93 1.79,1.48 3.35,3.2 4.72,5.07 -0.06,0.06 -0.13,0.13 -0.19,0.22 z"
       fill="#ef3f69"
       id="path224"
       style="fill:#d97706;fill-opacity:1" />
    <path
       d="m 1608.77,179.15 c 1.38,4.26 1.88,4.99 2.57,9.45 l -10.82,1.4 c -2.21,-4.05 -3.32,-6.23 -4.72,-10.78 4.32,-0.14 8.64,-0.17 12.97,-0.07 z"
       fill="#ef3f69"
       id="path225"
       style="fill:#d97706;fill-opacity:1" />
    <path
       d="m 1649.38,160.76 c 0.05,0.1 0.11,0.18 0.17,0.25 -3.41,4.76 -6.79,9.55 -10.13,14.37 -0.13,-0.1 -0.31,-0.17 -0.52,-0.17 -5.06,-0.14 -10.11,-0.48 -15.14,-1.01 1.32,-2.42 2.64,-4.82 3.99,-7.22 0.36,-0.64 0.76,-1.32 1.42,-1.64 0.75,-0.36 1.65,-0.16 2.44,0.11 2.63,0.88 5.16,2.38 7.94,2.31 2.77,-0.07 5.7,-2.81 4.58,-5.34 -0.47,-1.06 -1.5,-1.75 -2.48,-2.38 -2.06,-1.32 -4.11,-2.64 -6.17,-3.97 -0.94,-0.6 -1.98,-1.38 -2.04,-2.5 -0.04,-0.77 0.42,-1.46 0.86,-2.09 1.87,-2.7 3.75,-5.41 5.68,-8.08 3.45,5.61 6.58,11.4 9.4,17.36 z"
       fill="#db1d41"
       id="path226"
       style="fill:#b45309;fill-opacity:1" />
    <path
       d="m 1622.82,175.9 c 0.01,0 0.02,0.01 0.03,0.01 5.14,0.57 10.29,0.92 15.46,1.08 -3.64,5.27 -7.24,10.57 -10.79,15.9 -0.65,0.97 0.91,1.88 1.55,0.91 16.4,-24.66 33.78,-48.66 52.08,-71.95 1.07,1.54 1.68,3.39 2.13,5.23 2.39,9.75 1.26,20.07 -1.36,29.76 -4.13,15.35 -11.97,29.69 -22.65,41.46 l -48.15,0.18 c 3.76,-7.59 7.67,-15.12 11.7,-22.58 z"
       fill="#db1d41"
       id="path227"
       style="fill:#b45309;fill-opacity:1" />
    <path
       d="m 1650.71,159.39 c -2.87,-6.03 -6.07,-11.89 -9.59,-17.57 2.83,-3.85 5.77,-7.61 8.98,-11.15 5.04,-5.55 11.03,-10.71 18.33,-12.39 3.97,-0.92 8.6,-0.55 11.53,2.19 -10.03,12.76 -19.77,25.74 -29.25,38.92 z"
       fill="#db1d41"
       id="path228"
       style="fill:#b45309;fill-opacity:1" />
    <path
       d="m 1451.12,81.2999 -0.29,-20 c -15.68,-17.35 7.89,-23.13 16.26,-24.86 6.14,-1.27 11,-3.2 19.14,0.68 22.17,10.56 30.97,17.45 33.63,21.78 2.59,4.24 7.17,7.97 -5.6,29.05"
       stroke="#000000"
       stroke-width="1.2112"
       stroke-miterlimit="10"
       stroke-linecap="round"
       stroke-linejoin="round"
       id="path229" />
  </g>
  <defs
     id="defs229">
    <clipPath
       id="clip0_2_44788">
      <rect
         width="1974.49"
         height="272.51999"
         fill="#ffffff"
         transform="translate(-27)"
         id="rect229"
         x="0"
         y="0" />
    </clipPath>
  </defs>
</svg>
