<svg width="360" height="276" viewBox="0 0 360 276" fill="none" xmlns="http://www.w3.org/2000/svg">
<path d="M87.7116 7.57739C49.6717 11.7018 15.0023 31.6605 3.5866 68.1773C-3.15426 89.7344 -1.78196 115.235 19.8506 141.633C77.5475 212.027 155.015 284.224 207.848 257.283C260.682 230.342 256.376 195.439 314.646 145.682C372.916 95.9173 363.122 53.8887 349.972 35.3024C314.36 -15.0279 145.333 1.33418 87.7116 7.57739Z" fill="#F9F2F4"/>
<path d="M289.226 219.454C294.587 219.454 298.931 215.111 298.931 209.75V35.6191C298.931 30.2581 294.587 25.915 289.226 25.915H71.2041C65.8431 25.915 61.5 30.2581 61.5 35.6191V75.4535V219.198L289.226 219.454Z" fill="#FDFDFD"/>
<path d="M131.751 206.093C134.676 193.886 137.081 176.913 137.737 169.516C138.71 158.568 130.371 151.684 131.728 144.174C132.067 141.429 136.162 136.875 140.339 131.092C147.524 121.139 149.032 108.426 144.9 96.9277C141.108 86.3866 147.562 77.2857 134.503 65.3346C128.493 59.393 119.332 55.5551 110.171 59.4684C107.177 60.7502 101.19 62.3035 97.2168 63.05C93.4543 63.7587 89.8351 65.0933 86.623 67.1292C79.9952 71.3139 77.1752 76.773 71.9952 87.8645C65.3071 102.176 74.031 118.598 74.031 118.598C74.031 118.598 76.6248 124.2 76.3835 127.36C75.916 133.324 68.3081 138.76 63.1355 145.222L57.8047 165.03L108.112 212.774L131.751 206.093Z" fill="#FDFDFD"/>
<path d="M61.5 75.4532V35.6188C61.5 30.2578 65.8431 25.9147 71.2041 25.9147H289.226C294.587 25.9147 298.931 30.2578 298.931 35.6188V209.75C298.931 215.111 294.587 219.454 289.226 219.454H198.851" stroke="black" stroke-width="1.2112" stroke-miterlimit="10" stroke-linecap="round" stroke-linejoin="round"/>
<path d="M203.2 121.991H165.507C164.413 121.991 163.531 121.108 163.531 120.015V110.349C163.531 109.255 164.413 108.373 165.507 108.373H203.2C204.293 108.373 205.175 109.255 205.175 110.349V120.008C205.175 121.101 204.293 121.991 203.2 121.991Z" stroke="black" stroke-width="1.3204" stroke-miterlimit="10" stroke-linecap="round" stroke-linejoin="round"/>
<path d="M269.596 121.991H214.508C213.445 121.991 212.578 121.124 212.578 120.061V110.311C212.578 109.248 213.445 108.381 214.508 108.381H269.596C270.66 108.381 271.527 109.248 271.527 110.311V120.061C271.527 121.124 270.667 121.991 269.596 121.991Z" stroke="black" stroke-width="1.2907" stroke-miterlimit="10" stroke-linecap="round" stroke-linejoin="round"/>
<path d="M203.2 142.123H165.507C164.413 142.123 163.531 141.241 163.531 140.147V130.488C163.531 129.395 164.413 128.513 165.507 128.513H203.2C204.293 128.513 205.175 129.395 205.175 130.488V140.147C205.175 141.241 204.293 142.123 203.2 142.123Z" stroke="black" stroke-width="1.3204" stroke-miterlimit="10" stroke-linecap="round" stroke-linejoin="round"/>
<path d="M269.596 142.123H214.508C213.445 142.123 212.578 141.256 212.578 140.193V130.443C212.578 129.38 213.445 128.513 214.508 128.513H269.596C270.66 128.513 271.527 129.38 271.527 130.443V140.193C271.527 141.256 270.667 142.123 269.596 142.123Z" stroke="black" stroke-width="1.2907" stroke-miterlimit="10" stroke-linecap="round" stroke-linejoin="round"/>
<path d="M269.596 162.489H214.508C213.445 162.489 212.578 161.622 212.578 160.558V150.809C212.578 149.746 213.445 148.879 214.508 148.879H269.596C270.66 148.879 271.527 149.746 271.527 150.809V160.558C271.527 161.622 270.667 162.489 269.596 162.489Z" stroke="black" stroke-width="1.2907" stroke-miterlimit="10" stroke-linecap="round" stroke-linejoin="round"/>
<path d="M238.678 96.0528C253.99 96.0528 266.403 83.6399 266.403 68.3278C266.403 53.0157 253.99 40.6028 238.678 40.6028C223.366 40.6028 210.953 53.0157 210.953 68.3278C210.953 83.6399 223.366 96.0528 238.678 96.0528Z" fill="#FDFDFD"/>
<path d="M238.678 96.0528C253.99 96.0528 266.403 83.6399 266.403 68.3278C266.403 53.0157 253.99 40.6028 238.678 40.6028C223.366 40.6028 210.953 53.0157 210.953 68.3278C210.953 83.6399 223.366 96.0528 238.678 96.0528Z" stroke="#E54A68" stroke-width="1.1614" stroke-miterlimit="10"/>
<path d="M88.4622 48.3614C88.4245 48.8214 88.3114 49.319 88.1531 49.7412C88.04 50.0881 87.8816 50.4274 87.7308 50.7365C87.6931 50.8119 87.5423 51.1211 87.384 51.4227C87.2709 51.4227 87.1955 51.4227 87.0748 51.4604C86.924 51.4604 86.8034 51.4604 86.6526 51.4604C86.5395 51.4604 86.4264 51.4604 86.3057 51.4604C85.8081 51.4227 85.2727 51.3473 84.8128 51.2342C84.3151 51.1211 83.8552 50.925 83.3575 50.7365C82.4377 50.3143 81.6384 49.7412 80.9447 49.0174C79.5272 47.5245 78.7656 45.5791 78.7656 43.5508C78.7656 42.0202 79.1879 40.5272 80.0248 39.268C80.8316 38.0465 81.9777 37.0512 83.3123 36.4028C83.3877 36.3651 83.5008 36.3274 83.6214 36.252C84.4659 35.9051 85.3406 35.6789 86.2605 35.6412C86.4113 35.6412 86.5696 35.6412 86.6827 35.6412C86.7204 35.6412 86.7581 35.6412 86.7581 35.6412C86.4113 36.3274 85.9966 37.2096 85.9513 37.3227C85.5668 38.2049 85.3406 38.9664 85.2275 39.5772C84.7675 42.1408 86.2982 43.1738 87.8665 45.3529C87.8665 45.3529 87.8665 45.3906 87.9042 45.3906C87.9419 45.4283 87.9419 45.466 87.9796 45.5037V45.5414C87.9796 45.5791 88.0173 45.6168 88.0173 45.6168C88.055 45.6545 88.055 45.6922 88.055 45.7299C88.4622 46.6347 88.5376 47.5169 88.4622 48.3614Z" fill="#DF1D42"/>
<path d="M94.0483 40.7083C93.7014 39.8261 93.2415 39.0269 92.6307 38.3407C92.2462 37.9185 91.8692 37.534 91.4092 37.2323C90.9493 36.8855 90.4894 36.6216 89.9917 36.3879C88.9964 35.9279 87.888 35.664 86.7796 35.664C86.4328 36.3502 86.0181 37.1947 85.9351 37.3455C85.5506 38.2276 85.249 39.336 85.2867 39.2229C85.2867 39.2229 85.2867 39.2229 85.249 39.1852C84.9398 38.9967 83.4167 37.9637 83.2584 37.73V38.4161C83.2584 38.4161 82.5722 38.567 82.4139 38.6876C82.2631 38.763 82.2254 38.8384 82.1047 39.1852C82.0293 39.3737 81.6825 39.6452 81.3809 39.6452C81.2301 39.7583 81.3432 39.992 81.3809 40.0674C81.6071 40.7536 83.0246 40.6405 83.3715 41.4096C83.3338 41.3719 82.9115 41.025 82.6853 41.025C83.3338 43.0533 83.0699 43.091 83.2584 44.3125C83.3338 44.5387 83.8691 45.4963 83.8691 45.4963L83.9822 44.4633C83.9822 44.4633 84.0576 47.3663 83.9822 47.9845C83.9068 49.3644 83.4092 49.206 83.2207 49.4775C83.0699 49.7489 83.9068 49.8997 84.4045 49.8243C84.593 49.8243 85.0906 47.5698 85.0906 47.5698C85.0906 47.5698 85.0906 48.7159 85.0906 49.1382C85.0906 49.3267 85.0152 49.4096 84.8192 49.6735C84.8192 49.7112 84.8192 49.8243 84.9323 49.8243C85.0831 49.862 85.5807 49.862 85.7391 49.7489C85.8899 49.4021 86.1613 48.2937 86.1613 48.2183L86.0482 49.0628C86.0482 49.0628 86.2744 49.5604 87.8805 49.8243C87.9559 49.8243 88.0313 49.862 88.1519 49.862C88.0388 50.2089 87.8805 50.5482 87.7297 50.8573C87.692 50.9327 87.5412 51.2419 87.3828 51.5435C87.4205 51.5435 87.4205 51.5435 87.4582 51.5435C88.4912 51.4304 89.4865 51.1212 90.3612 50.6613C91.2057 50.2013 91.9672 49.5906 92.6157 48.9044C93.2264 48.2183 93.7241 47.4115 94.0332 46.5368C94.38 45.617 94.5685 44.7046 94.5685 43.7093C94.5384 42.5481 94.3876 41.5905 94.0483 40.7083ZM91.3263 48.3616C91.0172 49.0854 90.0671 49.5077 88.9135 49.6585C89.8711 48.0901 89.7203 46.8309 88.8758 45.1495C89.9465 46.2956 90.6326 47.5623 90.2556 48.6707C92.4347 47.6754 89.298 45.1118 90.1048 44.2371C90.7155 43.7395 91.364 44.3502 91.2132 44.584C90.9418 44.5463 90.8287 44.0863 90.4517 44.3577C89.7203 45.2249 91.9069 46.5218 91.3263 48.3616Z" fill="white"/>
<path d="M88.4225 49.7336C90.0286 46.0238 87.0427 44.2293 85.595 41.5148C85.9418 41.7863 85.9795 41.8617 86.4772 42.2387C86.628 41.8164 88.1963 41.2057 87.5479 39.9842C87.8193 41.2434 86.3641 41.8617 86.4018 41.9748C85.6402 41.4017 85.1049 40.791 85.6779 39.185C86.7863 38.8758 86.5978 38.8758 87.3594 38.9587C87.8947 39.185 88.5055 39.0718 88.8146 39.3056C89.1992 39.4187 89.6214 41.447 91.2275 41.3716C91.612 41.447 91.6497 42.0577 91.3406 42.3669C91.0314 42.5554 90.8429 42.9776 90.5338 43.2491C89.8476 43.4376 88.9277 42.7891 87.8193 43.2868C88.2793 43.2114 88.3924 43.2114 88.7392 43.2114C87.0427 43.9201 90.9108 47.4414 88.4225 49.7336Z" fill="#DF1D42"/>
<path d="M91.3255 48.3614C91.0164 49.0852 90.0663 49.5075 88.9127 49.6583C89.8703 48.0899 89.7195 46.8307 88.875 45.1493C89.9457 46.2954 90.6318 47.5621 90.2548 48.6705C92.4339 47.6752 89.2972 45.1116 90.104 44.2369C90.7148 43.7393 91.3632 44.35 91.2124 44.5838C90.941 44.5461 90.8279 44.0861 90.4509 44.3576C89.7195 45.2247 91.9061 46.5216 91.3255 48.3614Z" fill="#DF1D42"/>
<path d="M93.164 37.8431C91.671 36.1239 89.4919 35.0532 87.0867 34.8949H87.0489C86.9358 34.8949 86.7775 34.8949 86.6644 34.8949C86.5136 34.8949 86.3553 34.8949 86.2045 34.8949C85.1715 34.9326 84.2139 35.204 83.3392 35.581C83.1884 35.6187 83.0678 35.6564 82.9924 35.7319C80.0442 37.1117 78.0234 40.09 78.0234 43.5359C78.0234 48.1655 81.6955 51.9506 86.2422 52.1768C86.3553 52.1768 86.5136 52.1768 86.6267 52.1768C86.9358 52.1768 87.1998 52.1768 87.5089 52.1391C88.655 52.026 89.7257 51.6792 90.6833 51.1815C91.6032 50.6839 92.4401 50.0354 93.1338 49.2286C94.476 47.698 95.2752 45.7074 95.2752 43.5283C95.2752 41.3492 94.4609 39.3737 93.164 37.8431ZM92.5909 48.7385C91.9425 49.4624 91.2111 50.0807 90.3364 50.4954C89.4165 50.993 88.459 51.2569 87.4335 51.3776C87.3958 51.3776 87.3958 51.3776 87.3581 51.3776C87.245 51.3776 87.1696 51.3776 87.0489 51.4153C86.8981 51.4153 86.7775 51.4153 86.6267 51.4153C86.5136 51.4153 86.4005 51.4153 86.2799 51.4153C85.7822 51.3776 85.2469 51.3022 84.7869 51.1891C84.2893 51.076 83.8293 50.8799 83.3317 50.6914C82.4118 50.2692 81.6125 49.6961 80.9188 48.9723C79.539 47.517 78.7398 45.5717 78.7398 43.5434C78.7398 42.0128 79.162 40.5198 79.999 39.2606C80.8057 38.0391 81.9518 37.0438 83.2864 36.3954C83.3618 36.3577 83.4749 36.32 83.5956 36.2446C84.4401 35.8977 85.3147 35.6715 86.2346 35.6338C86.3854 35.6338 86.5438 35.6338 86.6569 35.6338C86.6946 35.6338 86.7323 35.6338 86.7323 35.6338C87.8407 35.6338 88.9491 35.9053 89.9443 36.3577C90.4797 36.5839 90.9773 36.893 91.3996 37.2022C91.8218 37.549 92.2441 37.8883 92.6211 38.3106C93.2318 38.9967 93.7295 39.8035 94.0386 40.6782C94.3855 41.5981 94.574 42.5104 94.574 43.5057C94.574 44.4633 94.4232 45.4209 94.0386 46.3332C93.6993 47.2079 93.2017 48.0147 92.5909 48.7385Z" fill="#E94B4F"/>
<path d="M99.124 49.7715C98.5133 49.7715 98.0156 49.2738 98.0156 48.6631V37.647H98.551L99.4332 38.68C99.6217 38.4915 99.8554 38.2954 100.082 38.1446C100.308 37.9938 100.579 37.8355 100.843 37.7224C101.152 37.5716 101.454 37.4509 101.801 37.4132C102.027 37.3755 102.261 37.3378 102.487 37.3378C103.135 37.3378 103.708 37.4509 104.281 37.6847C104.817 37.9109 105.314 38.22 105.699 38.6423C106.121 39.0645 106.423 39.5245 106.657 40.0975C106.89 40.6706 107.003 41.319 107.003 42.0127C107.003 42.7366 106.89 43.3925 106.657 43.9656C106.43 44.5386 106.084 45.0363 105.699 45.4208C105.277 45.8431 104.817 46.107 104.281 46.3407C103.746 46.5292 103.211 46.6499 102.6 46.6499C102.412 46.6499 102.178 46.6499 101.989 46.5745C101.801 46.4991 101.529 46.4614 101.341 46.386C101.152 46.3106 100.956 46.2352 100.768 46.1145C100.579 46.0391 100.421 45.926 100.232 45.8054V48.5952C100.232 49.2361 99.7348 49.7715 99.124 49.7715ZM104.749 41.9373C104.749 41.5528 104.674 41.2511 104.56 40.942C104.447 40.6329 104.289 40.4067 104.1 40.1805C103.912 39.992 103.678 39.7959 103.377 39.7205C103.105 39.6074 102.804 39.5697 102.494 39.5697C102.185 39.5697 101.884 39.6074 101.612 39.7205C101.341 39.8336 101.115 39.992 100.926 40.1805C100.738 40.369 100.542 40.6404 100.466 40.942C100.353 41.2511 100.278 41.5905 100.278 41.9373C100.278 42.2841 100.353 42.6235 100.466 42.8949C100.579 43.204 100.738 43.4302 100.926 43.6564C101.115 43.8449 101.348 44.041 101.612 44.1541C101.884 44.2672 102.185 44.3049 102.494 44.3049C102.804 44.3049 103.105 44.2295 103.377 44.1541C103.648 44.041 103.874 43.8826 104.1 43.6564C104.289 43.4679 104.485 43.1965 104.56 42.8949C104.666 42.6235 104.749 42.3143 104.749 41.9373Z" fill="#DF1D42"/>
<path d="M116.722 46.4085H116.187L115.304 45.2247C115.078 45.4132 114.882 45.6093 114.618 45.7601C114.392 45.9109 114.121 46.0692 113.857 46.1823C113.585 46.2954 113.321 46.4085 113.05 46.4915C112.778 46.5669 112.477 46.6046 112.205 46.6046C111.595 46.6046 111.022 46.4915 110.449 46.2954C109.913 46.1069 109.416 45.7978 109.031 45.3755C108.609 44.991 108.307 44.4934 108.073 43.9203C107.847 43.3473 107.727 42.6988 107.727 41.9674C107.727 41.2813 107.84 40.6705 108.073 40.0899C108.3 39.5169 108.646 39.0192 109.031 38.597C109.453 38.1747 109.913 37.8731 110.449 37.6394C110.984 37.4132 111.557 37.2925 112.205 37.2925C112.477 37.2925 112.778 37.3302 113.05 37.4057C113.321 37.4811 113.585 37.5564 113.857 37.7148C114.128 37.8279 114.354 37.9862 114.618 38.137C114.844 38.2878 115.078 38.4839 115.304 38.6724L116.187 37.6394H116.722V46.4085ZM114.467 41.9373C114.467 41.6281 114.392 41.3265 114.279 41.0551C114.166 40.7459 114.007 40.5197 113.819 40.2935C113.63 40.0673 113.397 39.8713 113.133 39.7582C112.861 39.6074 112.56 39.5697 112.251 39.5697C111.941 39.5697 111.64 39.6074 111.368 39.7205C111.097 39.8336 110.871 39.9919 110.682 40.1804C110.494 40.3689 110.335 40.6403 110.222 40.942C110.109 41.2511 110.072 41.5904 110.072 41.975C110.072 42.3595 110.147 42.6988 110.222 43.0079C110.335 43.3171 110.494 43.5433 110.682 43.7695C110.871 43.958 111.105 44.1163 111.368 44.2294C111.632 44.3425 111.941 44.3803 112.251 44.3803C112.56 44.3803 112.861 44.3049 113.133 44.1917C113.404 44.0409 113.63 43.8826 113.819 43.6564C114.007 43.4302 114.204 43.1965 114.279 42.8948C114.43 42.548 114.467 42.2766 114.467 41.9373Z" fill="#DF1D42"/>
<path d="M129.494 43.2342C129.494 43.6942 129.419 44.1164 129.222 44.5311C129.034 44.9534 128.8 45.2927 128.499 45.6018C128.197 45.911 127.85 46.1372 127.428 46.3257C127.006 46.5142 126.583 46.5971 126.131 46.5971C125.709 46.5971 125.324 46.5217 124.947 46.3709C124.563 46.2201 124.223 46.0241 123.914 45.7225C123.605 45.9939 123.266 46.2201 122.881 46.3709C122.497 46.5217 122.12 46.5971 121.66 46.5971C121.2 46.5971 120.74 46.5217 120.363 46.3257C119.941 46.1372 119.601 45.9034 119.292 45.6018C118.983 45.2927 118.757 44.9534 118.568 44.5311C118.38 44.1089 118.297 43.6866 118.297 43.2342V38.7629C118.297 38.1522 118.795 37.6545 119.405 37.6545C120.016 37.6545 120.514 38.1522 120.514 38.7629V43.2342C120.514 43.385 120.551 43.5434 120.589 43.6565C120.664 43.8073 120.702 43.9279 120.815 44.0033C120.928 44.1164 121.041 44.1918 121.162 44.2295C121.275 44.3049 121.434 44.3049 121.584 44.3049C121.735 44.3049 121.894 44.2672 122.007 44.2295C122.12 44.1541 122.278 44.0787 122.353 44.0033C122.467 43.8902 122.542 43.7771 122.58 43.6565C122.655 43.5434 122.655 43.385 122.655 43.2342V38.7629C122.655 38.1522 123.153 37.6545 123.763 37.6545C124.374 37.6545 124.872 38.1522 124.872 38.7629V43.2342C124.872 43.385 124.91 43.5434 124.947 43.6565C125.023 43.8073 125.098 43.9279 125.173 44.0033C125.287 44.1164 125.4 44.1918 125.52 44.2295C125.671 44.3049 125.792 44.3049 125.943 44.3049C126.093 44.3049 126.252 44.2672 126.365 44.2295C126.478 44.1541 126.636 44.0787 126.712 44.0033C126.825 43.8902 126.9 43.7771 126.938 43.6565C127.013 43.5434 127.013 43.385 127.013 43.2342V38.7629C127.013 38.1522 127.511 37.6545 128.122 37.6545C128.732 37.6545 129.23 38.1522 129.23 38.7629L129.494 43.2342Z" fill="#DF1D42"/>
<path d="M141.153 46.4085C140.542 46.4085 140.044 45.9108 140.044 45.3001V40.8665C140.044 40.7157 140.007 40.5574 139.969 40.4443C139.894 40.2934 139.818 40.1728 139.743 40.0974C139.63 39.9843 139.517 39.9089 139.396 39.8712C139.245 39.7958 139.125 39.7958 138.974 39.7958C138.823 39.7958 138.665 39.8335 138.552 39.8712C138.401 39.9466 138.28 40.022 138.205 40.0974C138.092 40.2105 138.016 40.3236 137.979 40.4443C137.903 40.5574 137.903 40.7157 137.903 40.8665V45.3001C137.903 45.9108 137.405 46.4085 136.795 46.4085C136.184 46.4085 135.686 45.9108 135.686 45.3001V40.8665C135.686 40.7157 135.649 40.5574 135.611 40.4443C135.536 40.2934 135.46 40.1728 135.385 40.0974C135.272 39.9843 135.158 39.9089 135.038 39.8712C134.925 39.7958 134.766 39.7958 134.616 39.7958C134.465 39.7958 134.306 39.8335 134.193 39.8712C134.043 39.9466 133.922 40.022 133.847 40.0974C133.733 40.2105 133.658 40.3236 133.62 40.4443C133.545 40.5574 133.545 40.7157 133.545 40.8665V45.3001C133.545 45.9108 133.047 46.4085 132.437 46.4085C131.826 46.4085 131.328 45.9108 131.328 45.3001V37.6544H131.863L132.474 38.3406C132.783 38.0691 133.123 37.8806 133.507 37.7298C133.892 37.579 134.269 37.5036 134.691 37.5036C135.113 37.5036 135.498 37.579 135.875 37.7298C136.252 37.8806 136.599 38.1521 136.908 38.5366C137.059 38.3481 137.217 38.1898 137.368 38.0767C137.556 37.9259 137.715 37.8505 137.903 37.7675C138.092 37.6921 138.288 37.6167 138.514 37.579C138.702 37.5413 138.936 37.5413 139.125 37.5413C139.585 37.5413 140.044 37.6167 140.421 37.8127C140.844 38.0013 141.183 38.235 141.492 38.5366C141.801 38.8382 142.028 39.1851 142.216 39.6073C142.367 40.0295 142.487 40.4518 142.487 40.9042V45.3378C142.261 45.9108 141.764 46.4085 141.153 46.4085Z" fill="#DF1D42"/>
<path d="M152.402 46.4086H151.866L150.984 45.1871C150.758 45.3756 150.562 45.5716 150.298 45.7224C150.072 45.8732 149.8 46.0316 149.536 46.1447C149.265 46.2578 149.001 46.3709 148.73 46.4538C148.458 46.5292 148.157 46.5669 147.885 46.5669C147.274 46.5669 146.701 46.4538 146.128 46.2578C145.593 46.0693 145.095 45.7601 144.711 45.3379C144.288 44.9533 143.987 44.4557 143.753 43.8826C143.527 43.3096 143.406 42.6612 143.406 41.9298C143.406 41.2436 143.519 40.6329 143.753 40.0523C143.979 39.4792 144.326 38.9816 144.711 38.5593C145.133 38.1371 145.593 37.8355 146.128 37.6017C146.664 37.3755 147.237 37.2549 147.885 37.2549C148.157 37.2549 148.458 37.2926 148.73 37.368C149.001 37.4434 149.265 37.5188 149.536 37.6771C149.808 37.7902 150.034 37.9486 150.298 38.0994C150.524 38.2502 150.758 38.4462 150.984 38.6347L151.866 37.6017H152.402V46.4086ZM150.147 41.9373C150.147 41.6282 150.072 41.3265 149.959 41.0551C149.846 40.746 149.687 40.5197 149.499 40.2935C149.31 40.0673 149.076 39.8713 148.813 39.7582C148.541 39.6074 148.239 39.5697 147.93 39.5697C147.621 39.5697 147.32 39.6074 147.048 39.7205C146.777 39.8336 146.55 39.9919 146.362 40.1804C146.173 40.369 146.015 40.6404 145.902 40.942C145.789 41.2436 145.751 41.5905 145.751 41.975C145.751 42.3595 145.827 42.6988 145.902 43.008C146.015 43.3171 146.173 43.5433 146.362 43.7695C146.55 43.958 146.784 44.1164 147.048 44.2295C147.312 44.3426 147.621 44.3803 147.93 44.3803C148.239 44.3803 148.541 44.3049 148.813 44.1918C149.084 44.041 149.31 43.8826 149.499 43.6564C149.687 43.4302 149.883 43.1965 149.959 42.8949C150.109 42.548 150.147 42.2766 150.147 41.9373Z" fill="#DF1D42"/>
<path d="M165.175 43.2342C165.175 43.6942 165.1 44.1164 164.904 44.5311C164.715 44.9534 164.481 45.2927 164.18 45.6018C163.878 45.911 163.531 46.1372 163.109 46.3257C162.687 46.5142 162.265 46.5971 161.812 46.5971C161.39 46.5971 161.005 46.5217 160.628 46.3709C160.251 46.2201 159.904 46.0241 159.595 45.7225C159.286 45.9939 158.947 46.2201 158.562 46.3709C158.178 46.5217 157.801 46.5971 157.379 46.5971C156.919 46.5971 156.459 46.5217 156.082 46.3257C155.659 46.1372 155.32 45.9034 155.011 45.6018C154.702 45.3002 154.476 44.9534 154.287 44.5311C154.099 44.1089 154.016 43.6866 154.016 43.2342V38.7629C154.016 38.1522 154.513 37.6545 155.124 37.6545C155.735 37.6545 156.232 38.1522 156.232 38.7629V43.2342C156.232 43.385 156.27 43.5434 156.308 43.6565C156.383 43.8073 156.459 43.9279 156.534 44.0033C156.647 44.1164 156.76 44.1918 156.881 44.2295C157.032 44.3049 157.152 44.3049 157.303 44.3049C157.454 44.3049 157.612 44.2672 157.725 44.2295C157.838 44.1541 157.997 44.0787 158.072 44.0033C158.185 43.8902 158.261 43.7771 158.298 43.6565C158.374 43.5434 158.374 43.385 158.374 43.2342V38.7629C158.374 38.1522 158.871 37.6545 159.482 37.6545C160.093 37.6545 160.591 38.1522 160.591 38.7629V43.2342C160.591 43.385 160.628 43.5434 160.666 43.6565C160.741 43.8073 160.817 43.9279 160.892 44.0033C161.005 44.1164 161.118 44.1918 161.239 44.2295C161.39 44.3049 161.511 44.3049 161.661 44.3049C161.812 44.3049 161.97 44.2672 162.084 44.2295C162.234 44.1541 162.355 44.0787 162.43 44.0033C162.543 43.8902 162.619 43.7771 162.657 43.6565C162.732 43.5434 162.732 43.385 162.732 43.2342V38.7629C162.732 38.1522 163.23 37.6545 163.84 37.6545C164.451 37.6545 164.949 38.1522 164.949 38.7629L165.175 43.2342Z" fill="#DF1D42"/>
<path d="M319.162 206.515H223.372C220.937 206.515 218.969 204.54 218.969 202.112V184.883C218.969 182.447 220.944 180.479 223.372 180.479H319.162C321.597 180.479 323.565 182.455 323.565 184.883V202.112C323.565 204.54 321.597 206.515 319.162 206.515Z" fill="#E54A68"/>
<path d="M251.314 193.441C252.837 192.679 253.704 191.285 253.704 189.347C253.704 186.089 251.238 184.891 247.295 184.891C246.805 184.891 245.991 184.906 243.676 185.071C242.643 185.147 242.718 186.994 243.118 187.409C243.465 187.371 243.827 187.333 244.188 187.318C243.992 187.499 243.97 187.695 243.97 187.899C243.985 189.852 243.894 193.999 243.917 197.407C243.917 197.965 244.098 198.568 245.259 198.568C245.659 198.568 246.345 198.387 246.631 198.282C246.594 197.143 246.594 195.748 246.594 194.097H248.17C248.456 194.097 248.728 194.082 248.984 194.059C249.798 195.869 250.379 197.068 250.869 197.731C251.321 198.365 251.736 198.621 252.369 198.621C253.146 198.621 253.779 198.221 254.27 197.226C253.229 196.389 252.196 194.941 251.314 193.441ZM246.586 192.084C246.586 190.493 246.601 187.65 246.601 187.107C246.963 187.092 247.287 187.07 247.612 187.07C249.587 187.07 250.907 187.56 250.907 189.603C250.907 190.885 250.379 191.541 249.421 192.084H246.586ZM262.571 195.522C261.923 196.427 261.32 196.917 260.324 196.955C259.314 196.992 258.168 196.465 257.949 194.564H263.378C264.207 191.684 262.82 189.422 259.849 189.422C256.841 189.422 255.468 191.616 255.468 194.127C255.468 196.97 257.21 198.651 259.993 198.651C261.403 198.651 262.549 198.214 263.107 197.581C263.732 196.879 263.551 195.937 262.571 195.522ZM259.744 191.119C260.814 191.043 261.267 191.971 261.176 193.056L257.972 193.162C258.153 191.842 258.861 191.171 259.744 191.119ZM271.084 189.422C269.636 189.422 268.784 190.071 267.751 192.121C267.789 191.654 267.827 191.141 267.827 190.47C267.827 189.927 267.54 189.49 266.96 189.49C266.598 189.49 265.911 189.58 265.331 189.777L265.949 197.384C265.625 198.365 265.391 199.466 265.391 200.717C265.391 201.66 266.025 202.089 266.764 202.089C267.163 202.089 267.744 201.984 267.993 201.924L267.94 197.105C268.573 197.905 269.32 198.629 270.617 198.629C272.75 198.629 274.492 196.706 274.492 193.682C274.485 190.508 272.879 189.422 271.084 189.422ZM269.87 196.857C269.161 196.857 268.4 196.404 267.917 196.027L267.902 193.924C268.52 192.4 269.222 191.171 270.42 191.171C271.453 191.171 272.034 192.257 272.034 193.795C272.027 195.65 271.371 196.857 269.87 196.857ZM280.245 198.651C282.183 198.651 284.739 197.603 284.739 194.037C284.739 190.47 282.183 189.422 280.245 189.422C278.307 189.422 275.736 190.47 275.736 194.037C275.736 197.603 278.307 198.651 280.245 198.651ZM280.336 196.879C279.016 196.917 278.255 195.794 278.202 194.112C278.149 192.408 278.82 191.254 280.155 191.194C281.474 191.141 282.221 192.265 282.274 193.961C282.326 195.65 281.67 196.826 280.336 196.879ZM287.393 198.561C287.65 198.561 288.313 198.508 288.894 198.252C288.803 197.309 288.675 196.495 288.675 193.728C289.746 191.503 290.598 191.428 291.789 191.775C292.076 191.285 292.204 190.832 292.204 190.47C292.204 189.822 291.767 189.422 290.975 189.422C289.927 189.422 289.324 190.108 288.509 192.099V190.485C288.509 189.89 288.2 189.49 287.439 189.49C287.114 189.49 286.639 189.58 286.172 189.777C286.39 191.119 286.571 192.544 286.609 194.233C286.466 195.371 286.247 196.367 286.247 197.256C286.247 198.252 286.828 198.561 287.393 198.561ZM299.359 196.351C299.013 196.495 298.56 196.819 297.927 196.804C296.916 196.766 296.766 196.186 296.788 195.175L296.826 191.285L298.507 191.3C299.397 191.3 299.488 190.123 299.216 189.58L296.864 189.596L296.916 186.934C295.325 186.791 294.24 186.896 294.308 188.253L294.383 189.626H293.621C292.988 189.626 292.641 190.334 292.935 191.292L294.436 191.307L294.421 195.907C294.421 197.339 295.129 198.621 297.391 198.621C298.259 198.621 298.952 198.402 299.314 198.184C299.978 197.769 299.631 196.985 299.359 196.351Z" fill="white"/>
<path d="M83.8022 137.802C83.8022 137.802 58.7313 145.78 51.704 150.945C44.6766 156.11 39.8886 159.857 31.4211 181.135C22.9535 202.413 16.2504 223.526 23.2777 234.632C30.3051 245.739 43.2364 245.422 43.2364 245.422L46.9085 246.048C46.9085 246.048 44.0357 267.945 49.4646 275.454L138.883 275.613L138.219 273.592C138.023 272.989 138.513 272.386 139.154 272.438L141.024 272.589C142.811 272.733 144.108 270.953 143.384 269.347L137.918 257.192C137.918 257.192 143.309 262.003 151.331 262.591C159.354 263.179 162.227 257.426 162.227 257.426C162.227 257.426 164.504 252.027 164.142 246.048C164.142 246.048 152.289 248.981 148.692 243.816V238.071L142.344 231.971L132.406 214.138C132.406 214.138 130.008 164.396 106.536 144.92L103.942 155.084L83.8022 137.802Z" fill="#E54A67"/>
<path d="M93.9959 222.938C93.9959 222.938 95.7151 223.375 97.7886 223.292C99.8697 223.209 102.494 223.481 105.08 222.357C107.666 221.234 111.821 219.53 113.691 218.949C115.553 218.368 119.836 216.792 123.742 217.079C127.647 217.366 127.911 216.657 129.269 218.15C129.796 218.73 128.801 219.492 128.515 219.899C128.07 220.54 127.791 221.007 127.791 221.007L121.917 221.437L126.358 224.137L125.974 225.449L125.054 227.416L122.271 225.697L120.409 223.375L119.843 223.722L114.203 226.821L104.906 230.945L92.5859 234.557L93.9959 222.938Z" fill="#FDFDFD"/>
<path d="M88.3594 235.137L169.996 236.495L177.28 227.296L125.879 225.124L88.3594 235.137Z" fill="black"/>
<path d="M189.114 204.63L200.613 183.36L148.39 181.482L125.875 225.124L173.627 227.002L176.899 227.236L189.114 204.63Z" fill="#FDFDFD"/>
<path d="M189.114 204.63L200.613 183.36L148.39 181.482L125.875 225.124L173.627 227.002L176.899 227.236L189.114 204.63Z" stroke="black" stroke-width="1.2112" stroke-miterlimit="10" stroke-linecap="round" stroke-linejoin="round"/>
<path d="M163.468 246.372L164.199 245.377L167.63 242.293L171.769 238.598L173.24 236.216L173.971 231.232L174.001 226.383L173.24 222.176L172.056 217.773L170.955 215.337L169.515 214.757L168.241 215.005L167.871 218.549L168.407 225.192L167.954 230.063L167.049 231.722L166.341 231.111L162.721 226.074L159.389 222.312L156.508 221.316L155.234 221.814L155.543 224.031L159.245 229.905L160.829 232.204L160.716 233.064L159.585 233.23L154.156 231.156L150.114 229.603L146.156 229.467L143.75 230.297L142.876 231.209L142.68 232.37L144.376 233.531L146.224 235.484L148.749 238.395L148.584 243.281C148.584 243.273 153.289 248.815 163.468 246.372Z" fill="#FDFDFD"/>
<path d="M86.4688 136.189L91.8976 120.159" stroke="black" stroke-width="1.2112" stroke-miterlimit="10" stroke-linecap="round" stroke-linejoin="round"/>
<path d="M104.609 142.093L106.638 132.871" stroke="black" stroke-width="1.2112" stroke-miterlimit="10" stroke-linecap="round" stroke-linejoin="round"/>
<path d="M86.2031 99.4533C101.065 100.886 105.114 90.473 106.516 73.0479C114.75 87.2459 121.468 93.0669 133.932 98.2394C135.749 116.554 126.377 126.884 124.318 128.913C124.092 129.139 123.858 129.365 123.632 129.599C122.275 130.963 116.183 136.151 105.694 131.906C104.624 131.476 103.508 130.941 102.339 130.3C97.2192 127.465 94.0222 123.996 92.0316 120.716C88.5029 114.918 88.7366 109.723 88.7366 109.723" stroke="black" stroke-width="1.2112" stroke-miterlimit="10" stroke-linecap="round" stroke-linejoin="round"/>
<path d="M89.0117 111.382C89.0117 111.382 81.0343 112.807 80.5442 106.556C80.0541 100.305 88.4085 100.117 88.4085 100.117" stroke="black" stroke-width="1.2112" stroke-miterlimit="10" stroke-linecap="round" stroke-linejoin="round"/>
<path d="M105.671 137.199C93.2377 130.692 92.1293 122.164 92.0312 120.701C94.0218 123.981 97.2188 127.45 102.339 130.285C103.5 130.933 104.616 131.461 105.694 131.891L106.486 132.788L105.671 137.199Z" fill="black"/>
<path d="M110.852 119.797C110.852 119.797 113.008 120.279 114.554 120.701C116.099 121.124 117.653 121.599 117.653 121.599" stroke="black" stroke-width="1.2112" stroke-miterlimit="10" stroke-linecap="round" stroke-linejoin="round"/>
<path d="M119.711 108.336L118.859 114.066" stroke="black" stroke-width="1.2112" stroke-miterlimit="10" stroke-linecap="round" stroke-linejoin="round"/>
<path d="M110.632 98.277C110.632 98.277 108.868 98.8199 108.445 99.8076" stroke="black" stroke-width="1.2112" stroke-miterlimit="10" stroke-linecap="round" stroke-linejoin="round"/>
<path d="M130.688 103.774C130.688 103.774 129.829 102.168 128.758 101.942" stroke="black" stroke-width="1.2112" stroke-miterlimit="10" stroke-linecap="round" stroke-linejoin="round"/>
<path d="M112.939 104.939C113.227 103.702 112.76 102.536 111.896 102.335C111.032 102.134 110.098 102.974 109.81 104.211C109.522 105.448 109.989 106.614 110.853 106.815C111.717 107.016 112.651 106.176 112.939 104.939Z" fill="black"/>
<path d="M129.705 107.232C129.993 105.995 129.526 104.829 128.662 104.628C127.798 104.427 126.864 105.267 126.576 106.504C126.288 107.741 126.755 108.907 127.619 109.108C128.483 109.309 129.417 108.469 129.705 107.232Z" fill="black"/>
<path d="M97.7625 235.688C92.9292 253.927 87.0781 271.111 87.0781 271.111" stroke="black" stroke-width="1.2112" stroke-miterlimit="10" stroke-linecap="round" stroke-linejoin="round"/>
<path d="M82.2891 142.296C82.2891 142.296 94.2627 170.451 96.4192 180.306C98.44 189.543 104.253 203.733 100.823 222.87" stroke="black" stroke-width="1.2112" stroke-miterlimit="10" stroke-linecap="round" stroke-linejoin="round"/>
<path d="M57.8569 156.14C57.8569 156.14 67.2745 161.931 64.7259 179.914C62.1698 197.904 55.625 210.572 55.625 210.572" stroke="black" stroke-width="1.2112" stroke-miterlimit="10" stroke-linecap="round" stroke-linejoin="round"/>
<path d="M93.9453 223.089C93.9453 223.089 100.648 224.023 105.444 222.154C110.239 220.284 116.618 217.464 122.372 217.147C128.117 216.838 129.557 218.082 129.557 218.082" stroke="black" stroke-width="1.2112" stroke-miterlimit="10" stroke-linecap="round" stroke-linejoin="round"/>
<path d="M122.847 225.75C122.847 225.75 121.407 225.124 120.291 223.563C118.534 225.441 110.391 228.57 110.391 228.57" stroke="black" stroke-width="1.2112" stroke-miterlimit="10" stroke-linecap="round" stroke-linejoin="round"/>
<path d="M126.217 224.016L121.406 221.369L127.657 221.06" stroke="black" stroke-width="1.2112" stroke-miterlimit="10" stroke-linecap="round" stroke-linejoin="round"/>
<path d="M137.675 257.313L137.531 257.034C137.531 257.034 145.516 264.702 157.814 262.199C164.103 259.869 163.786 249.283 163.612 246.674C163.59 246.297 163.741 245.935 164.02 245.679L171.19 239.156C172.186 238.252 172.894 237.083 173.211 235.786C173.596 234.225 173.988 231.827 173.95 228.646C173.882 223.624 172.118 218.21 171.492 216.446C171.303 215.903 170.972 215.413 170.512 215.066C170.044 214.711 169.418 214.447 168.762 214.802C167.443 215.503 168.28 222.312 168.28 222.312C168.28 222.312 169.117 230.523 166.727 231.699C164.457 228.163 160.936 224.099 160.008 223.043C159.842 222.855 159.661 222.689 159.45 222.546C158.636 221.988 156.517 220.698 155.469 221.724C154.15 223.013 158.342 228.525 158.342 228.525L160.973 232.747C160.973 232.747 160.016 234.27 154.383 231.224C148.751 228.17 143.797 229.882 143.201 230.704C142.606 231.526 142.606 232.695 145.109 234.444" stroke="black" stroke-width="1.2112" stroke-miterlimit="10" stroke-linecap="round" stroke-linejoin="round"/>
<path d="M148.628 248.235L148.508 238.734" stroke="black" stroke-width="1.2112" stroke-miterlimit="10" stroke-linecap="round" stroke-linejoin="round"/>
<path d="M154.944 261.098C154.944 261.098 149.357 261.845 148.633 248.235" stroke="black" stroke-width="1.2112" stroke-miterlimit="10" stroke-linecap="round" stroke-linejoin="round"/>
<path d="M150.312 244.676C150.312 244.676 153.585 248.114 162.286 246.478" stroke="black" stroke-width="1.2112" stroke-miterlimit="10" stroke-linecap="round" stroke-linejoin="round"/>
<path d="M145.359 234.512C145.359 234.512 149.914 240.061 152.228 241.313" stroke="black" stroke-width="1.2112" stroke-miterlimit="10" stroke-linecap="round" stroke-linejoin="round"/>
<path d="M144.164 231.767C144.164 231.767 147.964 234.067 151.915 236.171" stroke="black" stroke-width="1.2112" stroke-miterlimit="10" stroke-linecap="round" stroke-linejoin="round"/>
<path d="M127.211 254.108C129.616 260.57 132.866 266.376 137.217 270.644" stroke="black" stroke-width="1.2112" stroke-miterlimit="10" stroke-linecap="round" stroke-linejoin="round"/>
<path d="M94.2632 221.603L91.6317 243.658C81.332 249.29 55.7031 246.47 55.7031 246.47" stroke="black" stroke-width="1.2112" stroke-miterlimit="10" stroke-linecap="round" stroke-linejoin="round"/>
<path d="M43 214.485C43 214.485 55.6598 213.211 72.4818 215.971" stroke="black" stroke-width="1.2112" stroke-miterlimit="10" stroke-linecap="round" stroke-linejoin="round"/>
<path d="M131.748 206.093C134.673 193.886 137.079 176.913 137.735 169.516C138.707 158.568 130.368 151.684 131.725 144.174C132.064 141.429 136.159 136.875 140.336 131.092C147.522 121.139 149.03 108.426 144.898 96.9274C141.105 86.3863 147.559 77.2854 134.5 65.3343C128.49 59.3927 119.329 55.5548 110.168 59.4681C107.175 60.7499 101.188 62.3032 97.2141 63.0497C93.4516 63.7584 89.8323 65.093 86.6203 67.1289C79.9925 71.3136 77.1725 76.7727 71.9924 87.8642C65.3044 102.175 74.0283 118.598 74.0283 118.598C74.0283 118.598 76.6221 124.2 76.3808 127.359C75.9133 133.323 68.3053 138.76 63.1328 145.222" stroke="black" stroke-width="1.2112" stroke-miterlimit="10" stroke-linecap="round" stroke-linejoin="round"/>
<path d="M239.129 53.6624C238.096 53.7679 235.917 52.7198 234.756 52.4258C233.489 52.1091 230.066 52.8405 228.671 54.356C226.583 54.9291 222.27 58.2844 219.231 62.0847C216.192 65.8849 216.569 65.44 217.271 67.3401C217.964 69.2402 221.448 77.0291 221.448 77.0291C221.448 77.0291 224.042 81.146 226.07 80.7012C228.098 80.2563 229.048 77.4061 229.048 77.4061C229.048 77.4061 231.521 86.0245 237.915 81.2667C240.826 83.4835 243.932 84.4939 246.85 78.6729C248.057 80.5127 250.145 81.6512 253.184 77.9113C256.223 74.1714 259.706 67.7096 259.706 67.7096C259.706 67.7096 261.29 65.1158 257.49 61.0592C253.689 57.0026 250.771 54.9743 249.761 54.537C248.434 52.9536 245.704 51.6868 242.922 52.4484C240.14 53.2175 240.125 53.5568 239.129 53.6624Z" stroke="black" stroke-width="1.2112" stroke-miterlimit="10" stroke-linecap="round" stroke-linejoin="round"/>
<path d="M228.871 54.6124C228.871 54.6124 228.683 56.4522 228.238 57.0177C227.793 57.5907 227.604 60.6294 228.177 63.6077C228.751 66.5861 229.572 74.6917 228.999 76.9085" stroke="black" stroke-width="1.2112" stroke-miterlimit="10" stroke-linecap="round" stroke-linejoin="round"/>
<path d="M250.024 54.8611C250.024 54.8611 249.519 56.633 249.964 59.1665C249.708 62.8385 247.242 77.8509 247.242 77.8509" stroke="black" stroke-width="1.2112" stroke-miterlimit="10" stroke-linecap="round" stroke-linejoin="round"/>
<path d="M234.321 65.5078C235.021 65.5078 235.588 64.9406 235.588 64.241C235.588 63.5414 235.021 62.9743 234.321 62.9743C233.622 62.9743 233.055 63.5414 233.055 64.241C233.055 64.9406 233.622 65.5078 234.321 65.5078Z" fill="black"/>
<path d="M243.376 65.5078C244.076 65.5078 244.643 64.9406 244.643 64.241C244.643 63.5414 244.076 62.9743 243.376 62.9743C242.677 62.9743 242.109 63.5414 242.109 64.241C242.109 64.9406 242.677 65.5078 243.376 65.5078Z" fill="black"/>
<path d="M235.062 77.2176L236.449 79.8265C236.751 80.3995 237.347 80.7539 237.995 80.7539H238.101C238.719 80.7539 239.284 80.4297 239.601 79.9019L241.162 77.3081C241.577 76.6144 241.614 75.7246 241.185 75.0385C240.8 74.4202 240.114 73.998 239.307 73.9904L236.97 73.9753C236.487 73.9753 236.05 74.1186 235.695 74.3674C234.791 75.0008 234.549 76.2374 235.062 77.2176Z" fill="black"/>
</svg>
